SplineFontDB: 3.2
FontName: Reijima-BoldItalic
FullName: Reijima Bold Italic
FamilyName: Reijima
Weight: Bold
Copyright: Copyright (c) 2019 by Coji Morishita. All rights reserved.
Version: 1.000
ItalicAngle: -9
UnderlinePosition: -100
UnderlineWidth: 50
Ascent: 860
Descent: 140
InvalidEm: 0
sfntRevision: 0x00010000
LayerCount: 2
Layer: 0 1 "Back" 1
Layer: 1 1 "Fore" 0
XUID: [1021 531 -1996577725 14215911]
StyleMap: 0x0021
FSType: 8
OS2Version: 4
OS2_WeightWidthSlopeOnly: 0
OS2_UseTypoMetrics: 1
CreationTime: 1575364793
ModificationTime: 1707370241
PfmFamily: 81
TTFWeight: 700
TTFWidth: 5
LineGap: 0
VLineGap: 0
Panose: 0 0 8 0 0 0 0 0 0 0
OS2TypoAscent: 960
OS2TypoAOffset: 0
OS2TypoDescent: -230
OS2TypoDOffset: 0
OS2TypoLinegap: 200
OS2WinAscent: 1060
OS2WinAOffset: 0
OS2WinDescent: 330
OS2WinDOffset: 0
HheadAscent: 1060
HheadAOffset: 0
HheadDescent: -330
HheadDOffset: 0
OS2SubXSize: 650
OS2SubYSize: 600
OS2SubXOff: 0
OS2SubYOff: 75
OS2SupXSize: 650
OS2SupYSize: 600
OS2SupXOff: 0
OS2SupYOff: 350
OS2StrikeYSize: 50
OS2StrikeYPos: 312
OS2CapHeight: 730
OS2XHeight: 520
OS2Vendor: 'M+  '
OS2CodePages: 0000019f.00000000
OS2UnicodeRanges: a00002ff.4000204b.00000010.00000000
Lookup: 1 0 0 "'aalt' Access All Alternates in Latin lookup 0" { "'aalt' Access All Alternates in Latin lookup 0 subtable"  } ['aalt' ('DFLT' <'dflt' > 'latn' <'AZE ' 'CAT ' 'CRT ' 'KAZ ' 'MOL ' 'ROM ' 'TAT ' 'TRK ' 'dflt' > ) ]
Lookup: 3 0 0 "'aalt' Access All Alternates in Latin lookup 1" { "'aalt' Access All Alternates in Latin lookup 1 subtable"  } ['aalt' ('DFLT' <'dflt' > 'latn' <'AZE ' 'CAT ' 'CRT ' 'KAZ ' 'MOL ' 'ROM ' 'TAT ' 'TRK ' 'dflt' > ) ]
Lookup: 6 0 0 "'ccmp' Glyph Composition/Decomposition in Latin lookup 2" { "'ccmp' Glyph Composition/Decomposition in Latin lookup 2 contextual 0"  "'ccmp' Glyph Composition/Decomposition in Latin lookup 2 contextual 1"  } ['ccmp' ('DFLT' <'dflt' > 'latn' <'AZE ' 'CAT ' 'CRT ' 'KAZ ' 'MOL ' 'ROM ' 'TAT ' 'TRK ' 'dflt' > ) ]

StartChar: .notdef
Encoding: 1114112 -1 0
Width: 477
Flags: W
LayerCount: 2
Fore
SplineSet
328 -140 m 1,0,-1
 17 -140 l 1,1,-1
 176 860 l 1,2,-1
 487 860 l 1,3,-1
 328 -140 l 1,0,-1
239 793 m 1,4,-1
 234 760 l 1,5,-1
 297 760 l 1,6,-1
 291 723 l 1,7,-1
 227 723 l 1,8,-1
 221 690 l 1,9,-1
 384 690 l 1,10,-1
 389 723 l 1,11,-1
 325 723 l 1,12,-1
 331 760 l 1,13,-1
 395 760 l 1,14,-1
 400 793 l 1,15,-1
 239 793 l 1,4,-1
217 664 m 1,16,-1
 201 560 l 1,17,-1
 364 560 l 1,18,-1
 369 594 l 1,19,-1
 304 594 l 1,20,-1
 315 664 l 1,21,-1
 217 664 l 1,16,-1
271 594 m 1,22,-1
 239 594 l 1,23,-1
 244 630 l 1,24,-1
 277 630 l 1,25,-1
 271 594 l 1,22,-1
197 533 m 1,26,-1
 191 500 l 1,27,-1
 256 500 l 1,28,-1
 250 463 l 1,29,-1
 185 463 l 1,30,-1
 180 430 l 1,31,-1
 278 430 l 1,32,-1
 289 500 l 1,33,-1
 354 500 l 1,34,-1
 359 533 l 1,35,-1
 197 533 l 1,26,-1
317 473 m 1,36,-1
 307 407 l 1,37,-1
 177 407 l 1,38,-1
 171 373 l 1,39,-1
 334 373 l 1,40,-1
 350 473 l 1,41,-1
 317 473 l 1,36,-1
232 351 m 1,42,-1
 224 295 l 1,43,-1
 257 295 l 1,44,-1
 261 318 l 1,45,-1
 293 318 l 1,46,-1
 285 271 l 1,47,-1
 187 271 l 1,48,-1
 200 351 l 1,49,-1
 168 351 l 1,50,-1
 150 238 l 1,51,-1
 313 238 l 1,52,-1
 330 351 l 1,53,-1
 232 351 l 1,42,-1
140 178 m 1,54,-1
 122 65 l 1,55,-1
 285 65 l 1,56,-1
 303 178 l 1,57,-1
 140 178 l 1,54,-1
258 98 m 1,58,-1
 160 98 l 1,59,-1
 167 145 l 1,60,-1
 265 145 l 1,61,-1
 258 98 l 1,58,-1
119 42 m 1,62,-1
 114 9 l 1,63,-1
 182 9 l 1,64,-1
 106 -38 l 1,65,-1
 101 -71 l 1,66,-1
 264 -71 l 1,67,-1
 269 -38 l 1,68,-1
 169 -38 l 1,69,-1
 245 9 l 1,70,-1
 276 9 l 1,71,-1
 281 42 l 1,72,-1
 119 42 l 1,62,-1
EndSplineSet
EndChar

StartChar: A
Encoding: 65 65 2
Width: 668
GlyphClass: 2
Flags: W
AnchorPoint: "Anchor-6" 297 730 basechar 0
AnchorPoint: "Anchor-5" 629 0 basechar 0
AnchorPoint: "Anchor-4" 297 0 basechar 0
LayerCount: 2
Fore
SplineSet
464 0 m 1,0,-1
 443 167 l 1,1,-1
 189 167 l 1,2,-1
 115 0 l 1,3,-1
 -36 0 l 1,4,-1
 312 730 l 1,5,-1
 498 730 l 1,6,-1
 615 0 l 1,7,-1
 464 0 l 1,0,-1
243 289 m 1,8,-1
 427 289 l 1,9,-1
 387 611 l 1,10,-1
 385 611 l 1,11,-1
 243 289 l 1,8,-1
EndSplineSet
Substitution2: "Single Substitution lookup 21 subtable" ordfeminine
Substitution2: "'aalt' Access All Alternates in Latin lookup 0 subtable" ordfeminine
EndChar

StartChar: uni1EAE
Encoding: 7854 7854 5
Width: 668
GlyphClass: 2
Flags: W
AnchorPoint: "Anchor-6" 297 730 basechar 0
AnchorPoint: "Anchor-5" 629 0 basechar 0
AnchorPoint: "Anchor-4" 297 0 basechar 0
LayerCount: 2
Fore
SplineSet
306.5 799 m 128,-1,1
 262 823 262 823 241 865.5 c 128,-1,2
 220 908 220 908 226 962 c 1,3,-1
 344 962 l 1,4,-1
 452 1160 l 1,5,-1
 618 1160 l 1,6,-1
 464 950 l 1,7,-1
 358 950 l 1,8,9
 360 876 360 876 428 876 c 0,10,11
 501 876 501 876 525 962 c 1,12,-1
 657 962 l 1,13,14
 646 908 646 908 612 865.5 c 128,-1,15
 578 823 578 823 525.5 799 c 128,-1,16
 473 775 473 775 412 775 c 256,17,0
 351 775 351 775 306.5 799 c 128,-1,1
464 0 m 1,18,-1
 443 167 l 1,19,-1
 189 167 l 1,20,-1
 115 0 l 1,21,-1
 -36 0 l 1,22,-1
 312 730 l 1,23,-1
 498 730 l 1,24,-1
 615 0 l 1,25,-1
 464 0 l 1,18,-1
243 289 m 1,26,-1
 427 289 l 1,27,-1
 387 611 l 1,28,-1
 385 611 l 1,29,-1
 243 289 l 1,26,-1
EndSplineSet
EndChar

StartChar: uni1EB0
Encoding: 7856 7856 7
Width: 668
GlyphClass: 2
Flags: W
AnchorPoint: "Anchor-6" 297 730 basechar 0
AnchorPoint: "Anchor-5" 629 0 basechar 0
AnchorPoint: "Anchor-4" 297 0 basechar 0
LayerCount: 2
Fore
SplineSet
485.5 894.5 m 128,-1,1
 509 913 509 913 521 950 c 1,2,-1
 415 950 l 1,3,-1
 328 1160 l 1,4,-1
 495 1160 l 1,5,-1
 540 962 l 1,6,-1
 657 962 l 1,7,8
 646 908 646 908 612 865.5 c 128,-1,9
 578 823 578 823 525.5 799 c 128,-1,10
 473 775 473 775 412 775 c 256,11,12
 351 775 351 775 306.5 799 c 128,-1,13
 262 823 262 823 241 865.5 c 128,-1,14
 220 908 220 908 226 962 c 1,15,-1
 358 962 l 1,16,17
 355 876 355 876 428 876 c 0,18,0
 462 876 462 876 485.5 894.5 c 128,-1,1
464 0 m 1,19,-1
 443 167 l 1,20,-1
 189 167 l 1,21,-1
 115 0 l 1,22,-1
 -36 0 l 1,23,-1
 312 730 l 1,24,-1
 498 730 l 1,25,-1
 615 0 l 1,26,-1
 464 0 l 1,19,-1
243 289 m 1,27,-1
 427 289 l 1,28,-1
 387 611 l 1,29,-1
 385 611 l 1,30,-1
 243 289 l 1,27,-1
EndSplineSet
EndChar

StartChar: uni1EB2
Encoding: 7858 7858 8
Width: 668
GlyphClass: 2
Flags: W
AnchorPoint: "Anchor-6" 297 1152 basechar 0
AnchorPoint: "Anchor-5" 629 0 basechar 0
AnchorPoint: "Anchor-4" 297 0 basechar 0
LayerCount: 2
Fore
SplineSet
522 952 m 1,1,-1
 463 952 l 1,2,3
 481 992 481 992 485 1016 c 0,4,5
 488 1037 488 1037 476.5 1044 c 128,-1,6
 465 1051 465 1051 430 1051 c 0,7,8
 363 1051 363 1051 296 1031 c 1,9,-1
 301 1134 l 1,10,11
 380 1152 380 1152 472 1152 c 0,12,13
 539 1152 539 1152 573 1144.5 c 128,-1,14
 607 1137 607 1137 619 1118.5 c 128,-1,15
 631 1100 631 1100 626 1065 c 0,16,17
 622 1042 622 1042 612.5 1014 c 128,-1,18
 603 986 603 986 592 962 c 1,19,-1
 657 962 l 1,20,21
 646 908 646 908 612 865.5 c 128,-1,22
 578 823 578 823 525.5 799 c 128,-1,23
 473 775 473 775 412 775 c 256,24,25
 351 775 351 775 306.5 799 c 128,-1,26
 262 823 262 823 241 865.5 c 128,-1,27
 220 908 220 908 226 962 c 1,28,-1
 358 962 l 1,29,30
 355 876 355 876 428 876 c 0,31,0
 496 876 496 876 522 952 c 1,1,-1
464 0 m 1,32,-1
 443 167 l 1,33,-1
 189 167 l 1,34,-1
 115 0 l 1,35,-1
 -36 0 l 1,36,-1
 312 730 l 1,37,-1
 498 730 l 1,38,-1
 615 0 l 1,39,-1
 464 0 l 1,32,-1
243 289 m 1,40,-1
 427 289 l 1,41,-1
 387 611 l 1,42,-1
 385 611 l 1,43,-1
 243 289 l 1,40,-1
EndSplineSet
EndChar

StartChar: uni1EA4
Encoding: 7844 7844 11
Width: 669
GlyphClass: 2
Flags: W
AnchorPoint: "Anchor-6" 297 730 basechar 0
AnchorPoint: "Anchor-5" 629 0 basechar 0
AnchorPoint: "Anchor-4" 297 0 basechar 0
LayerCount: 2
Fore
SplineSet
435 923 m 1,0,-1
 332 770 l 1,1,-1
 179 770 l 1,2,-1
 332 980 l 1,3,-1
 548 980 l 1,4,-1
 646 1160 l 1,5,-1
 812 1160 l 1,6,-1
 658 950 l 1,7,-1
 569 950 l 1,8,-1
 644 770 l 1,9,-1
 491 770 l 1,10,-1
 437 923 l 1,11,-1
 435 923 l 1,0,-1
312 730 m 1,12,-1
 498 730 l 1,13,-1
 615 0 l 1,14,-1
 464 0 l 1,15,-1
 443 167 l 1,16,-1
 189 167 l 1,17,-1
 115 0 l 1,18,-1
 -36 0 l 1,19,-1
 312 730 l 1,12,-1
243 289 m 1,20,-1
 427 289 l 1,21,-1
 387 611 l 1,22,-1
 385 611 l 1,23,-1
 243 289 l 1,20,-1
EndSplineSet
EndChar

StartChar: uni1EA6
Encoding: 7846 7846 13
Width: 669
GlyphClass: 2
Flags: W
AnchorPoint: "Anchor-6" 297 730 basechar 0
AnchorPoint: "Anchor-5" 629 0 basechar 0
AnchorPoint: "Anchor-4" 297 0 basechar 0
LayerCount: 2
Fore
SplineSet
312 950 m 1,0,-1
 222 950 l 1,1,-1
 135 1160 l 1,2,-1
 302 1160 l 1,3,-1
 343 980 l 1,4,-1
 557 980 l 1,5,-1
 645 770 l 1,6,-1
 492 770 l 1,7,-1
 438 923 l 1,8,-1
 436 923 l 1,9,-1
 333 770 l 1,10,-1
 180 770 l 1,11,-1
 312 950 l 1,0,-1
465 0 m 1,12,-1
 444 167 l 1,13,-1
 189 167 l 1,14,-1
 116 0 l 1,15,-1
 -35 0 l 1,16,-1
 313 730 l 1,17,-1
 499 730 l 1,18,-1
 616 0 l 1,19,-1
 465 0 l 1,12,-1
244 289 m 1,20,-1
 428 289 l 1,21,-1
 388 611 l 1,22,-1
 386 611 l 1,23,-1
 244 289 l 1,20,-1
EndSplineSet
EndChar

StartChar: uni1EA8
Encoding: 7848 7848 14
Width: 668
GlyphClass: 2
Flags: W
AnchorPoint: "Anchor-6" 368 1148 basechar 0
AnchorPoint: "Anchor-5" 629 0 basechar 0
AnchorPoint: "Anchor-4" 297 0 basechar 0
LayerCount: 2
Fore
SplineSet
332 770 m 1,0,-1
 179 770 l 1,1,-1
 332 980 l 1,2,-1
 545 980 l 1,3,4
 553 1004 553 1004 554 1012 c 0,5,6
 557 1033 557 1033 545.5 1040 c 128,-1,7
 534 1047 534 1047 499 1047 c 0,8,9
 432 1047 432 1047 365 1027 c 1,10,-1
 369 1130 l 1,11,12
 448 1148 448 1148 541 1148 c 0,13,14
 608 1148 608 1148 642 1140.5 c 128,-1,15
 676 1133 676 1133 688 1114.5 c 128,-1,16
 700 1096 700 1096 695 1061 c 0,17,18
 691 1036 691 1036 680 1004.5 c 128,-1,19
 669 973 669 973 655 948 c 1,20,-1
 570 948 l 1,21,-1
 644 770 l 1,22,-1
 491 770 l 1,23,-1
 437 923 l 1,24,-1
 435 923 l 1,25,-1
 332 770 l 1,0,-1
464 0 m 1,26,-1
 443 167 l 1,27,-1
 189 167 l 1,28,-1
 115 0 l 1,29,-1
 -36 0 l 1,30,-1
 312 730 l 1,31,-1
 498 730 l 1,32,-1
 615 0 l 1,33,-1
 464 0 l 1,26,-1
243 289 m 1,34,-1
 427 289 l 1,35,-1
 387 611 l 1,36,-1
 385 611 l 1,37,-1
 243 289 l 1,34,-1
EndSplineSet
EndChar

StartChar: Aogonek
Encoding: 260 260 23
Width: 675
GlyphClass: 2
Flags: W
AnchorPoint: "Anchor-6" 297 730 basechar 0
AnchorPoint: "Anchor-5" 629 0 basechar 0
AnchorPoint: "Anchor-4" 297 0 basechar 0
LayerCount: 2
Fore
SplineSet
672 -197 m 1,0,1
 618 -218 618 -218 553 -218 c 0,2,3
 469 -218 469 -218 428 -187.5 c 128,-1,4
 387 -157 387 -157 396 -102 c 0,5,6
 405 -46 405 -46 463 5 c 1,7,-1
 443 167 l 1,8,-1
 189 167 l 1,9,-1
 115 0 l 1,10,-1
 -36 0 l 1,11,-1
 312 730 l 1,12,-1
 498 730 l 1,13,-1
 615 0 l 1,14,15
 529 -44 529 -44 523 -81 c 0,16,17
 520 -98 520 -98 534.5 -106.5 c 128,-1,18
 549 -115 549 -115 579 -115 c 0,19,20
 624 -115 624 -115 672 -96 c 1,21,-1
 672 -197 l 1,0,1
243 289 m 1,22,-1
 427 289 l 1,23,-1
 387 611 l 1,24,-1
 385 611 l 1,25,-1
 243 289 l 1,22,-1
EndSplineSet
EndChar

StartChar: Aring
Encoding: 197 197 24
Width: 668
GlyphClass: 2
Flags: W
AnchorPoint: "Anchor-6" 298 912 basechar 0
AnchorPoint: "Anchor-5" 629 0 basechar 0
AnchorPoint: "Anchor-4" 297 0 basechar 0
LayerCount: 2
Fore
SplineSet
443 167 m 1,0,-1
 189 167 l 1,1,-1
 115 0 l 1,2,-1
 -36 0 l 1,3,-1
 306 719 l 1,4,5
 284 741 284 741 274.5 772.5 c 128,-1,6
 265 804 265 804 271 840 c 0,7,8
 278 883 278 883 304 919 c 128,-1,9
 330 955 330 955 368.5 976 c 128,-1,10
 407 997 407 997 448 997 c 0,11,12
 490 997 490 997 522 976 c 128,-1,13
 554 955 554 955 569 919 c 128,-1,14
 584 883 584 883 577 840 c 0,15,16
 571 803 571 803 551 771 c 128,-1,17
 531 739 531 739 500 717 c 1,18,-1
 615 0 l 1,19,-1
 464 0 l 1,20,-1
 443 167 l 1,0,-1
385.5 886 m 128,-1,22
 364 867 364 867 360 840 c 256,23,24
 356 813 356 813 371.5 794 c 128,-1,25
 387 775 387 775 413 775 c 0,26,27
 440 775 440 775 461.5 794 c 128,-1,28
 483 813 483 813 487 840 c 256,29,30
 491 867 491 867 476 886 c 128,-1,31
 461 905 461 905 434 905 c 256,32,21
 407 905 407 905 385.5 886 c 128,-1,22
243 289 m 1,33,-1
 427 289 l 1,34,-1
 387 611 l 1,35,-1
 385 611 l 1,36,-1
 243 289 l 1,33,-1
EndSplineSet
EndChar

StartChar: Aringacute
Encoding: 506 506 25
Width: 668
GlyphClass: 2
Flags: W
AnchorPoint: "Anchor-6" 298 912 basechar 0
AnchorPoint: "Anchor-5" 629 0 basechar 0
AnchorPoint: "Anchor-4" 297 0 basechar 0
LayerCount: 2
Fore
SplineSet
443 167 m 1,0,-1
 189 167 l 1,1,-1
 115 0 l 1,2,-1
 -36 0 l 1,3,-1
 306 719 l 1,4,5
 284 741 284 741 274.5 772.5 c 128,-1,6
 265 804 265 804 271 840 c 0,7,8
 277 875 277 875 295.5 906 c 128,-1,9
 314 937 314 937 342 958 c 1,10,-1
 453 1162 l 1,11,-1
 620 1162 l 1,12,-1
 493 990 l 1,13,14
 539 975 539 975 562.5 934 c 128,-1,15
 586 893 586 893 577 840 c 0,16,17
 571 803 571 803 551 771 c 128,-1,18
 531 739 531 739 500 717 c 1,19,-1
 615 0 l 1,20,-1
 464 0 l 1,21,-1
 443 167 l 1,0,-1
462 794 m 128,-1,23
 483 813 483 813 487 840 c 256,24,25
 491 867 491 867 476 886 c 128,-1,26
 461 905 461 905 434 905 c 0,27,28
 408 905 408 905 386 886 c 128,-1,29
 364 867 364 867 360 840 c 256,30,31
 356 813 356 813 371.5 794 c 128,-1,32
 387 775 387 775 413 775 c 0,33,22
 441 775 441 775 462 794 c 128,-1,23
243 289 m 1,34,-1
 427 289 l 1,35,-1
 387 611 l 1,36,-1
 385 611 l 1,37,-1
 243 289 l 1,34,-1
EndSplineSet
EndChar

StartChar: AE
Encoding: 198 198 27
Width: 853
GlyphClass: 2
Flags: W
AnchorPoint: "Anchor-6" 422 730 basechar 0
AnchorPoint: "Anchor-4" 422 0 basechar 0
LayerCount: 2
Fore
SplineSet
850 611 m 1,0,-1
 588 611 l 1,1,-1
 561 438 l 1,2,-1
 803 438 l 1,3,-1
 785 323 l 1,4,-1
 542 323 l 1,5,-1
 510 119 l 1,6,-1
 772 119 l 1,7,-1
 753 0 l 1,8,-1
 354 0 l 1,9,-1
 381 167 l 1,10,-1
 199 167 l 1,11,-1
 115 0 l 1,12,-1
 -36 0 l 1,13,-1
 355 730 l 1,14,-1
 869 730 l 1,15,-1
 850 611 l 1,0,-1
261 289 m 1,16,-1
 400 289 l 1,17,-1
 452 617 l 1,18,-1
 426 617 l 1,19,-1
 261 289 l 1,16,-1
EndSplineSet
EndChar

StartChar: B
Encoding: 66 66 29
Width: 636
Flags: W
LayerCount: 2
Fore
SplineSet
569.5 328.5 m 128,-1,1
 604 283 604 283 592 207 c 0,2,3
 559 0 559 0 252 0 c 2,4,-1
 23 0 l 1,5,-1
 139 730 l 1,6,-1
 361 730 l 2,7,8
 648 730 648 730 620 552 c 0,9,10
 610 486 610 486 567 443.5 c 128,-1,11
 524 401 524 401 456 388 c 1,12,-1
 456 386 l 1,13,0
 535 374 535 374 569.5 328.5 c 128,-1,1
258 613 m 1,14,-1
 230 437 l 1,15,-1
 321 437 l 2,16,17
 396 437 396 437 434 458.5 c 128,-1,18
 472 480 472 480 479 527 c 0,19,20
 486 573 486 573 456 593 c 128,-1,21
 426 613 426 613 349 613 c 2,22,-1
 258 613 l 1,14,-1
401 142 m 128,-1,24
 446 167 446 167 454 220 c 256,25,26
 462 273 462 273 425.5 298 c 128,-1,27
 389 323 389 323 303 323 c 2,28,-1
 212 323 l 1,29,-1
 179 117 l 1,30,-1
 270 117 l 2,31,23
 356 117 356 117 401 142 c 128,-1,24
EndSplineSet
EndChar

StartChar: C
Encoding: 67 67 30
Width: 673
GlyphClass: 2
Flags: W
AnchorPoint: "Anchor-6" 335 730 basechar 0
AnchorPoint: "Anchor-4" 335 0 basechar 0
LayerCount: 2
Fore
SplineSet
159.5 34.5 m 128,-1,1
 86 79 86 79 57 163.5 c 128,-1,2
 28 248 28 248 46 365 c 256,3,4
 65 482 65 482 121 566.5 c 128,-1,5
 177 651 177 651 264.5 695.5 c 128,-1,6
 352 740 352 740 465 740 c 0,7,8
 602 740 602 740 694 674 c 1,9,-1
 620 563 l 1,10,11
 541 617 541 617 451 617 c 0,12,13
 346 617 346 617 276 550.5 c 128,-1,14
 206 484 206 484 188 365 c 256,15,16
 169 246 169 246 217.5 179.5 c 128,-1,17
 266 113 266 113 371 113 c 0,18,19
 461 113 461 113 557 167 c 1,20,-1
 596 56 l 1,21,22
 483 -10 483 -10 346 -10 c 0,23,0
 233 -10 233 -10 159.5 34.5 c 128,-1,1
EndSplineSet
EndChar

StartChar: Ccedilla
Encoding: 199 199 33
Width: 673
GlyphClass: 2
Flags: W
AnchorPoint: "Anchor-6" 335 730 basechar 0
AnchorPoint: "Anchor-4" 335 0 basechar 0
LayerCount: 2
Fore
SplineSet
596 56 m 1,0,1
 518 11 518 11 427 -4 c 1,2,3
 463 -51 463 -51 455 -102 c 0,4,5
 446 -157 446 -157 395.5 -187.5 c 128,-1,6
 345 -218 345 -218 261 -218 c 0,7,8
 197 -218 197 -218 148 -197 c 1,9,-1
 180 -96 l 1,10,11
 220 -115 220 -115 267 -115 c 0,12,13
 296 -115 296 -115 313.5 -106 c 128,-1,14
 331 -97 331 -97 334 -81 c 0,15,16
 340 -45 340 -45 275 -5 c 1,17,18
 141 15 141 15 81.5 111.5 c 128,-1,19
 22 208 22 208 46 365 c 0,20,21
 65 482 65 482 121 566.5 c 128,-1,22
 177 651 177 651 264.5 695.5 c 128,-1,23
 352 740 352 740 465 740 c 0,24,25
 602 740 602 740 694 674 c 1,26,-1
 620 563 l 1,27,28
 541 617 541 617 451 617 c 0,29,30
 346 617 346 617 276 550.5 c 128,-1,31
 206 484 206 484 188 365 c 256,32,33
 169 246 169 246 217.5 179.5 c 128,-1,34
 266 113 266 113 371 113 c 0,35,36
 461 113 461 113 557 167 c 1,37,-1
 596 56 l 1,0,1
EndSplineSet
EndChar

StartChar: D
Encoding: 68 68 36
Width: 667
GlyphClass: 2
Flags: W
AnchorPoint: "Anchor-6" 300 730 basechar 0
AnchorPoint: "Anchor-4" 300 0 basechar 0
LayerCount: 2
Fore
SplineSet
342 730 m 2,0,1
 528 730 528 730 602 641.5 c 128,-1,2
 676 553 676 553 647 365 c 256,3,4
 617 177 617 177 514.5 88.5 c 128,-1,5
 412 0 412 0 226 0 c 2,6,-1
 23 0 l 1,7,-1
 139 730 l 1,8,-1
 342 730 l 2,0,1
381.5 144.5 m 128,-1,10
 432 169 432 169 462 222 c 128,-1,11
 492 275 492 275 506 365 c 256,12,13
 520 455 520 455 507 508 c 128,-1,14
 494 561 494 561 451.5 585.5 c 128,-1,15
 409 610 409 610 332 610 c 2,16,-1
 257 610 l 1,17,-1
 179 120 l 1,18,-1
 254 120 l 2,19,9
 331 120 331 120 381.5 144.5 c 128,-1,10
EndSplineSet
EndChar

StartChar: Eth
Encoding: 208 208 38
Width: 726
GlyphClass: 2
Flags: W
CounterMasks: 1 e0
AnchorPoint: "Anchor-6" 357 730 basechar 0
AnchorPoint: "Anchor-4" 357 0 basechar 0
LayerCount: 2
Fore
SplineSet
661 641.5 m 128,-1,1
 735 553 735 553 705 365 c 256,2,3
 675 177 675 177 573.5 88.5 c 128,-1,4
 472 0 472 0 284 0 c 2,5,-1
 83 0 l 1,6,-1
 132 312 l 1,7,-1
 27 312 l 1,8,-1
 44 418 l 1,9,-1
 149 418 l 1,10,-1
 198 730 l 1,11,-1
 400 730 l 2,12,0
 587 730 587 730 661 641.5 c 128,-1,1
441.5 144.5 m 128,-1,14
 492 169 492 169 521.5 222 c 128,-1,15
 551 275 551 275 565 365 c 256,16,17
 579 455 579 455 566.5 508 c 128,-1,18
 554 561 554 561 511 585.5 c 128,-1,19
 468 610 468 610 390 610 c 2,20,-1
 316 610 l 1,21,-1
 286 418 l 1,22,-1
 456 418 l 1,23,-1
 439 312 l 1,24,-1
 269 312 l 1,25,-1
 239 120 l 1,26,-1
 312 120 l 2,27,13
 391 120 391 120 441.5 144.5 c 128,-1,14
EndSplineSet
EndChar

StartChar: E
Encoding: 69 69 42
Width: 581
GlyphClass: 2
Flags: W
AnchorPoint: "Anchor-6" 265 730 basechar 0
AnchorPoint: "Anchor-5" 497 0 basechar 0
AnchorPoint: "Anchor-4" 265 0 basechar 0
LayerCount: 2
Fore
SplineSet
139 730 m 1,0,-1
 597 730 l 1,1,-1
 578 611 l 1,2,-1
 257 611 l 1,3,-1
 230 438 l 1,4,-1
 531 438 l 1,5,-1
 512 323 l 1,6,-1
 212 323 l 1,7,-1
 179 119 l 1,8,-1
 500 119 l 1,9,-1
 481 0 l 1,10,-1
 23 0 l 1,11,-1
 139 730 l 1,0,-1
EndSplineSet
EndChar

StartChar: uni1EBE
Encoding: 7870 7870 47
Width: 589
GlyphClass: 2
Flags: W
AnchorPoint: "Anchor-6" 265 730 basechar 0
AnchorPoint: "Anchor-5" 497 0 basechar 0
AnchorPoint: "Anchor-4" 265 0 basechar 0
LayerCount: 2
Fore
SplineSet
623 950 m 1,0,-1
 534 950 l 1,1,-1
 608 770 l 1,2,-1
 455 770 l 1,3,-1
 401 923 l 1,4,-1
 399 923 l 1,5,-1
 296 770 l 1,6,-1
 143 770 l 1,7,-1
 296 980 l 1,8,-1
 512 980 l 1,9,-1
 610 1160 l 1,10,-1
 776 1160 l 1,11,-1
 623 950 l 1,0,-1
23 0 m 1,12,-1
 139 730 l 1,13,-1
 597 730 l 1,14,-1
 578 611 l 1,15,-1
 257 611 l 1,16,-1
 230 438 l 1,17,-1
 531 438 l 1,18,-1
 513 323 l 1,19,-1
 212 323 l 1,20,-1
 179 119 l 1,21,-1
 500 119 l 1,22,-1
 481 0 l 1,23,-1
 23 0 l 1,12,-1
EndSplineSet
EndChar

StartChar: uni1EC0
Encoding: 7872 7872 49
Width: 589
GlyphClass: 2
Flags: W
AnchorPoint: "Anchor-6" 265 730 basechar 0
AnchorPoint: "Anchor-5" 497 0 basechar 0
AnchorPoint: "Anchor-4" 265 0 basechar 0
LayerCount: 2
Fore
SplineSet
304 770 m 1,0,-1
 151 770 l 1,1,-1
 282 950 l 1,2,-1
 193 950 l 1,3,-1
 106 1160 l 1,4,-1
 273 1160 l 1,5,-1
 314 980 l 1,6,-1
 528 980 l 1,7,-1
 616 770 l 1,8,-1
 463 770 l 1,9,-1
 408 923 l 1,10,-1
 407 923 l 1,11,-1
 304 770 l 1,0,-1
31 0 m 1,12,-1
 147 730 l 1,13,-1
 604 730 l 1,14,-1
 585 611 l 1,15,-1
 265 611 l 1,16,-1
 238 438 l 1,17,-1
 538 438 l 1,18,-1
 520 323 l 1,19,-1
 219 323 l 1,20,-1
 187 119 l 1,21,-1
 508 119 l 1,22,-1
 489 0 l 1,23,-1
 31 0 l 1,12,-1
EndSplineSet
EndChar

StartChar: uni1EC2
Encoding: 7874 7874 50
Width: 582
GlyphClass: 2
Flags: W
AnchorPoint: "Anchor-6" 336 1148 basechar 0
AnchorPoint: "Anchor-5" 497 0 basechar 0
AnchorPoint: "Anchor-4" 265 0 basechar 0
LayerCount: 2
Fore
SplineSet
534 948 m 1,0,-1
 608 770 l 1,1,-1
 455 770 l 1,2,-1
 401 923 l 1,3,-1
 399 923 l 1,4,-1
 296 770 l 1,5,-1
 143 770 l 1,6,-1
 296 980 l 1,7,-1
 509 980 l 1,8,9
 517 1004 517 1004 518 1012 c 0,10,11
 521 1033 521 1033 509.5 1040 c 128,-1,12
 498 1047 498 1047 464 1047 c 0,13,14
 397 1047 397 1047 329 1027 c 1,15,-1
 334 1130 l 1,16,17
 413 1148 413 1148 505 1148 c 0,18,19
 572 1148 572 1148 606 1140.5 c 128,-1,20
 640 1133 640 1133 652 1114.5 c 128,-1,21
 664 1096 664 1096 659 1061 c 0,22,23
 655 1036 655 1036 644 1004.5 c 128,-1,24
 633 973 633 973 619 948 c 1,25,-1
 534 948 l 1,0,-1
23 0 m 1,26,-1
 139 730 l 1,27,-1
 597 730 l 1,28,-1
 578 611 l 1,29,-1
 257 611 l 1,30,-1
 230 438 l 1,31,-1
 531 438 l 1,32,-1
 513 323 l 1,33,-1
 212 323 l 1,34,-1
 179 119 l 1,35,-1
 500 119 l 1,36,-1
 481 0 l 1,37,-1
 23 0 l 1,26,-1
EndSplineSet
EndChar

StartChar: Eogonek
Encoding: 280 280 60
Width: 587
GlyphClass: 2
Flags: W
AnchorPoint: "Anchor-6" 265 730 basechar 0
AnchorPoint: "Anchor-5" 497 0 basechar 0
AnchorPoint: "Anchor-4" 265 0 basechar 0
LayerCount: 2
Fore
SplineSet
538 -197 m 1,0,1
 484 -218 484 -218 419 -218 c 0,2,3
 335 -218 335 -218 294 -187.5 c 128,-1,4
 253 -157 253 -157 262 -102 c 0,5,6
 270 -49 270 -49 323 0 c 1,7,-1
 23 0 l 1,8,-1
 139 730 l 1,9,-1
 597 730 l 1,10,-1
 578 611 l 1,11,-1
 257 611 l 1,12,-1
 230 438 l 1,13,-1
 531 438 l 1,14,-1
 512 323 l 1,15,-1
 212 323 l 1,16,-1
 179 119 l 1,17,-1
 500 119 l 1,18,-1
 481 0 l 1,19,20
 395 -44 395 -44 389 -81 c 0,21,22
 386 -98 386 -98 400.5 -106.5 c 128,-1,23
 415 -115 415 -115 445 -115 c 0,24,25
 490 -115 490 -115 538 -96 c 1,26,-1
 538 -197 l 1,0,1
EndSplineSet
EndChar

StartChar: F
Encoding: 70 70 62
Width: 572
Flags: W
LayerCount: 2
Fore
SplineSet
139 730 m 1,0,-1
 597 730 l 1,1,-1
 577 608 l 1,2,-1
 257 608 l 1,3,-1
 227 420 l 1,4,-1
 528 420 l 1,5,-1
 509 301 l 1,6,-1
 208 301 l 1,7,-1
 160 0 l 1,8,-1
 23 0 l 1,9,-1
 139 730 l 1,0,-1
EndSplineSet
EndChar

StartChar: G
Encoding: 71 71 63
Width: 748
GlyphClass: 2
Flags: W
AnchorPoint: "Anchor-6" 358 730 basechar 0
AnchorPoint: "Anchor-4" 358 0 basechar 0
LayerCount: 2
Fore
SplineSet
714 435 m 1,0,-1
 653 48 l 1,1,2
 595 20 595 20 522 5 c 128,-1,3
 449 -10 449 -10 374 -10 c 0,4,5
 253 -10 253 -10 173 34.5 c 128,-1,6
 93 79 93 79 60.5 163.5 c 128,-1,7
 28 248 28 248 46 365 c 256,8,9
 65 482 65 482 124.5 566.5 c 128,-1,10
 184 651 184 651 278 695.5 c 128,-1,11
 372 740 372 740 493 740 c 0,12,13
 639 740 639 740 728 676 c 1,14,-1
 657 569 l 1,15,16
 576 620 576 620 474 620 c 0,17,18
 354 620 354 620 280.5 554.5 c 128,-1,19
 207 489 207 489 188 365 c 256,20,21
 168 241 168 241 221 175.5 c 128,-1,22
 274 110 274 110 393 110 c 0,23,24
 464 110 464 110 529 132 c 1,25,-1
 558 317 l 1,26,-1
 361 317 l 1,27,-1
 380 435 l 1,28,-1
 714 435 l 1,0,-1
EndSplineSet
EndChar

StartChar: H
Encoding: 72 72 69
Width: 695
GlyphClass: 2
Flags: W
AnchorPoint: "Anchor-6" 315 730 basechar 0
AnchorPoint: "Anchor-4" 315 0 basechar 0
LayerCount: 2
Fore
SplineSet
560 730 m 1,0,-1
 697 730 l 1,1,-1
 582 0 l 1,2,-1
 445 0 l 1,3,-1
 496 322 l 1,4,-1
 211 322 l 1,5,-1
 160 0 l 1,6,-1
 23 0 l 1,7,-1
 139 730 l 1,8,-1
 276 730 l 1,9,-1
 231 445 l 1,10,-1
 515 445 l 1,11,-1
 560 730 l 1,0,-1
EndSplineSet
EndChar

StartChar: Hbar
Encoding: 294 294 70
Width: 785
GlyphClass: 2
Flags: W
AnchorPoint: "Anchor-6" 357 730 basechar 0
AnchorPoint: "Anchor-4" 357 0 basechar 0
LayerCount: 2
Fore
SplineSet
819 649 m 1,0,-1
 803 543 l 1,1,-1
 712 543 l 1,2,-1
 626 0 l 1,3,-1
 489 0 l 1,4,-1
 540 322 l 1,5,-1
 256 322 l 1,6,-1
 205 0 l 1,7,-1
 68 0 l 1,8,-1
 154 543 l 1,9,-1
 65 543 l 1,10,-1
 81 649 l 1,11,-1
 171 649 l 1,12,-1
 183 730 l 1,13,-1
 321 730 l 1,14,-1
 308 649 l 1,15,-1
 592 649 l 1,16,-1
 605 730 l 1,17,-1
 742 730 l 1,18,-1
 729 649 l 1,19,-1
 819 649 l 1,0,-1
560 445 m 1,20,-1
 575 543 l 1,21,-1
 291 543 l 1,22,-1
 276 445 l 1,23,-1
 560 445 l 1,20,-1
EndSplineSet
EndChar

StartChar: I
Encoding: 73 73 72
Width: 293
GlyphClass: 2
Flags: W
AnchorPoint: "Anchor-6" 111 730 basechar 0
AnchorPoint: "Anchor-5" 184 0 basechar 0
AnchorPoint: "Anchor-4" 111 0 basechar 0
LayerCount: 2
Fore
SplineSet
146 730 m 1,0,-1
 289 730 l 1,1,-1
 174 0 l 1,2,-1
 31 0 l 1,3,-1
 146 730 l 1,0,-1
EndSplineSet
EndChar

StartChar: Iogonek
Encoding: 302 302 84
Width: 303
GlyphClass: 2
Flags: W
AnchorPoint: "Anchor-6" 111 730 basechar 0
AnchorPoint: "Anchor-5" 184 0 basechar 0
AnchorPoint: "Anchor-4" 111 0 basechar 0
LayerCount: 2
Fore
SplineSet
235 -197 m 1,0,1
 181 -218 181 -218 116 -218 c 0,2,3
 32 -218 32 -218 -9 -187.5 c 128,-1,4
 -50 -157 -50 -157 -41 -102 c 0,5,6
 -31 -41 -31 -41 37 14 c 1,7,-1
 150 730 l 1,8,-1
 294 730 l 1,9,-1
 178 0 l 1,10,11
 92 -44 92 -44 86 -81 c 0,12,13
 83 -98 83 -98 97.5 -106.5 c 128,-1,14
 112 -115 112 -115 142 -115 c 0,15,16
 187 -115 187 -115 235 -96 c 1,17,-1
 235 -197 l 1,0,1
EndSplineSet
EndChar

StartChar: J
Encoding: 74 74 86
Width: 556
GlyphClass: 2
Flags: W
AnchorPoint: "Anchor-6" 242 730 basechar 0
AnchorPoint: "Anchor-4" 242 0 basechar 0
LayerCount: 2
Fore
SplineSet
68 3.5 m 128,-1,1
 12 17 12 17 -33 43 c 1,2,-1
 26 162 l 1,3,4
 111 115 111 115 190 115 c 0,5,6
 260 115 260 115 300 155 c 128,-1,7
 340 195 340 195 354 280 c 2,8,-1
 425 730 l 1,9,-1
 565 730 l 1,10,-1
 494 280 l 2,11,12
 470 131 470 131 395 60.5 c 128,-1,13
 320 -10 320 -10 183 -10 c 0,14,0
 124 -10 124 -10 68 3.5 c 128,-1,1
EndSplineSet
EndChar

StartChar: K
Encoding: 75 75 88
Width: 653
GlyphClass: 2
Flags: W
AnchorPoint: "Anchor-6" 275 730 basechar 0
AnchorPoint: "Anchor-4" 275 0 basechar 0
LayerCount: 2
Fore
SplineSet
139 730 m 1,0,-1
 276 730 l 1,1,-1
 227 421 l 1,2,-1
 229 421 l 1,3,-1
 534 730 l 1,4,-1
 697 730 l 1,5,-1
 350 383 l 1,6,-1
 592 0 l 1,7,-1
 428 0 l 1,8,-1
 217 347 l 1,9,-1
 215 347 l 1,10,-1
 160 0 l 1,11,-1
 23 0 l 1,12,-1
 139 730 l 1,0,-1
EndSplineSet
EndChar

StartChar: L
Encoding: 76 76 90
Width: 568
GlyphClass: 2
Flags: W
AnchorPoint: "Anchor-7" 523 730 basechar 0
AnchorPoint: "Anchor-6" 249 730 basechar 0
AnchorPoint: "Anchor-4" 249 0 basechar 0
LayerCount: 2
Fore
SplineSet
139 730 m 1,0,-1
 280 730 l 1,1,-1
 184 123 l 1,2,-1
 513 123 l 1,3,-1
 494 0 l 1,4,-1
 23 0 l 1,5,-1
 139 730 l 1,0,-1
EndSplineSet
EndChar

StartChar: Lslash
Encoding: 321 321 97
Width: 663
GlyphClass: 2
Flags: W
AnchorPoint: "Anchor-7" 615 730 basechar 0
AnchorPoint: "Anchor-6" 341 730 basechar 0
AnchorPoint: "Anchor-4" 341 0 basechar 0
LayerCount: 2
Fore
SplineSet
279 123 m 1,0,-1
 608 123 l 1,1,-1
 589 0 l 1,2,-1
 118 0 l 1,3,-1
 162 276 l 1,4,-1
 41 228 l 1,5,-1
 14 328 l 1,6,-1
 180 393 l 1,7,-1
 234 730 l 1,8,-1
 375 730 l 1,9,-1
 331 453 l 1,10,-1
 456 502 l 1,11,-1
 483 402 l 1,12,-1
 312 335 l 1,13,-1
 279 123 l 1,0,-1
EndSplineSet
EndChar

StartChar: M
Encoding: 77 77 98
Width: 848
Flags: W
LayerCount: 2
Fore
SplineSet
139 730 m 1,0,-1
 311 730 l 1,1,-1
 426 302 l 1,2,-1
 428 302 l 1,3,-1
 679 730 l 1,4,-1
 851 730 l 1,5,-1
 736 0 l 1,6,-1
 599 0 l 1,7,-1
 679 510 l 1,8,-1
 677 510 l 1,9,-1
 467 155 l 1,10,-1
 341 155 l 1,11,-1
 243 510 l 1,12,-1
 241 510 l 1,13,-1
 160 0 l 1,14,-1
 23 0 l 1,15,-1
 139 730 l 1,0,-1
EndSplineSet
EndChar

StartChar: N
Encoding: 78 78 99
Width: 704
GlyphClass: 2
Flags: W
AnchorPoint: "Anchor-6" 320 730 basechar 0
AnchorPoint: "Anchor-4" 320 0 basechar 0
LayerCount: 2
Fore
SplineSet
139 730 m 1,0,-1
 283 730 l 1,1,-1
 489 230 l 1,2,-1
 491 230 l 1,3,-1
 570 730 l 1,4,-1
 707 730 l 1,5,-1
 592 0 l 1,6,-1
 448 0 l 1,7,-1
 242 500 l 1,8,-1
 240 500 l 1,9,-1
 160 0 l 1,10,-1
 23 0 l 1,11,-1
 139 730 l 1,0,-1
EndSplineSet
EndChar

StartChar: Eng
Encoding: 330 330 104
Width: 704
GlyphClass: 2
Flags: W
AnchorPoint: "Anchor-6" 320 730 basechar 0
AnchorPoint: "Anchor-4" 320 0 basechar 0
LayerCount: 2
Fore
SplineSet
707 730 m 1,0,-1
 589 -14 l 2,1,2
 571 -127 571 -127 521 -175.5 c 128,-1,3
 471 -224 471 -224 372 -224 c 0,4,5
 315 -224 315 -224 252 -208 c 1,6,-1
 287 -96 l 1,7,8
 325 -107 325 -107 362 -107 c 0,9,10
 404 -107 404 -107 424.5 -86 c 128,-1,11
 445 -65 445 -65 453 -14 c 2,12,-1
 453 -13 l 1,13,-1
 240 487 l 1,14,-1
 238 487 l 1,15,-1
 160 0 l 1,16,-1
 23 0 l 1,17,-1
 139 730 l 1,18,-1
 283 730 l 1,19,-1
 491 243 l 1,20,-1
 493 243 l 1,21,-1
 570 730 l 1,22,-1
 707 730 l 1,0,-1
EndSplineSet
EndChar

StartChar: O
Encoding: 79 79 107
Width: 787
GlyphClass: 2
Flags: W
AnchorPoint: "Anchor-7" 552 690 basechar 0
AnchorPoint: "Anchor-6" 359 730 basechar 0
AnchorPoint: "Anchor-5" 424 0 basechar 0
AnchorPoint: "Anchor-4" 359 0 basechar 0
LayerCount: 2
Fore
SplineSet
162.5 35.5 m 128,-1,1
 89 81 89 81 58.5 165.5 c 128,-1,2
 28 250 28 250 46 365 c 256,3,4
 64 480 64 480 121.5 564.5 c 128,-1,5
 179 649 179 649 267 694.5 c 128,-1,6
 355 740 355 740 466 740 c 256,7,8
 577 740 577 740 651 694.5 c 128,-1,9
 725 649 725 649 754.5 564.5 c 128,-1,10
 784 480 784 480 766 365 c 256,11,12
 748 250 748 250 691.5 165.5 c 128,-1,13
 635 81 635 81 546 35.5 c 128,-1,14
 457 -10 457 -10 347 -10 c 256,15,0
 236 -10 236 -10 162.5 35.5 c 128,-1,1
539 179 m 128,-1,17
 607 245 607 245 626 365 c 256,18,19
 645 485 645 485 598 551 c 128,-1,20
 551 617 551 617 446 617 c 0,21,22
 342 617 342 617 274.5 551 c 128,-1,23
 207 485 207 485 188 365 c 256,24,25
 169 245 169 245 215.5 179 c 128,-1,26
 262 113 262 113 366 113 c 0,27,16
 471 113 471 113 539 179 c 128,-1,17
EndSplineSet
Substitution2: "Single Substitution lookup 21 subtable" ordmasculine
Substitution2: "'aalt' Access All Alternates in Latin lookup 0 subtable" ordmasculine
EndChar

StartChar: uni1ED0
Encoding: 7888 7888 111
Width: 787
GlyphClass: 2
Flags: W
AnchorPoint: "Anchor-7" 552 690 basechar 0
AnchorPoint: "Anchor-6" 359 730 basechar 0
AnchorPoint: "Anchor-5" 424 0 basechar 0
AnchorPoint: "Anchor-4" 359 0 basechar 0
LayerCount: 2
Fore
SplineSet
494 923 m 1,0,-1
 391 770 l 1,1,-1
 238 770 l 1,2,-1
 391 980 l 1,3,-1
 606 980 l 1,4,-1
 705 1160 l 1,5,-1
 871 1160 l 1,6,-1
 717 950 l 1,7,-1
 628 950 l 1,8,-1
 703 770 l 1,9,-1
 550 770 l 1,10,-1
 495 923 l 1,11,-1
 494 923 l 1,0,-1
650.5 694.5 m 128,-1,13
 725 649 725 649 754.5 564.5 c 128,-1,14
 784 480 784 480 766 365 c 256,15,16
 748 250 748 250 691.5 165.5 c 128,-1,17
 635 81 635 81 546 35.5 c 128,-1,18
 457 -10 457 -10 347 -10 c 256,19,20
 236 -10 236 -10 162.5 35.5 c 128,-1,21
 89 81 89 81 58.5 165.5 c 128,-1,22
 28 250 28 250 46 365 c 256,23,24
 64 480 64 480 121.5 564.5 c 128,-1,25
 179 649 179 649 267 694.5 c 128,-1,26
 355 740 355 740 466 740 c 256,27,12
 576 740 576 740 650.5 694.5 c 128,-1,13
539 179 m 128,-1,29
 607 245 607 245 626 365 c 256,30,31
 645 485 645 485 598 551 c 128,-1,32
 551 617 551 617 446 617 c 0,33,34
 342 617 342 617 274.5 551 c 128,-1,35
 207 485 207 485 188 365 c 256,36,37
 169 245 169 245 215.5 179 c 128,-1,38
 262 113 262 113 366 113 c 0,39,28
 471 113 471 113 539 179 c 128,-1,29
EndSplineSet
EndChar

StartChar: uni1ED2
Encoding: 7890 7890 113
Width: 787
GlyphClass: 2
Flags: W
AnchorPoint: "Anchor-7" 552 690 basechar 0
AnchorPoint: "Anchor-6" 359 730 basechar 0
AnchorPoint: "Anchor-5" 424 0 basechar 0
AnchorPoint: "Anchor-4" 359 0 basechar 0
LayerCount: 2
Fore
SplineSet
369 950 m 1,0,-1
 281 950 l 1,1,-1
 194 1160 l 1,2,-1
 361 1160 l 1,3,-1
 402 980 l 1,4,-1
 615 980 l 1,5,-1
 703 770 l 1,6,-1
 550 770 l 1,7,-1
 495 923 l 1,8,-1
 494 923 l 1,9,-1
 391 770 l 1,10,-1
 238 770 l 1,11,-1
 369 950 l 1,0,-1
650.5 694.5 m 128,-1,13
 725 649 725 649 754.5 564.5 c 128,-1,14
 784 480 784 480 766 365 c 256,15,16
 748 250 748 250 691.5 165.5 c 128,-1,17
 635 81 635 81 546 35.5 c 128,-1,18
 457 -10 457 -10 347 -10 c 256,19,20
 236 -10 236 -10 162.5 35.5 c 128,-1,21
 89 81 89 81 58.5 165.5 c 128,-1,22
 28 250 28 250 46 365 c 256,23,24
 64 480 64 480 121.5 564.5 c 128,-1,25
 179 649 179 649 267 694.5 c 128,-1,26
 355 740 355 740 466 740 c 256,27,12
 576 740 576 740 650.5 694.5 c 128,-1,13
539 179 m 128,-1,29
 607 245 607 245 626 365 c 256,30,31
 645 485 645 485 598 551 c 128,-1,32
 551 617 551 617 446 617 c 0,33,34
 342 617 342 617 274.5 551 c 128,-1,35
 207 485 207 485 188 365 c 256,36,37
 169 245 169 245 215.5 179 c 128,-1,38
 262 113 262 113 366 113 c 0,39,28
 471 113 471 113 539 179 c 128,-1,29
EndSplineSet
EndChar

StartChar: uni1ED4
Encoding: 7892 7892 114
Width: 787
GlyphClass: 2
Flags: W
AnchorPoint: "Anchor-7" 552 690 basechar 0
AnchorPoint: "Anchor-6" 430 1148 basechar 0
AnchorPoint: "Anchor-5" 424 0 basechar 0
AnchorPoint: "Anchor-4" 359 0 basechar 0
LayerCount: 2
Fore
SplineSet
391 770 m 1,0,-1
 238 770 l 1,1,-1
 391 980 l 1,2,-1
 604 980 l 1,3,4
 612 1004 612 1004 612 1012 c 0,5,6
 615 1033 615 1033 604 1040 c 128,-1,7
 593 1047 593 1047 558 1047 c 0,8,9
 491 1047 491 1047 424 1027 c 1,10,-1
 428 1130 l 1,11,12
 507 1148 507 1148 600 1148 c 0,13,14
 667 1148 667 1148 701 1140.5 c 128,-1,15
 735 1133 735 1133 747 1114.5 c 128,-1,16
 759 1096 759 1096 754 1061 c 0,17,18
 750 1036 750 1036 739 1004.5 c 128,-1,19
 728 973 728 973 714 948 c 1,20,-1
 629 948 l 1,21,-1
 703 770 l 1,22,-1
 550 770 l 1,23,-1
 495 923 l 1,24,-1
 494 923 l 1,25,-1
 391 770 l 1,0,-1
650.5 694.5 m 128,-1,27
 725 649 725 649 754.5 564.5 c 128,-1,28
 784 480 784 480 766 365 c 256,29,30
 748 250 748 250 691.5 165.5 c 128,-1,31
 635 81 635 81 546 35.5 c 128,-1,32
 457 -10 457 -10 347 -10 c 256,33,34
 236 -10 236 -10 162.5 35.5 c 128,-1,35
 89 81 89 81 58.5 165.5 c 128,-1,36
 28 250 28 250 46 365 c 256,37,38
 64 480 64 480 121.5 564.5 c 128,-1,39
 179 649 179 649 267 694.5 c 128,-1,40
 355 740 355 740 466 740 c 256,41,26
 576 740 576 740 650.5 694.5 c 128,-1,27
539 179 m 128,-1,43
 607 245 607 245 626 365 c 256,44,45
 645 485 645 485 598 551 c 128,-1,46
 551 617 551 617 446 617 c 0,47,48
 342 617 342 617 274.5 551 c 128,-1,49
 207 485 207 485 188 365 c 256,50,51
 169 245 169 245 215.5 179 c 128,-1,52
 262 113 262 113 366 113 c 0,53,42
 471 113 471 113 539 179 c 128,-1,43
EndSplineSet
EndChar

StartChar: Ohorn
Encoding: 416 416 123
Width: 812
GlyphClass: 2
Flags: W
AnchorPoint: "Anchor-7" 797 838 basechar 0
AnchorPoint: "Anchor-6" 359 730 basechar 0
AnchorPoint: "Anchor-5" 424 0 basechar 0
AnchorPoint: "Anchor-4" 359 0 basechar 0
LayerCount: 2
Fore
SplineSet
836 609.5 m 128,-1,1
 804 570 804 570 756 559 c 1,2,3
 783 477 783 477 766 365 c 0,4,5
 748 250 748 250 691.5 165.5 c 128,-1,6
 635 81 635 81 546 35.5 c 128,-1,7
 457 -10 457 -10 347 -10 c 256,8,9
 236 -10 236 -10 162.5 35.5 c 128,-1,10
 89 81 89 81 58.5 165.5 c 128,-1,11
 28 250 28 250 46 365 c 256,12,13
 64 480 64 480 121.5 564.5 c 128,-1,14
 179 649 179 649 267 694.5 c 128,-1,15
 355 740 355 740 466 740 c 0,16,17
 611 740 611 740 690 665 c 1,18,19
 713 665 713 665 728.5 681.5 c 128,-1,20
 744 698 744 698 749 727 c 0,21,22
 753 750 753 750 751.5 783.5 c 128,-1,23
 750 817 750 817 745 838 c 1,24,-1
 877 838 l 1,25,26
 888 778 888 778 878 712 c 0,27,0
 868 649 868 649 836 609.5 c 128,-1,1
539 179 m 128,-1,29
 607 245 607 245 626 365 c 256,30,31
 645 485 645 485 598 551 c 128,-1,32
 551 617 551 617 446 617 c 0,33,34
 342 617 342 617 274.5 551 c 128,-1,35
 207 485 207 485 188 365 c 256,36,37
 169 245 169 245 215.5 179 c 128,-1,38
 262 113 262 113 366 113 c 0,39,28
 471 113 471 113 539 179 c 128,-1,29
EndSplineSet
EndChar

StartChar: uni01EA
Encoding: 490 490 132
Width: 787
GlyphClass: 2
Flags: W
AnchorPoint: "Anchor-7" 552 690 basechar 0
AnchorPoint: "Anchor-6" 359 730 basechar 0
AnchorPoint: "Anchor-5" 424 0 basechar 0
AnchorPoint: "Anchor-4" 359 0 basechar 0
LayerCount: 2
Fore
SplineSet
320 -81 m 0,1,2
 317 -98 317 -98 331.5 -106.5 c 128,-1,3
 346 -115 346 -115 376 -115 c 0,4,5
 421 -115 421 -115 469 -96 c 1,6,-1
 469 -197 l 1,7,8
 415 -218 415 -218 350 -218 c 0,9,10
 266 -218 266 -218 225 -187.5 c 128,-1,11
 184 -157 184 -157 193 -102 c 0,12,13
 202 -48 202 -48 254 -1 c 1,14,15
 133 26 133 26 78 122 c 128,-1,16
 23 218 23 218 46 365 c 0,17,18
 64 480 64 480 121.5 564.5 c 128,-1,19
 179 649 179 649 267 694.5 c 128,-1,20
 355 740 355 740 466 740 c 256,21,22
 577 740 577 740 651 694.5 c 128,-1,23
 725 649 725 649 754.5 564.5 c 128,-1,24
 784 480 784 480 766 365 c 0,25,26
 741 205 741 205 643.5 106.5 c 128,-1,27
 546 8 546 8 398 -7 c 1,28,0
 325 -47 325 -47 320 -81 c 0,1,2
215.5 179 m 128,-1,30
 262 113 262 113 366 113 c 0,31,32
 471 113 471 113 539 179 c 128,-1,33
 607 245 607 245 626 365 c 256,34,35
 645 485 645 485 598 551 c 128,-1,36
 551 617 551 617 446 617 c 0,37,38
 342 617 342 617 274.5 551 c 128,-1,39
 207 485 207 485 188 365 c 256,40,29
 169 245 169 245 215.5 179 c 128,-1,30
EndSplineSet
EndChar

StartChar: Oslash
Encoding: 216 216 133
Width: 787
GlyphClass: 2
Flags: W
AnchorPoint: "Anchor-7" 552 690 basechar 0
AnchorPoint: "Anchor-6" 359 730 basechar 0
AnchorPoint: "Anchor-5" 424 0 basechar 0
AnchorPoint: "Anchor-4" 359 0 basechar 0
LayerCount: 2
Fore
SplineSet
766 519 m 128,-1,1
 779 450 779 450 766 365 c 0,2,3
 748 250 748 250 691.5 165.5 c 128,-1,4
 635 81 635 81 546 35.5 c 128,-1,5
 457 -10 457 -10 347 -10 c 0,6,7
 244 -10 244 -10 175 29 c 1,8,-1
 110 -43 l 1,9,-1
 34 23 l 1,10,-1
 97 93 l 1,11,12
 59 142 59 142 46 211 c 128,-1,13
 33 280 33 280 46 365 c 0,14,15
 64 480 64 480 121.5 564.5 c 128,-1,16
 179 649 179 649 267 694.5 c 128,-1,17
 355 740 355 740 466 740 c 0,18,19
 568 740 568 740 639 702 c 1,20,-1
 702 773 l 1,21,-1
 778 707 l 1,22,-1
 716 637 l 1,23,0
 753 588 753 588 766 519 c 128,-1,1
199 208 m 1,25,-1
 545 596 l 1,26,27
 504 617 504 617 446 617 c 0,28,29
 342 617 342 617 274.5 551 c 128,-1,30
 207 485 207 485 188 365 c 0,31,24
 173 271 173 271 199 208 c 1,25,-1
539 179 m 128,-1,33
 607 245 607 245 626 365 c 0,34,35
 641 461 641 461 613 523 c 1,36,-1
 268 134 l 1,37,38
 309 113 309 113 366 113 c 0,39,32
 471 113 471 113 539 179 c 128,-1,33
EndSplineSet
EndChar

StartChar: OE
Encoding: 338 338 137
Width: 1002
GlyphClass: 2
Flags: W
AnchorPoint: "Anchor-6" 693 730 basechar 0
AnchorPoint: "Anchor-5" 924 0 basechar 0
AnchorPoint: "Anchor-4" 693 0 basechar 0
LayerCount: 2
Fore
SplineSet
679 611 m 1,0,-1
 652 438 l 1,1,-1
 952 438 l 1,2,-1
 934 323 l 1,3,-1
 634 323 l 1,4,-1
 601 119 l 1,5,-1
 921 119 l 1,6,-1
 902 0 l 1,7,-1
 445 0 l 1,8,-1
 446 1 l 1,9,10
 398 -10 398 -10 347 -10 c 0,11,12
 236 -10 236 -10 162.5 35.5 c 128,-1,13
 89 81 89 81 58.5 165.5 c 128,-1,14
 28 250 28 250 46 365 c 256,15,16
 64 480 64 480 121.5 564.5 c 128,-1,17
 179 649 179 649 267 694.5 c 128,-1,18
 355 740 355 740 466 740 c 0,19,20
 517 740 517 740 561 729 c 1,21,-1
 561 730 l 1,22,-1
 1018 730 l 1,23,-1
 999 611 l 1,24,-1
 679 611 l 1,0,-1
467 134 m 1,26,-1
 540 596 l 1,27,28
 502 617 502 617 446 617 c 0,29,30
 342 617 342 617 274.5 551 c 128,-1,31
 207 485 207 485 188 365 c 256,32,33
 169 245 169 245 215.5 179 c 128,-1,34
 262 113 262 113 366 113 c 0,35,25
 423 113 423 113 467 134 c 1,26,-1
EndSplineSet
EndChar

StartChar: P
Encoding: 80 80 138
Width: 609
Flags: W
LayerCount: 2
Fore
SplineSet
568.5 671 m 128,-1,1
 637 612 637 612 617 490 c 0,2,3
 598 370 598 370 515.5 309.5 c 128,-1,4
 433 249 433 249 288 249 c 2,5,-1
 200 249 l 1,6,-1
 160 0 l 1,7,-1
 23 0 l 1,8,-1
 139 730 l 1,9,-1
 338 730 l 2,10,0
 500 730 500 730 568.5 671 c 128,-1,1
422 397 m 128,-1,12
 467 426 467 426 477 489 c 256,13,14
 487 552 487 552 451 581 c 128,-1,15
 415 610 415 610 326 610 c 2,16,-1
 257 610 l 1,17,-1
 219 368 l 1,18,-1
 287 368 l 2,19,11
 377 368 377 368 422 397 c 128,-1,12
EndSplineSet
EndChar

StartChar: Thorn
Encoding: 222 222 139
Width: 609
Flags: W
LayerCount: 2
Fore
SplineSet
549.5 556 m 128,-1,1
 618 497 618 497 599 375 c 0,2,3
 561 135 561 135 270 135 c 2,4,-1
 182 135 l 1,5,-1
 160 0 l 1,6,-1
 23 0 l 1,7,-1
 139 730 l 1,8,-1
 276 730 l 1,9,-1
 258 615 l 1,10,-1
 320 615 l 2,11,0
 481 615 481 615 549.5 556 c 128,-1,1
403 282.5 m 128,-1,13
 449 312 449 312 459 374 c 0,14,15
 469 437 469 437 433 466 c 128,-1,16
 397 495 397 495 307 495 c 2,17,-1
 239 495 l 1,18,-1
 201 253 l 1,19,-1
 269 253 l 2,20,12
 357 253 357 253 403 282.5 c 128,-1,13
EndSplineSet
EndChar

StartChar: Q
Encoding: 81 81 140
Width: 791
Flags: W
LayerCount: 2
Fore
SplineSet
713 -61 m 1,1,-1
 591 -139 l 1,2,3
 554 -73 554 -73 494.5 -41.5 c 128,-1,4
 435 -10 435 -10 347 -10 c 0,5,6
 236 -10 236 -10 162.5 35.5 c 128,-1,7
 89 81 89 81 58.5 165.5 c 128,-1,8
 28 250 28 250 46 365 c 256,9,10
 64 480 64 480 121.5 564.5 c 128,-1,11
 179 649 179 649 267 694.5 c 128,-1,12
 355 740 355 740 466 740 c 256,13,14
 577 740 577 740 651 694.5 c 128,-1,15
 725 649 725 649 754.5 564.5 c 128,-1,16
 784 480 784 480 766 365 c 0,17,18
 750 259 750 259 697.5 179 c 128,-1,19
 645 99 645 99 564 53 c 1,20,0
 661 13 661 13 713 -61 c 1,1,-1
215.5 179 m 128,-1,22
 262 113 262 113 366 113 c 0,23,24
 471 113 471 113 539 179 c 128,-1,25
 607 245 607 245 626 365 c 256,26,27
 645 485 645 485 598 551 c 128,-1,28
 551 617 551 617 446 617 c 0,29,30
 342 617 342 617 274.5 551 c 128,-1,31
 207 485 207 485 188 365 c 256,32,21
 169 245 169 245 215.5 179 c 128,-1,22
EndSplineSet
EndChar

StartChar: R
Encoding: 82 82 141
Width: 637
GlyphClass: 2
Flags: W
AnchorPoint: "Anchor-6" 272 730 basechar 0
AnchorPoint: "Anchor-4" 272 0 basechar 0
LayerCount: 2
Fore
SplineSet
207 286 m 1,0,-1
 206 286 l 1,1,-1
 160 0 l 1,2,-1
 23 0 l 1,3,-1
 139 730 l 1,4,-1
 345 730 l 2,5,6
 504 730 504 730 571 676.5 c 128,-1,7
 638 623 638 623 620 510 c 0,8,9
 589 313 589 313 364 289 c 1,10,-1
 565 0 l 1,11,-1
 404 0 l 1,12,-1
 207 286 l 1,0,-1
257 610 m 1,13,-1
 224 399 l 1,14,-1
 299 399 l 2,15,16
 384 399 384 399 427.5 424 c 128,-1,17
 471 449 471 449 479 504 c 256,18,19
 488 559 488 559 453 584.5 c 128,-1,20
 418 610 418 610 333 610 c 2,21,-1
 257 610 l 1,13,-1
EndSplineSet
EndChar

StartChar: S
Encoding: 83 83 147
Width: 603
GlyphClass: 2
Flags: W
AnchorPoint: "Anchor-6" 265 730 basechar 0
AnchorPoint: "Anchor-4" 265 0 basechar 0
LayerCount: 2
Fore
SplineSet
109.5 6 m 128,-1,1
 48 22 48 22 7 52 c 1,2,-1
 69 167 l 1,3,4
 111 141 111 141 162 126.5 c 128,-1,5
 213 112 213 112 263 112 c 0,6,7
 324 112 324 112 361 135 c 128,-1,8
 398 158 398 158 405 201 c 0,9,10
 409 229 409 229 398 247 c 128,-1,11
 387 265 387 265 363 277 c 128,-1,12
 339 289 339 289 297 304 c 0,13,14
 215 333 215 333 167 363.5 c 128,-1,15
 119 394 119 394 98 435.5 c 128,-1,16
 77 477 77 477 87 537 c 0,17,18
 103 635 103 635 179 687.5 c 128,-1,19
 255 740 255 740 382 740 c 0,20,21
 445 740 445 740 506 726.5 c 128,-1,22
 567 713 567 713 608 691 c 1,23,-1
 546 576 l 1,24,25
 510 596 510 596 463 607 c 128,-1,26
 416 618 416 618 370 618 c 0,27,28
 308 618 308 618 272 597.5 c 128,-1,29
 236 577 236 577 230 537 c 0,30,31
 224 499 224 499 250.5 478 c 128,-1,32
 277 457 277 457 339 437 c 0,33,34
 420 406 420 406 468 375.5 c 128,-1,35
 516 345 516 345 536.5 303 c 128,-1,36
 557 261 557 261 548 201 c 0,37,38
 532 100 532 100 452.5 45 c 128,-1,39
 373 -10 373 -10 244 -10 c 0,40,0
 171 -10 171 -10 109.5 6 c 128,-1,1
EndSplineSet
EndChar

StartChar: Scedilla
Encoding: 350 350 150
Width: 603
GlyphClass: 2
Flags: W
AnchorPoint: "Anchor-6" 265 730 basechar 0
AnchorPoint: "Anchor-4" 265 0 basechar 0
LayerCount: 2
Fore
SplineSet
486.5 74 m 128,-1,1
 437 23 437 23 357 3 c 1,2,3
 397 -47 397 -47 388 -102 c 256,4,5
 379 -157 379 -157 329 -187.5 c 128,-1,6
 279 -218 279 -218 194 -218 c 0,7,8
 130 -218 130 -218 82 -197 c 1,9,-1
 114 -96 l 1,10,11
 156 -115 156 -115 201 -115 c 0,12,13
 231 -115 231 -115 248 -106.5 c 128,-1,14
 265 -98 265 -98 268 -81 c 0,15,16
 273 -48 273 -48 217 -9 c 1,17,18
 153 -7 153 -7 98.5 8.5 c 128,-1,19
 44 24 44 24 7 52 c 1,20,-1
 69 167 l 1,21,22
 111 141 111 141 162 126.5 c 128,-1,23
 213 112 213 112 263 112 c 0,24,25
 324 112 324 112 361 135 c 128,-1,26
 398 158 398 158 405 201 c 0,27,28
 409 229 409 229 398 247 c 128,-1,29
 387 265 387 265 363 277 c 128,-1,30
 339 289 339 289 297 304 c 0,31,32
 215 333 215 333 167 363.5 c 128,-1,33
 119 394 119 394 98 435.5 c 128,-1,34
 77 477 77 477 87 537 c 0,35,36
 103 635 103 635 179 687.5 c 128,-1,37
 255 740 255 740 382 740 c 0,38,39
 445 740 445 740 506 726.5 c 128,-1,40
 567 713 567 713 608 691 c 1,41,-1
 546 576 l 1,42,43
 510 596 510 596 463 607 c 128,-1,44
 416 618 416 618 370 618 c 0,45,46
 308 618 308 618 272 597.5 c 128,-1,47
 236 577 236 577 230 537 c 0,48,49
 224 499 224 499 250.5 478 c 128,-1,50
 277 457 277 457 339 437 c 0,51,52
 420 406 420 406 468 375.5 c 128,-1,53
 516 345 516 345 536.5 303 c 128,-1,54
 557 261 557 261 548 201 c 0,55,0
 536 125 536 125 486.5 74 c 128,-1,1
EndSplineSet
Substitution2: "'locl' Localized Forms in Latin lookup 4 subtable" uni0218
Substitution2: "'aalt' Access All Alternates in Latin lookup 0 subtable" uni0218
EndChar

StartChar: uni1E9E
Encoding: 7838 7838 153
Width: 672
Flags: W
LayerCount: 2
Fore
SplineSet
236 12 m 1,1,-1
 273 132 l 1,2,3
 323 113 323 113 366 113 c 0,4,5
 423 113 423 113 456 136 c 128,-1,6
 489 159 489 159 496 203 c 0,7,8
 504 251 504 251 470 272 c 128,-1,9
 436 293 436 293 352 293 c 2,10,-1
 346 293 l 1,11,-1
 363 400 l 1,12,-1
 486 541 l 1,13,14
 490 579 490 579 464.5 598 c 128,-1,15
 439 617 439 617 382 617 c 0,16,17
 315 617 315 617 282.5 590.5 c 128,-1,18
 250 564 250 564 240 502 c 2,19,-1
 160 0 l 1,20,-1
 23 0 l 1,21,-1
 103 502 l 2,22,23
 141 740 141 740 401 740 c 0,24,25
 655 740 655 740 620 522 c 1,26,-1
 500 389 l 1,27,-1
 500 387 l 1,28,29
 580 377 580 377 614.5 329.5 c 128,-1,30
 649 282 649 282 636 200 c 0,31,32
 620 99 620 99 550 44.5 c 128,-1,33
 480 -10 480 -10 366 -10 c 0,34,0
 299 -10 299 -10 236 12 c 1,1,-1
EndSplineSet
EndChar

StartChar: uni018F
Encoding: 399 399 154
Width: 738
Flags: W
LayerCount: 2
Fore
SplineSet
662.5 643 m 128,-1,1
 747 546 747 546 718 365 c 0,2,3
 699 248 699 248 645 163.5 c 128,-1,4
 591 79 591 79 507 34.5 c 128,-1,5
 423 -10 423 -10 317 -10 c 0,6,7
 213 -10 213 -10 145.5 33.5 c 128,-1,8
 78 77 78 77 51.5 159 c 128,-1,9
 25 241 25 241 43 356 c 0,10,11
 50 401 50 401 58 425 c 1,12,-1
 590 425 l 1,13,14
 601 523 601 523 550 570 c 128,-1,15
 499 617 499 617 382 617 c 0,16,17
 263 617 263 617 147 574 c 1,18,-1
 141 692 l 1,19,20
 194 715 194 715 260.5 727.5 c 128,-1,21
 327 740 327 740 392 740 c 0,22,0
 578 740 578 740 662.5 643 c 128,-1,1
569 306 m 1,24,-1
 174 306 l 1,25,26
 161 113 161 113 342 113 c 0,27,23
 521 113 521 113 569 306 c 1,24,-1
EndSplineSet
EndChar

StartChar: T
Encoding: 84 84 155
Width: 623
GlyphClass: 2
Flags: W
AnchorPoint: "Anchor-8" 203 0 basechar 0
AnchorPoint: "Anchor-6" 275 730 basechar 0
AnchorPoint: "Anchor-4" 275 0 basechar 0
LayerCount: 2
Fore
SplineSet
292 607 m 1,0,-1
 76 607 l 1,1,-1
 95 730 l 1,2,-1
 668 730 l 1,3,-1
 649 607 l 1,4,-1
 433 607 l 1,5,-1
 337 0 l 1,6,-1
 196 0 l 1,7,-1
 292 607 l 1,0,-1
EndSplineSet
EndChar

StartChar: Tbar
Encoding: 358 358 156
Width: 672
GlyphClass: 2
Flags: W
AnchorPoint: "Anchor-8" 230 0 basechar 0
AnchorPoint: "Anchor-6" 303 730 basechar 0
AnchorPoint: "Anchor-4" 303 0 basechar 0
LayerCount: 2
Fore
SplineSet
674 607 m 1,0,-1
 458 607 l 1,1,-1
 420 368 l 1,2,-1
 582 368 l 1,3,-1
 565 262 l 1,4,-1
 403 262 l 1,5,-1
 362 0 l 1,6,-1
 221 0 l 1,7,-1
 262 262 l 1,8,-1
 101 262 l 1,9,-1
 118 368 l 1,10,-1
 279 368 l 1,11,-1
 317 607 l 1,12,-1
 101 607 l 1,13,-1
 121 730 l 1,14,-1
 694 730 l 1,15,-1
 674 607 l 1,0,-1
EndSplineSet
EndChar

StartChar: uni0162
Encoding: 354 354 158
Width: 623
GlyphClass: 2
Flags: W
AnchorPoint: "Anchor-8" 203 0 basechar 0
AnchorPoint: "Anchor-6" 275 730 basechar 0
AnchorPoint: "Anchor-4" 275 0 basechar 0
LayerCount: 2
Fore
SplineSet
433 607 m 1,0,-1
 340 16 l 1,1,2
 393 -41 393 -41 383 -102 c 0,3,4
 374 -157 374 -157 323.5 -187.5 c 128,-1,5
 273 -218 273 -218 189 -218 c 0,6,7
 124 -218 124 -218 77 -197 c 1,8,-1
 108 -96 l 1,9,10
 150 -115 150 -115 196 -115 c 0,11,12
 225 -115 225 -115 242 -106 c 128,-1,13
 259 -97 259 -97 262 -81 c 0,14,15
 268 -43 268 -43 196 0 c 1,16,-1
 292 607 l 1,17,-1
 76 607 l 1,18,-1
 95 730 l 1,19,-1
 668 730 l 1,20,-1
 649 607 l 1,21,-1
 433 607 l 1,0,-1
EndSplineSet
Substitution2: "'locl' Localized Forms in Latin lookup 4 subtable" uni021A
Substitution2: "'aalt' Access All Alternates in Latin lookup 0 subtable" uni021A
EndChar

StartChar: U
Encoding: 85 85 160
Width: 685
GlyphClass: 2
Flags: W
AnchorPoint: "Anchor-7" 576 690 basechar 0
AnchorPoint: "Anchor-6" 309 730 basechar 0
AnchorPoint: "Anchor-5" 438 10 basechar 0
AnchorPoint: "Anchor-4" 309 0 basechar 0
LayerCount: 2
Fore
SplineSet
98 61.5 m 128,-1,1
 38 133 38 133 60 270 c 2,2,-1
 133 730 l 1,3,-1
 270 730 l 1,4,-1
 200 287 l 2,5,6
 185 195 185 195 212.5 154 c 128,-1,7
 240 113 240 113 315 113 c 0,8,9
 391 113 391 113 431.5 154 c 128,-1,10
 472 195 472 195 487 287 c 2,11,-1
 557 730 l 1,12,-1
 694 730 l 1,13,-1
 621 270 l 2,14,15
 599 133 599 133 516 61.5 c 128,-1,16
 433 -10 433 -10 296 -10 c 256,17,0
 158 -10 158 -10 98 61.5 c 128,-1,1
EndSplineSet
EndChar

StartChar: Uhorn
Encoding: 431 431 169
Width: 809
GlyphClass: 2
Flags: W
AnchorPoint: "Anchor-7" 821 838 basechar 0
AnchorPoint: "Anchor-6" 309 730 basechar 0
AnchorPoint: "Anchor-5" 438 10 basechar 0
AnchorPoint: "Anchor-4" 309 0 basechar 0
LayerCount: 2
Fore
SplineSet
899 712 m 0,1,2
 887 637 887 637 845.5 596 c 128,-1,3
 804 555 804 555 739 555 c 0,4,5
 702 555 702 555 668 568 c 1,6,-1
 621 270 l 2,7,8
 599 133 599 133 516 61.5 c 128,-1,9
 433 -10 433 -10 296 -10 c 256,10,11
 159 -10 159 -10 98.5 61.5 c 128,-1,12
 38 133 38 133 60 270 c 2,13,-1
 133 730 l 1,14,-1
 270 730 l 1,15,-1
 200 287 l 2,16,17
 185 195 185 195 212.5 154 c 128,-1,18
 240 113 240 113 315 113 c 0,19,20
 391 113 391 113 431.5 154 c 128,-1,21
 472 195 472 195 487 287 c 2,22,-1
 557 730 l 1,23,-1
 694 730 l 1,24,-1
 685 671 l 1,25,26
 696 665 696 665 710 665 c 0,27,28
 734 665 734 665 749.5 681.5 c 128,-1,29
 765 698 765 698 770 727 c 0,30,31
 774 750 774 750 773 783.5 c 128,-1,32
 772 817 772 817 766 838 c 1,33,-1
 898 838 l 1,34,0
 909 778 909 778 899 712 c 0,1,2
EndSplineSet
EndChar

StartChar: Uogonek
Encoding: 370 370 178
Width: 685
GlyphClass: 2
Flags: W
AnchorPoint: "Anchor-7" 576 690 basechar 0
AnchorPoint: "Anchor-6" 309 730 basechar 0
AnchorPoint: "Anchor-5" 438 10 basechar 0
AnchorPoint: "Anchor-4" 309 0 basechar 0
LayerCount: 2
Fore
SplineSet
333 -71 m 0,1,2
 330 -88 330 -88 344.5 -96.5 c 128,-1,3
 359 -105 359 -105 389 -105 c 0,4,5
 434 -105 434 -105 482 -86 c 1,6,-1
 482 -187 l 1,7,8
 428 -208 428 -208 363 -208 c 0,9,10
 279 -208 279 -208 238 -177.5 c 128,-1,11
 197 -147 197 -147 206 -92 c 0,12,13
 213 -48 213 -48 250 -8 c 1,14,15
 136 4 136 4 88 74.5 c 128,-1,16
 40 145 40 145 60 270 c 2,17,-1
 133 730 l 1,18,-1
 270 730 l 1,19,-1
 200 287 l 2,20,21
 185 195 185 195 212.5 154 c 128,-1,22
 240 113 240 113 315 113 c 0,23,24
 391 113 391 113 431.5 154 c 128,-1,25
 472 195 472 195 487 287 c 2,26,-1
 557 730 l 1,27,-1
 694 730 l 1,28,-1
 621 270 l 2,29,30
 605 169 605 169 555 103 c 128,-1,31
 505 37 505 37 424 10 c 1,32,0
 339 -34 339 -34 333 -71 c 0,1,2
EndSplineSet
EndChar

StartChar: V
Encoding: 86 86 181
Width: 668
Flags: W
LayerCount: 2
Fore
SplineSet
80 730 m 1,0,-1
 231 730 l 1,1,-1
 311 140 l 1,2,-1
 313 140 l 1,3,-1
 580 730 l 1,4,-1
 730 730 l 1,5,-1
 380 0 l 1,6,-1
 200 0 l 1,7,-1
 80 730 l 1,0,-1
EndSplineSet
EndChar

StartChar: W
Encoding: 87 87 182
Width: 918
GlyphClass: 2
Flags: W
AnchorPoint: "Anchor-6" 425 730 basechar 0
AnchorPoint: "Anchor-4" 425 0 basechar 0
LayerCount: 2
Fore
SplineSet
505 583 m 1,0,-1
 504 583 l 1,1,-1
 302 0 l 1,2,-1
 140 0 l 1,3,-1
 90 730 l 1,4,-1
 230 730 l 1,5,-1
 245 147 l 1,6,-1
 247 147 l 1,7,-1
 444 730 l 1,8,-1
 615 730 l 1,9,-1
 628 147 l 1,10,-1
 629 147 l 1,11,-1
 830 730 l 1,12,-1
 966 730 l 1,13,-1
 685 0 l 1,14,-1
 522 0 l 1,15,-1
 505 583 l 1,0,-1
EndSplineSet
EndChar

StartChar: X
Encoding: 88 88 187
Width: 671
Flags: W
LayerCount: 2
Fore
SplineSet
247 366 m 1,0,-1
 108 730 l 1,1,-1
 263 730 l 1,2,-1
 361 446 l 1,3,-1
 363 446 l 1,4,-1
 550 730 l 1,5,-1
 705 730 l 1,6,-1
 451 366 l 1,7,-1
 591 0 l 1,8,-1
 436 0 l 1,9,-1
 338 288 l 1,10,-1
 336 288 l 1,11,-1
 145 0 l 1,12,-1
 -10 0 l 1,13,-1
 247 366 l 1,0,-1
EndSplineSet
EndChar

StartChar: Y
Encoding: 89 89 188
Width: 650
GlyphClass: 2
Flags: W
AnchorPoint: "Anchor-6" 288 730 basechar 0
AnchorPoint: "Anchor-4" 288 0 basechar 0
LayerCount: 2
Fore
SplineSet
255 286 m 1,0,-1
 76 730 l 1,1,-1
 230 730 l 1,2,-1
 345 411 l 1,3,-1
 347 411 l 1,4,-1
 562 730 l 1,5,-1
 716 730 l 1,6,-1
 398 286 l 1,7,-1
 352 0 l 1,8,-1
 209 0 l 1,9,-1
 255 286 l 1,0,-1
EndSplineSet
EndChar

StartChar: Z
Encoding: 90 90 197
Width: 618
GlyphClass: 2
Flags: W
AnchorPoint: "Anchor-6" 275 730 basechar 0
AnchorPoint: "Anchor-4" 275 0 basechar 0
LayerCount: 2
Fore
SplineSet
29 122 m 1,0,-1
 451 606 l 1,1,-1
 451 608 l 1,2,-1
 106 608 l 1,3,-1
 125 730 l 1,4,-1
 635 730 l 1,5,-1
 615 608 l 1,6,-1
 194 124 l 1,7,-1
 194 122 l 1,8,-1
 539 122 l 1,9,-1
 519 0 l 1,10,-1
 10 0 l 1,11,-1
 29 122 l 1,0,-1
EndSplineSet
EndChar

StartChar: a
Encoding: 97 97 201
Width: 524
GlyphClass: 2
Flags: W
AnchorPoint: "Anchor-6" 224 520 basechar 0
AnchorPoint: "Anchor-5" 455 0 basechar 0
AnchorPoint: "Anchor-4" 224 0 basechar 0
LayerCount: 2
Fore
SplineSet
418.5 509.5 m 128,-1,1
 460 489 460 489 474 444 c 128,-1,2
 488 399 488 399 476 323 c 2,3,-1
 424 0 l 1,4,-1
 301 0 l 1,5,-1
 311 66 l 1,6,-1
 309 66 l 1,7,8
 276 29 276 29 231.5 9.5 c 128,-1,9
 187 -10 187 -10 138 -10 c 0,10,11
 65 -10 65 -10 28.5 33 c 128,-1,12
 -8 76 -8 76 3 147 c 0,13,14
 17 238 17 238 98 286.5 c 128,-1,15
 179 335 179 335 315 335 c 2,16,-1
 348 335 l 1,17,18
 353 371 353 371 348 389.5 c 128,-1,19
 343 408 343 408 326.5 415.5 c 128,-1,20
 310 423 310 423 275 423 c 0,21,22
 182 423 182 423 87 380 c 1,23,-1
 73 481 l 1,24,25
 179 530 179 530 302 530 c 0,26,0
 377 530 377 530 418.5 509.5 c 128,-1,1
252.5 108.5 m 128,-1,28
 282 123 282 123 302 147.5 c 128,-1,29
 322 172 322 172 326 200 c 2,30,-1
 333 244 l 1,31,-1
 300 244 l 2,32,33
 141 244 141 244 128 159 c 0,34,35
 123 129 123 129 140 111.5 c 128,-1,36
 157 94 157 94 192 94 c 0,37,27
 223 94 223 94 252.5 108.5 c 128,-1,28
EndSplineSet
Substitution2: "Single Substitution lookup 21 subtable" ordfeminine
Substitution2: "'aalt' Access All Alternates in Latin lookup 0 subtable" ordfeminine
EndChar

StartChar: uni1EAF
Encoding: 7855 7855 204
Width: 524
GlyphClass: 2
Flags: W
AnchorPoint: "Anchor-6" 224 520 basechar 0
AnchorPoint: "Anchor-5" 455 0 basechar 0
AnchorPoint: "Anchor-4" 224 0 basechar 0
LayerCount: 2
Fore
SplineSet
194 589 m 128,-1,1
 151 613 151 613 131 655.5 c 128,-1,2
 111 698 111 698 117 752 c 1,3,-1
 230 752 l 1,4,-1
 336 950 l 1,5,-1
 497 950 l 1,6,-1
 347 740 l 1,7,-1
 244 740 l 1,8,9
 246 666 246 666 312 666 c 0,10,11
 382 666 382 666 406 752 c 1,12,-1
 533 752 l 1,13,14
 523 698 523 698 489 655.5 c 128,-1,15
 455 613 455 613 404.5 589 c 128,-1,16
 354 565 354 565 296 565 c 256,17,0
 237 565 237 565 194 589 c 128,-1,1
418.5 509.5 m 128,-1,19
 460 489 460 489 473.5 444 c 128,-1,20
 487 399 487 399 475 323 c 2,21,-1
 424 0 l 1,22,-1
 301 0 l 1,23,-1
 311 66 l 1,24,-1
 309 66 l 1,25,26
 276 29 276 29 231.5 9.5 c 128,-1,27
 187 -10 187 -10 138 -10 c 0,28,29
 65 -10 65 -10 28.5 33 c 128,-1,30
 -8 76 -8 76 3 147 c 0,31,32
 17 238 17 238 98 286.5 c 128,-1,33
 179 335 179 335 314 335 c 2,34,-1
 348 335 l 1,35,36
 353 371 353 371 348 389.5 c 128,-1,37
 343 408 343 408 326 415.5 c 128,-1,38
 309 423 309 423 275 423 c 0,39,40
 182 423 182 423 87 380 c 1,41,-1
 73 481 l 1,42,43
 179 530 179 530 302 530 c 0,44,18
 377 530 377 530 418.5 509.5 c 128,-1,19
252.5 108.5 m 128,-1,46
 282 123 282 123 302 147.5 c 128,-1,47
 322 172 322 172 326 200 c 2,48,-1
 333 244 l 1,49,-1
 300 244 l 2,50,51
 141 244 141 244 128 159 c 0,52,53
 123 129 123 129 140 111.5 c 128,-1,54
 157 94 157 94 192 94 c 0,55,45
 223 94 223 94 252.5 108.5 c 128,-1,46
EndSplineSet
EndChar

StartChar: uni1EB1
Encoding: 7857 7857 206
Width: 524
GlyphClass: 2
Flags: W
AnchorPoint: "Anchor-6" 223 520 basechar 0
AnchorPoint: "Anchor-5" 455 0 basechar 0
AnchorPoint: "Anchor-4" 223 0 basechar 0
LayerCount: 2
Fore
SplineSet
367 684.5 m 128,-1,1
 390 703 390 703 402 740 c 1,2,-1
 299 740 l 1,3,-1
 216 950 l 1,4,-1
 376 950 l 1,5,-1
 419 752 l 1,6,-1
 533 752 l 1,7,8
 523 698 523 698 489 655.5 c 128,-1,9
 455 613 455 613 404.5 589 c 128,-1,10
 354 565 354 565 296 565 c 256,11,12
 237 565 237 565 194 589 c 128,-1,13
 151 613 151 613 131 655.5 c 128,-1,14
 111 698 111 698 117 752 c 1,15,-1
 243 752 l 1,16,17
 240 666 240 666 312 666 c 0,18,0
 344 666 344 666 367 684.5 c 128,-1,1
418.5 509.5 m 128,-1,20
 460 489 460 489 473.5 444 c 128,-1,21
 487 399 487 399 475 323 c 2,22,-1
 424 0 l 1,23,-1
 301 0 l 1,24,-1
 311 66 l 1,25,-1
 309 66 l 1,26,27
 276 29 276 29 231.5 9.5 c 128,-1,28
 187 -10 187 -10 138 -10 c 0,29,30
 65 -10 65 -10 28.5 33 c 128,-1,31
 -8 76 -8 76 3 147 c 0,32,33
 17 238 17 238 98 286.5 c 128,-1,34
 179 335 179 335 314 335 c 2,35,-1
 347 335 l 1,36,37
 352 371 352 371 347.5 389.5 c 128,-1,38
 343 408 343 408 326 415.5 c 128,-1,39
 309 423 309 423 275 423 c 0,40,41
 182 423 182 423 87 380 c 1,42,-1
 73 481 l 1,43,44
 179 530 179 530 302 530 c 0,45,19
 377 530 377 530 418.5 509.5 c 128,-1,20
252.5 108.5 m 128,-1,47
 282 123 282 123 302 147.5 c 128,-1,48
 322 172 322 172 326 200 c 2,49,-1
 333 244 l 1,50,-1
 300 244 l 2,51,52
 142 244 142 244 128 159 c 0,53,54
 123 129 123 129 140 111.5 c 128,-1,55
 157 94 157 94 192 94 c 0,56,46
 223 94 223 94 252.5 108.5 c 128,-1,47
EndSplineSet
EndChar

StartChar: uni1EB3
Encoding: 7859 7859 207
Width: 524
GlyphClass: 2
Flags: W
AnchorPoint: "Anchor-6" 223 942 basechar 0
AnchorPoint: "Anchor-5" 454 0 basechar 0
AnchorPoint: "Anchor-4" 223 0 basechar 0
LayerCount: 2
Fore
SplineSet
402 742 m 1,1,-1
 345 742 l 1,2,3
 363 782 363 782 367 806 c 0,4,5
 370 827 370 827 359 834 c 128,-1,6
 348 841 348 841 315 841 c 0,7,8
 251 841 251 841 185 821 c 1,9,-1
 190 924 l 1,10,11
 266 942 266 942 355 942 c 0,12,13
 419 942 419 942 452 934.5 c 128,-1,14
 485 927 485 927 496.5 908.5 c 128,-1,15
 508 890 508 890 503 855 c 0,16,17
 499 832 499 832 490 804 c 128,-1,18
 481 776 481 776 469 752 c 1,19,-1
 532 752 l 1,20,21
 522 698 522 698 488.5 655.5 c 128,-1,22
 455 613 455 613 404.5 589 c 128,-1,23
 354 565 354 565 295 565 c 256,24,25
 237 565 237 565 194 589 c 128,-1,26
 151 613 151 613 131 655.5 c 128,-1,27
 111 698 111 698 117 752 c 1,28,-1
 243 752 l 1,29,30
 240 666 240 666 311 666 c 0,31,0
 377 666 377 666 402 742 c 1,1,-1
417.5 509.5 m 128,-1,33
 459 489 459 489 473 444 c 128,-1,34
 487 399 487 399 475 323 c 2,35,-1
 424 0 l 1,36,-1
 300 0 l 1,37,-1
 310 66 l 1,38,-1
 308 66 l 1,39,40
 275 29 275 29 231 9.5 c 128,-1,41
 187 -10 187 -10 137 -10 c 0,42,43
 64 -10 64 -10 28 33 c 128,-1,44
 -8 76 -8 76 3 147 c 0,45,46
 17 238 17 238 98 286.5 c 128,-1,47
 179 335 179 335 314 335 c 2,48,-1
 347 335 l 1,49,50
 352 371 352 371 347 389.5 c 128,-1,51
 342 408 342 408 325.5 415.5 c 128,-1,52
 309 423 309 423 275 423 c 0,53,54
 182 423 182 423 87 380 c 1,55,-1
 73 481 l 1,56,57
 179 530 179 530 302 530 c 0,58,32
 376 530 376 530 417.5 509.5 c 128,-1,33
252 108.5 m 128,-1,60
 281 123 281 123 301 147.5 c 128,-1,61
 321 172 321 172 325 200 c 2,62,-1
 332 244 l 1,63,-1
 299 244 l 2,64,65
 141 244 141 244 128 159 c 0,66,67
 123 129 123 129 140 111.5 c 128,-1,68
 157 94 157 94 191 94 c 0,69,59
 223 94 223 94 252 108.5 c 128,-1,60
EndSplineSet
EndChar

StartChar: uni1EA5
Encoding: 7845 7845 210
Width: 529
GlyphClass: 2
Flags: W
AnchorPoint: "Anchor-6" 224 520 basechar 0
AnchorPoint: "Anchor-5" 456 0 basechar 0
AnchorPoint: "Anchor-4" 224 0 basechar 0
LayerCount: 2
Fore
SplineSet
533 740 m 1,0,-1
 449 740 l 1,1,-1
 519 560 l 1,2,-1
 372 560 l 1,3,-1
 320 713 l 1,4,-1
 318 713 l 1,5,-1
 218 560 l 1,6,-1
 71 560 l 1,7,-1
 219 770 l 1,8,-1
 427 770 l 1,9,-1
 522 950 l 1,10,-1
 683 950 l 1,11,-1
 533 740 l 1,0,-1
418.5 509.5 m 128,-1,13
 460 489 460 489 474 444 c 128,-1,14
 488 399 488 399 476 323 c 2,15,-1
 424 0 l 1,16,-1
 301 0 l 1,17,-1
 311 66 l 1,18,-1
 309 66 l 1,19,20
 276 29 276 29 231.5 9.5 c 128,-1,21
 187 -10 187 -10 138 -10 c 0,22,23
 65 -10 65 -10 28.5 33 c 128,-1,24
 -8 76 -8 76 3 147 c 0,25,26
 17 238 17 238 98 286.5 c 128,-1,27
 179 335 179 335 315 335 c 2,28,-1
 348 335 l 1,29,30
 353 371 353 371 348 389.5 c 128,-1,31
 343 408 343 408 326.5 415.5 c 128,-1,32
 310 423 310 423 275 423 c 0,33,34
 182 423 182 423 87 380 c 1,35,-1
 73 481 l 1,36,37
 179 530 179 530 302 530 c 0,38,12
 377 530 377 530 418.5 509.5 c 128,-1,13
252.5 108.5 m 128,-1,40
 282 123 282 123 302 147.5 c 128,-1,41
 322 172 322 172 326 200 c 2,42,-1
 333 244 l 1,43,-1
 300 244 l 2,44,45
 141 244 141 244 128 159 c 0,46,47
 123 129 123 129 140 111.5 c 128,-1,48
 157 94 157 94 192 94 c 0,49,39
 223 94 223 94 252.5 108.5 c 128,-1,40
EndSplineSet
EndChar

StartChar: uni1EA7
Encoding: 7847 7847 212
Width: 529
GlyphClass: 2
Flags: W
AnchorPoint: "Anchor-6" 224 520 basechar 0
AnchorPoint: "Anchor-5" 455 0 basechar 0
AnchorPoint: "Anchor-4" 224 0 basechar 0
LayerCount: 2
Fore
SplineSet
203 740 m 1,0,-1
 117 740 l 1,1,-1
 34 950 l 1,2,-1
 194 950 l 1,3,-1
 233 770 l 1,4,-1
 441 770 l 1,5,-1
 523 560 l 1,6,-1
 376 560 l 1,7,-1
 324 713 l 1,8,-1
 322 713 l 1,9,-1
 222 560 l 1,10,-1
 75 560 l 1,11,-1
 203 740 l 1,0,-1
423 509.5 m 128,-1,13
 465 489 465 489 478.5 444 c 128,-1,14
 492 399 492 399 480 323 c 2,15,-1
 429 0 l 1,16,-1
 305 0 l 1,17,-1
 315 66 l 1,18,-1
 313 66 l 1,19,20
 280 29 280 29 235.5 9.5 c 128,-1,21
 191 -10 191 -10 142 -10 c 0,22,23
 69 -10 69 -10 32.5 33 c 128,-1,24
 -4 76 -4 76 7 147 c 0,25,26
 21 238 21 238 102.5 286.5 c 128,-1,27
 184 335 184 335 319 335 c 2,28,-1
 352 335 l 1,29,30
 357 371 357 371 352 389.5 c 128,-1,31
 347 408 347 408 330.5 415.5 c 128,-1,32
 314 423 314 423 280 423 c 0,33,34
 187 423 187 423 91 380 c 1,35,-1
 77 481 l 1,36,37
 183 530 183 530 307 530 c 0,38,12
 381 530 381 530 423 509.5 c 128,-1,13
256.5 108.5 m 128,-1,40
 286 123 286 123 306 147.5 c 128,-1,41
 326 172 326 172 331 200 c 2,42,-1
 337 244 l 1,43,-1
 304 244 l 2,44,45
 145 244 145 244 132 159 c 0,46,47
 127 129 127 129 144.5 111.5 c 128,-1,48
 162 94 162 94 196 94 c 0,49,39
 227 94 227 94 256.5 108.5 c 128,-1,40
EndSplineSet
EndChar

StartChar: uni1EA9
Encoding: 7849 7849 213
Width: 525
GlyphClass: 2
Flags: W
AnchorPoint: "Anchor-6" 295 938 basechar 0
AnchorPoint: "Anchor-5" 455 0 basechar 0
AnchorPoint: "Anchor-4" 224 0 basechar 0
LayerCount: 2
Fore
SplineSet
449 738 m 1,0,-1
 519 560 l 1,1,-1
 372 560 l 1,2,-1
 320 713 l 1,3,-1
 318 713 l 1,4,-1
 218 560 l 1,5,-1
 71 560 l 1,6,-1
 219 770 l 1,7,-1
 425 770 l 1,8,9
 433 794 433 794 434 802 c 0,10,11
 437 823 437 823 426 830 c 128,-1,12
 415 837 415 837 382 837 c 0,13,14
 317 837 317 837 251 817 c 1,15,-1
 256 920 l 1,16,17
 333 938 333 938 422 938 c 0,18,19
 486 938 486 938 519 930.5 c 128,-1,20
 552 923 552 923 563.5 904.5 c 128,-1,21
 575 886 575 886 570 851 c 0,22,23
 566 826 566 826 555 794.5 c 128,-1,24
 544 763 544 763 531 738 c 1,25,-1
 449 738 l 1,0,-1
418.5 509.5 m 128,-1,27
 460 489 460 489 474 444 c 128,-1,28
 488 399 488 399 476 323 c 2,29,-1
 424 0 l 1,30,-1
 301 0 l 1,31,-1
 311 66 l 1,32,-1
 309 66 l 1,33,34
 276 29 276 29 231.5 9.5 c 128,-1,35
 187 -10 187 -10 138 -10 c 0,36,37
 65 -10 65 -10 28.5 33 c 128,-1,38
 -8 76 -8 76 3 147 c 0,39,40
 17 238 17 238 98 286.5 c 128,-1,41
 179 335 179 335 315 335 c 2,42,-1
 348 335 l 1,43,44
 353 371 353 371 348 389.5 c 128,-1,45
 343 408 343 408 326.5 415.5 c 128,-1,46
 310 423 310 423 275 423 c 0,47,48
 182 423 182 423 87 380 c 1,49,-1
 73 481 l 1,50,51
 179 530 179 530 302 530 c 0,52,26
 377 530 377 530 418.5 509.5 c 128,-1,27
252.5 108.5 m 128,-1,54
 282 123 282 123 302 147.5 c 128,-1,55
 322 172 322 172 326 200 c 2,56,-1
 333 244 l 1,57,-1
 300 244 l 2,58,59
 141 244 141 244 128 159 c 0,60,61
 123 129 123 129 140 111.5 c 128,-1,62
 157 94 157 94 192 94 c 0,63,53
 223 94 223 94 252.5 108.5 c 128,-1,54
EndSplineSet
EndChar

StartChar: aogonek
Encoding: 261 261 222
Width: 527
GlyphClass: 2
Flags: W
AnchorPoint: "Anchor-6" 224 520 basechar 0
AnchorPoint: "Anchor-5" 455 0 basechar 0
AnchorPoint: "Anchor-4" 224 0 basechar 0
LayerCount: 2
Fore
SplineSet
478 -197 m 1,0,1
 426 -218 426 -218 363 -218 c 0,2,3
 282 -218 282 -218 243 -187.5 c 128,-1,4
 204 -157 204 -157 213 -102 c 0,5,6
 218 -68 218 -68 240.5 -36.5 c 128,-1,7
 263 -5 263 -5 305 27 c 1,8,-1
 310 66 l 1,9,-1
 308 66 l 1,10,11
 275 29 275 29 231 9.5 c 128,-1,12
 187 -10 187 -10 138 -10 c 0,13,14
 65 -10 65 -10 28.5 33 c 128,-1,15
 -8 76 -8 76 3 147 c 0,16,17
 17 238 17 238 98 286.5 c 128,-1,18
 179 335 179 335 314 335 c 2,19,-1
 347 335 l 1,20,21
 352 371 352 371 347 389.5 c 128,-1,22
 342 408 342 408 325.5 415.5 c 128,-1,23
 309 423 309 423 275 423 c 0,24,25
 182 423 182 423 87 380 c 1,26,-1
 73 481 l 1,27,28
 179 530 179 530 302 530 c 0,29,30
 376 530 376 530 418 509.5 c 128,-1,31
 460 489 460 489 473.5 444 c 128,-1,32
 487 399 487 399 475 323 c 2,33,-1
 424 0 l 1,34,35
 341 -44 341 -44 335 -81 c 0,36,37
 332 -98 332 -98 346 -106.5 c 128,-1,38
 360 -115 360 -115 389 -115 c 0,39,40
 432 -115 432 -115 479 -96 c 1,41,-1
 478 -197 l 1,0,1
252 108.5 m 128,-1,43
 281 123 281 123 301 147.5 c 128,-1,44
 321 172 321 172 326 200 c 2,45,-1
 333 244 l 1,46,-1
 299 244 l 2,47,48
 141 244 141 244 128 159 c 0,49,50
 123 129 123 129 140 111.5 c 128,-1,51
 157 94 157 94 191 94 c 0,52,42
 223 94 223 94 252 108.5 c 128,-1,43
EndSplineSet
EndChar

StartChar: aring
Encoding: 229 229 223
Width: 524
GlyphClass: 2
Flags: W
AnchorPoint: "Anchor-6" 223 737 basechar 0
AnchorPoint: "Anchor-5" 455 0 basechar 0
AnchorPoint: "Anchor-4" 223 0 basechar 0
LayerCount: 2
Fore
SplineSet
463.5 468 m 128,-1,1
 490 420 490 420 475 323 c 2,2,-1
 424 0 l 1,3,-1
 300 0 l 1,4,-1
 310 66 l 1,5,-1
 308 66 l 1,6,7
 275 29 275 29 231 9.5 c 128,-1,8
 187 -10 187 -10 137 -10 c 0,9,10
 64 -10 64 -10 28 33 c 128,-1,11
 -8 76 -8 76 3 147 c 0,12,13
 17 238 17 238 98 286.5 c 128,-1,14
 179 335 179 335 314 335 c 2,15,-1
 347 335 l 1,16,17
 352 371 352 371 347 389.5 c 128,-1,18
 342 408 342 408 325.5 415.5 c 128,-1,19
 309 423 309 423 275 423 c 0,20,21
 182 423 182 423 87 380 c 1,22,-1
 73 481 l 1,23,24
 144 513 144 513 223 525 c 1,25,26
 189 544 189 544 173 581.5 c 128,-1,27
 157 619 157 619 164 665 c 0,28,29
 171 708 171 708 196.5 744 c 128,-1,30
 222 780 222 780 259 801 c 128,-1,31
 296 822 296 822 336 822 c 0,32,33
 377 822 377 822 407.5 801 c 128,-1,34
 438 780 438 780 452 744 c 128,-1,35
 466 708 466 708 459 665 c 0,36,37
 452 621 452 621 425 584 c 128,-1,38
 398 547 398 547 359 526 c 1,39,0
 437 516 437 516 463.5 468 c 128,-1,1
275 711 m 128,-1,41
 254 692 254 692 249 665 c 256,42,43
 245 638 245 638 260 619 c 128,-1,44
 275 600 275 600 301 600 c 0,45,46
 328 600 328 600 348.5 619 c 128,-1,47
 369 638 369 638 373 665 c 256,48,49
 377 692 377 692 362.5 711 c 128,-1,50
 348 730 348 730 321 730 c 0,51,40
 296 730 296 730 275 711 c 128,-1,41
252 108.5 m 128,-1,53
 281 123 281 123 301 147.5 c 128,-1,54
 321 172 321 172 326 200 c 2,55,-1
 333 244 l 1,56,-1
 299 244 l 2,57,58
 141 244 141 244 128 159 c 0,59,60
 123 129 123 129 140 111.5 c 128,-1,61
 157 94 157 94 191 94 c 0,62,52
 223 94 223 94 252 108.5 c 128,-1,53
EndSplineSet
EndChar

StartChar: aringacute
Encoding: 507 507 224
Width: 524
GlyphClass: 2
Flags: W
AnchorPoint: "Anchor-6" 223 737 basechar 0
AnchorPoint: "Anchor-5" 455 0 basechar 0
AnchorPoint: "Anchor-4" 223 0 basechar 0
LayerCount: 2
Fore
SplineSet
463.5 468 m 128,-1,1
 490 420 490 420 475 323 c 2,2,-1
 424 0 l 1,3,-1
 300 0 l 1,4,-1
 310 66 l 1,5,-1
 308 66 l 1,6,7
 275 29 275 29 231 9.5 c 128,-1,8
 187 -10 187 -10 137 -10 c 0,9,10
 64 -10 64 -10 28 33 c 128,-1,11
 -8 76 -8 76 3 147 c 0,12,13
 17 238 17 238 98 286.5 c 128,-1,14
 179 335 179 335 314 335 c 2,15,-1
 347 335 l 1,16,17
 352 371 352 371 347 389.5 c 128,-1,18
 342 408 342 408 325.5 415.5 c 128,-1,19
 309 423 309 423 275 423 c 0,20,21
 182 423 182 423 87 380 c 1,22,-1
 73 481 l 1,23,24
 144 513 144 513 223 525 c 1,25,26
 189 544 189 544 173 581.5 c 128,-1,27
 157 619 157 619 164 665 c 0,28,29
 170 700 170 700 188 731 c 128,-1,30
 206 762 206 762 233 783 c 1,31,-1
 341 987 l 1,32,-1
 502 987 l 1,33,-1
 380 815 l 1,34,35
 424 800 424 800 446 759 c 128,-1,36
 468 718 468 718 459 665 c 0,37,38
 452 621 452 621 425 584 c 128,-1,39
 398 547 398 547 359 526 c 1,40,0
 437 516 437 516 463.5 468 c 128,-1,1
348 619 m 128,-1,42
 369 638 369 638 373 665 c 256,43,44
 377 692 377 692 362.5 711 c 128,-1,45
 348 730 348 730 321 730 c 0,46,47
 295 730 295 730 274.5 711 c 128,-1,48
 254 692 254 692 249 665 c 256,49,50
 245 638 245 638 260 619 c 128,-1,51
 275 600 275 600 301 600 c 256,52,41
 327 600 327 600 348 619 c 128,-1,42
252 108.5 m 128,-1,54
 281 123 281 123 301 147.5 c 128,-1,55
 321 172 321 172 326 200 c 2,56,-1
 333 244 l 1,57,-1
 299 244 l 2,58,59
 141 244 141 244 128 159 c 0,60,61
 123 129 123 129 140 111.5 c 128,-1,62
 157 94 157 94 191 94 c 0,63,53
 223 94 223 94 252 108.5 c 128,-1,54
EndSplineSet
EndChar

StartChar: ae
Encoding: 230 230 226
Width: 842
GlyphClass: 2
Flags: W
AnchorPoint: "Anchor-6" 404 520 basechar 0
AnchorPoint: "Anchor-4" 404 0 basechar 0
LayerCount: 2
Fore
SplineSet
800 210 m 1,1,-1
 455 210 l 1,2,3
 451 151 451 151 482 123 c 128,-1,4
 513 95 513 95 581 95 c 0,5,6
 619 95 619 95 658 103 c 128,-1,7
 697 111 697 111 730 126 c 1,8,-1
 738 27 l 1,9,10
 698 10 698 10 651 0 c 128,-1,11
 604 -10 604 -10 557 -10 c 0,12,13
 425 -10 425 -10 368 65 c 1,14,15
 291 -10 291 -10 168 -10 c 0,16,17
 76 -10 76 -10 33.5 30.5 c 128,-1,18
 -9 71 -9 71 3 147 c 0,19,20
 17 238 17 238 98 286.5 c 128,-1,21
 179 335 179 335 315 335 c 2,22,-1
 348 335 l 1,23,24
 353 371 353 371 348 389.5 c 128,-1,25
 343 408 343 408 326.5 415.5 c 128,-1,26
 310 423 310 423 275 423 c 0,27,28
 182 423 182 423 87 380 c 1,29,-1
 73 481 l 1,30,31
 179 530 179 530 303 530 c 0,32,33
 361 530 361 530 398 517.5 c 128,-1,34
 435 505 435 505 454 478 c 1,35,36
 523 530 523 530 620 530 c 0,37,38
 732 530 732 530 781 461 c 128,-1,39
 830 392 830 392 810 263 c 0,40,0
 806 234 806 234 800 210 c 1,1,-1
518.5 399.5 m 128,-1,42
 486 369 486 369 470 305 c 1,43,-1
 694 305 l 1,44,45
 700 370 700 370 678 400 c 128,-1,46
 656 430 656 430 604 430 c 256,47,41
 551 430 551 430 518.5 399.5 c 128,-1,42
252.5 108.5 m 128,-1,49
 282 123 282 123 302 147.5 c 128,-1,50
 322 172 322 172 326 200 c 2,51,-1
 333 244 l 1,52,-1
 300 244 l 2,53,54
 141 244 141 244 128 159 c 0,55,56
 123 129 123 129 140 111.5 c 128,-1,57
 157 94 157 94 192 94 c 0,58,48
 223 94 223 94 252.5 108.5 c 128,-1,49
EndSplineSet
EndChar

StartChar: b
Encoding: 98 98 228
Width: 571
Flags: W
LayerCount: 2
Fore
SplineSet
517 460.5 m 128,-1,1
 555 391 555 391 534 260 c 256,2,3
 513 129 513 129 453.5 59.5 c 128,-1,4
 394 -10 394 -10 302 -10 c 0,5,6
 254 -10 254 -10 215.5 10 c 128,-1,7
 177 30 177 30 153 67 c 1,8,-1
 152 67 l 1,9,-1
 139 0 l 1,10,-1
 17 0 l 1,11,-1
 136 750 l 1,12,-1
 264 750 l 1,13,-1
 217 453 l 1,14,-1
 219 453 l 1,15,16
 253 491 253 491 296 510.5 c 128,-1,17
 339 530 339 530 388 530 c 0,18,0
 479 530 479 530 517 460.5 c 128,-1,1
360 142.5 m 128,-1,20
 394 185 394 185 406 260 c 256,21,22
 418 335 418 335 397.5 377.5 c 128,-1,23
 377 420 377 420 327 420 c 256,24,25
 278 420 278 420 239 380 c 128,-1,26
 200 340 200 340 190 279 c 2,27,-1
 184 241 l 2,28,29
 174 180 174 180 200.5 140 c 128,-1,30
 227 100 227 100 276 100 c 256,31,19
 326 100 326 100 360 142.5 c 128,-1,20
EndSplineSet
EndChar

StartChar: c
Encoding: 99 99 229
Width: 505
GlyphClass: 2
Flags: W
AnchorPoint: "Anchor-6" 242 520 basechar 0
AnchorPoint: "Anchor-4" 242 0 basechar 0
LayerCount: 2
Fore
SplineSet
65.5 60.5 m 128,-1,1
 7 131 7 131 27 260 c 256,2,3
 47 389 47 389 128 459.5 c 128,-1,4
 209 530 209 530 336 530 c 0,5,6
 426 530 426 530 490 491 c 1,7,-1
 440 393 l 1,8,9
 384 423 384 423 326 423 c 0,10,11
 257 423 257 423 213.5 381.5 c 128,-1,12
 170 340 170 340 158 260 c 256,13,14
 145 180 145 180 175 138.5 c 128,-1,15
 205 97 205 97 274 97 c 0,16,17
 332 97 332 97 398 127 c 1,18,-1
 417 29 l 1,19,20
 341 -10 341 -10 250 -10 c 0,21,0
 124 -10 124 -10 65.5 60.5 c 128,-1,1
EndSplineSet
EndChar

StartChar: ccedilla
Encoding: 231 231 232
Width: 504
GlyphClass: 2
Flags: W
AnchorPoint: "Anchor-6" 242 520 basechar 0
AnchorPoint: "Anchor-4" 242 0 basechar 0
LayerCount: 2
Fore
SplineSet
415 29 m 1,0,1
 373 8 373 8 331 -1 c 1,2,3
 365 -51 365 -51 358 -102 c 0,4,5
 349 -157 349 -157 300 -187.5 c 128,-1,6
 251 -218 251 -218 170 -218 c 0,7,8
 108 -218 108 -218 62 -197 c 1,9,-1
 93 -96 l 1,10,11
 134 -115 134 -115 177 -115 c 0,12,13
 206 -115 206 -115 223 -106.5 c 128,-1,14
 240 -98 240 -98 242 -81 c 0,15,16
 248 -45 248 -45 185 -5 c 1,17,18
 91 12 91 12 50.5 80.5 c 128,-1,19
 10 149 10 149 27 260 c 0,20,21
 47 389 47 389 128 459.5 c 128,-1,22
 209 530 209 530 335 530 c 0,23,24
 425 530 425 530 489 491 c 1,25,-1
 439 393 l 1,26,27
 383 423 383 423 325 423 c 0,28,29
 256 423 256 423 213 381.5 c 128,-1,30
 170 340 170 340 158 260 c 256,31,32
 145 180 145 180 175 138.5 c 128,-1,33
 205 97 205 97 274 97 c 0,34,35
 332 97 332 97 397 127 c 1,36,-1
 415 29 l 1,0,1
EndSplineSet
EndChar

StartChar: d
Encoding: 100 100 235
Width: 572
Flags: W
LayerCount: 2
Fore
SplineSet
584 750 m 1,0,-1
 466 0 l 1,1,-1
 343 0 l 1,2,-1
 352 67 l 1,3,-1
 350 67 l 1,4,5
 314 29 314 29 269.5 9.5 c 128,-1,6
 225 -10 225 -10 176 -10 c 0,7,8
 85 -10 85 -10 47.5 60 c 128,-1,9
 10 130 10 130 31 260 c 256,10,11
 52 390 52 390 111.5 460 c 128,-1,12
 171 530 171 530 262 530 c 0,13,14
 310 530 310 530 346.5 510.5 c 128,-1,15
 383 491 383 491 406 453 c 1,16,-1
 408 453 l 1,17,-1
 455 750 l 1,18,-1
 584 750 l 1,0,-1
325 140 m 128,-1,20
 364 180 364 180 374 241 c 2,21,-1
 380 279 l 2,22,23
 390 340 390 340 363.5 380 c 128,-1,24
 337 420 337 420 287 420 c 0,25,26
 239 420 239 420 204.5 377.5 c 128,-1,27
 170 335 170 335 159 260 c 256,28,29
 147 185 147 185 167.5 142.5 c 128,-1,30
 188 100 188 100 237 100 c 256,31,19
 286 100 286 100 325 140 c 128,-1,20
EndSplineSet
EndChar

StartChar: eth
Encoding: 240 240 236
Width: 566
Flags: W
LayerCount: 2
Fore
SplineSet
481 616 m 1,0,1
 517 548 517 548 528 460.5 c 128,-1,2
 539 373 539 373 523 269 c 0,3,4
 501 132 501 132 427 61 c 128,-1,5
 353 -10 353 -10 232 -10 c 0,6,7
 116 -10 116 -10 61 58 c 128,-1,8
 6 126 6 126 25 245 c 0,9,10
 43 356 43 356 113 418 c 128,-1,11
 183 480 183 480 291 480 c 0,12,13
 364 480 364 480 400 446 c 1,14,-1
 402 447 l 1,15,16
 397 517 397 517 363 570 c 1,17,-1
 142 483 l 1,18,-1
 119 582 l 1,19,-1
 284 647 l 1,20,21
 231 680 231 680 163 687 c 1,22,-1
 205 790 l 1,23,24
 333 777 333 777 416 699 c 1,25,-1
 562 757 l 1,26,-1
 586 658 l 1,27,-1
 481 616 l 1,0,1
342.5 133.5 m 128,-1,29
 379 172 379 172 391 245 c 0,30,31
 402 316 402 316 378 350.5 c 128,-1,32
 354 385 354 385 294 385 c 256,33,34
 234 385 234 385 199.5 350.5 c 128,-1,35
 165 316 165 316 154 245 c 0,36,37
 142 172 142 172 166.5 133.5 c 128,-1,38
 191 95 191 95 248 95 c 0,39,28
 306 95 306 95 342.5 133.5 c 128,-1,29
EndSplineSet
EndChar

StartChar: dcroat
Encoding: 273 273 238
Width: 635
Flags: W
LayerCount: 2
Fore
SplineSet
657 572 m 1,0,-1
 556 572 l 1,1,-1
 466 0 l 1,2,-1
 343 0 l 1,3,-1
 352 67 l 1,4,-1
 350 67 l 1,5,6
 314 29 314 29 269.5 9.5 c 128,-1,7
 225 -10 225 -10 176 -10 c 0,8,9
 85 -10 85 -10 47.5 60 c 128,-1,10
 10 130 10 130 31 260 c 256,11,12
 52 390 52 390 111.5 460 c 128,-1,13
 171 530 171 530 262 530 c 0,14,15
 310 530 310 530 346.5 510.5 c 128,-1,16
 383 491 383 491 406 453 c 1,17,-1
 408 453 l 1,18,-1
 427 572 l 1,19,-1
 259 572 l 1,20,-1
 276 678 l 1,21,-1
 443 678 l 1,22,-1
 455 750 l 1,23,-1
 584 750 l 1,24,-1
 573 678 l 1,25,-1
 674 678 l 1,26,-1
 657 572 l 1,0,-1
325 140 m 128,-1,28
 364 180 364 180 374 241 c 2,29,-1
 380 279 l 2,30,31
 390 340 390 340 363.5 380 c 128,-1,32
 337 420 337 420 287 420 c 0,33,34
 239 420 239 420 204.5 377.5 c 128,-1,35
 170 335 170 335 159 260 c 256,36,37
 147 185 147 185 167.5 142.5 c 128,-1,38
 188 100 188 100 237 100 c 256,39,27
 286 100 286 100 325 140 c 128,-1,28
EndSplineSet
EndChar

StartChar: e
Encoding: 101 101 240
Width: 534
GlyphClass: 2
Flags: W
AnchorPoint: "Anchor-6" 245 520 basechar 0
AnchorPoint: "Anchor-5" 460 24 basechar 0
AnchorPoint: "Anchor-4" 245 0 basechar 0
LayerCount: 2
Fore
SplineSet
491 210 m 1,1,-1
 147 210 l 1,2,3
 143 151 143 151 176 123 c 128,-1,4
 209 95 209 95 281 95 c 0,5,6
 354 95 354 95 424 122 c 1,7,-1
 432 22 l 1,8,9
 395 7 395 7 349 -1.5 c 128,-1,10
 303 -10 303 -10 257 -10 c 0,11,12
 125 -10 125 -10 66 60 c 128,-1,13
 7 130 7 130 27 260 c 0,14,15
 47 387 47 387 122.5 458.5 c 128,-1,16
 198 530 198 530 311 530 c 256,17,18
 424 530 424 530 473.5 461 c 128,-1,19
 523 392 523 392 502 263 c 0,20,0
 500 246 500 246 491 210 c 1,1,-1
210.5 399.5 m 128,-1,22
 178 369 178 369 162 305 c 1,23,-1
 386 305 l 1,24,25
 391 369 391 369 369 399.5 c 128,-1,26
 347 430 347 430 295 430 c 256,27,21
 243 430 243 430 210.5 399.5 c 128,-1,22
EndSplineSet
EndChar

StartChar: uni1EBF
Encoding: 7871 7871 245
Width: 538
GlyphClass: 2
Flags: W
AnchorPoint: "Anchor-6" 245 520 basechar 0
AnchorPoint: "Anchor-5" 460 24 basechar 0
AnchorPoint: "Anchor-4" 245 0 basechar 0
LayerCount: 2
Fore
SplineSet
338 713 m 1,0,-1
 238 560 l 1,1,-1
 91 560 l 1,2,-1
 239 770 l 1,3,-1
 448 770 l 1,4,-1
 544 950 l 1,5,-1
 705 950 l 1,6,-1
 555 740 l 1,7,-1
 468 740 l 1,8,-1
 540 560 l 1,9,-1
 392 560 l 1,10,-1
 340 713 l 1,11,-1
 338 713 l 1,0,-1
473.5 461 m 128,-1,13
 523 392 523 392 502 263 c 0,14,15
 499 246 499 246 491 210 c 1,16,-1
 147 210 l 1,17,18
 143 151 143 151 176 123 c 128,-1,19
 209 95 209 95 281 95 c 0,20,21
 354 95 354 95 424 122 c 1,22,-1
 432 22 l 1,23,24
 395 7 395 7 349 -1.5 c 128,-1,25
 303 -10 303 -10 257 -10 c 0,26,27
 125 -10 125 -10 66 60 c 128,-1,28
 7 130 7 130 27 260 c 0,29,30
 47 387 47 387 122.5 458.5 c 128,-1,31
 198 530 198 530 311 530 c 256,32,12
 424 530 424 530 473.5 461 c 128,-1,13
210.5 399.5 m 128,-1,34
 178 369 178 369 162 305 c 1,35,-1
 386 305 l 1,36,37
 391 369 391 369 369 399.5 c 128,-1,38
 347 430 347 430 295 430 c 256,39,33
 243 430 243 430 210.5 399.5 c 128,-1,34
EndSplineSet
EndChar

StartChar: uni1EC1
Encoding: 7873 7873 247
Width: 538
GlyphClass: 2
Flags: W
AnchorPoint: "Anchor-6" 245 520 basechar 0
AnchorPoint: "Anchor-5" 460 24 basechar 0
AnchorPoint: "Anchor-4" 245 0 basechar 0
LayerCount: 2
Fore
SplineSet
222 740 m 1,0,-1
 136 740 l 1,1,-1
 53 950 l 1,2,-1
 213 950 l 1,3,-1
 252 770 l 1,4,-1
 460 770 l 1,5,-1
 543 560 l 1,6,-1
 395 560 l 1,7,-1
 343 713 l 1,8,-1
 342 713 l 1,9,-1
 241 560 l 1,10,-1
 94 560 l 1,11,-1
 222 740 l 1,0,-1
495 210 m 1,13,-1
 151 210 l 1,14,15
 147 151 147 151 179.5 123 c 128,-1,16
 212 95 212 95 285 95 c 256,17,18
 358 95 358 95 427 122 c 1,19,-1
 435 22 l 1,20,21
 398 7 398 7 352 -1.5 c 128,-1,22
 306 -10 306 -10 261 -10 c 0,23,24
 129 -10 129 -10 69.5 60 c 128,-1,25
 10 130 10 130 31 260 c 0,26,27
 51 387 51 387 126 458.5 c 128,-1,28
 201 530 201 530 315 530 c 0,29,30
 428 530 428 530 477 461 c 128,-1,31
 526 392 526 392 506 263 c 0,32,12
 504 246 504 246 495 210 c 1,13,-1
214 399.5 m 128,-1,34
 182 369 182 369 166 305 c 1,35,-1
 390 305 l 1,36,37
 395 369 395 369 373 399.5 c 128,-1,38
 351 430 351 430 299 430 c 256,39,33
 246 430 246 430 214 399.5 c 128,-1,34
EndSplineSet
EndChar

StartChar: uni1EC3
Encoding: 7875 7875 248
Width: 533
GlyphClass: 2
Flags: W
AnchorPoint: "Anchor-6" 316 938 basechar 0
AnchorPoint: "Anchor-5" 459 24 basechar 0
AnchorPoint: "Anchor-4" 245 0 basechar 0
LayerCount: 2
Fore
SplineSet
238 560 m 1,0,-1
 91 560 l 1,1,-1
 239 770 l 1,2,-1
 445 770 l 1,3,4
 453 794 453 794 454 802 c 0,5,6
 457 823 457 823 445.5 830 c 128,-1,7
 434 837 434 837 401 837 c 0,8,9
 336 837 336 837 271 817 c 1,10,-1
 276 920 l 1,11,12
 353 938 353 938 441 938 c 0,13,14
 505 938 505 938 538 930.5 c 128,-1,15
 571 923 571 923 583 904.5 c 128,-1,16
 595 886 595 886 589 851 c 0,17,18
 585 826 585 826 574.5 794.5 c 128,-1,19
 564 763 564 763 551 738 c 1,20,-1
 469 738 l 1,21,-1
 538 560 l 1,22,-1
 392 560 l 1,23,-1
 340 713 l 1,24,-1
 338 713 l 1,25,-1
 238 560 l 1,0,-1
490 210 m 1,27,-1
 147 210 l 1,28,29
 143 151 143 151 175.5 123 c 128,-1,30
 208 95 208 95 280 95 c 0,31,32
 353 95 353 95 423 122 c 1,33,-1
 431 22 l 1,34,35
 394 7 394 7 348 -1.5 c 128,-1,36
 302 -10 302 -10 256 -10 c 0,37,38
 125 -10 125 -10 66 60 c 128,-1,39
 7 130 7 130 27 260 c 0,40,41
 47 387 47 387 122 458.5 c 128,-1,42
 197 530 197 530 310 530 c 256,43,44
 423 530 423 530 472 461 c 128,-1,45
 521 392 521 392 501 263 c 0,46,26
 499 246 499 246 490 210 c 1,27,-1
210.5 399.5 m 128,-1,48
 178 369 178 369 162 305 c 1,49,-1
 386 305 l 1,50,51
 391 369 391 369 369 399.5 c 128,-1,52
 347 430 347 430 295 430 c 256,53,47
 243 430 243 430 210.5 399.5 c 128,-1,48
EndSplineSet
EndChar

StartChar: eogonek
Encoding: 281 281 258
Width: 535
GlyphClass: 2
Flags: W
AnchorPoint: "Anchor-6" 245 520 basechar 0
AnchorPoint: "Anchor-5" 459 24 basechar 0
AnchorPoint: "Anchor-4" 245 0 basechar 0
LayerCount: 2
Fore
SplineSet
485 -173 m 1,0,1
 432 -194 432 -194 370 -194 c 0,2,3
 289 -194 289 -194 250 -163.5 c 128,-1,4
 211 -133 211 -133 219 -78 c 0,5,6
 224 -44 224 -44 249 -10 c 1,7,8
 122 -8 122 -8 64.5 62 c 128,-1,9
 7 132 7 132 27 260 c 0,10,11
 47 387 47 387 122 458.5 c 128,-1,12
 197 530 197 530 310 530 c 256,13,14
 423 530 423 530 472 461 c 128,-1,15
 521 392 521 392 501 263 c 0,16,17
 498 246 498 246 490 210 c 1,18,-1
 147 210 l 1,19,20
 143 151 143 151 175.5 123 c 128,-1,21
 208 95 208 95 280 95 c 0,22,23
 353 95 353 95 423 122 c 1,24,-1
 430 24 l 1,25,-1
 431 24 l 1,26,-1
 430 22 l 1,27,28
 426 20 426 20 418 18 c 0,29,30
 346 -23 346 -23 341 -57 c 0,31,32
 338 -74 338 -74 352 -82.5 c 128,-1,33
 366 -91 366 -91 395 -91 c 0,34,35
 439 -91 439 -91 486 -72 c 1,36,-1
 485 -173 l 1,0,1
210 399.5 m 128,-1,38
 178 369 178 369 162 305 c 1,39,-1
 385 305 l 1,40,41
 390 369 390 369 368 399.5 c 128,-1,42
 346 430 346 430 294 430 c 256,43,37
 242 430 242 430 210 399.5 c 128,-1,38
EndSplineSet
EndChar

StartChar: uni0259
Encoding: 601 601 260
Width: 534
GlyphClass: 2
Flags: W
AnchorPoint: "Anchor-6" 237 520 basechar 0
AnchorPoint: "Anchor-5" 22 496 basechar 0
AnchorPoint: "Anchor-4" 237 0 basechar 0
LayerCount: 2
Fore
SplineSet
461 460 m 128,-1,1
 520 390 520 390 500 260 c 0,2,3
 480 133 480 133 404.5 61.5 c 128,-1,4
 329 -10 329 -10 216 -10 c 256,5,6
 103 -10 103 -10 53.5 59 c 128,-1,7
 4 128 4 128 25 257 c 0,8,9
 28 274 28 274 36 310 c 1,10,-1
 380 310 l 1,11,12
 384 369 384 369 351 397 c 128,-1,13
 318 425 318 425 246 425 c 0,14,15
 173 425 173 425 103 398 c 1,16,-1
 95 498 l 1,17,18
 132 513 132 513 178 521.5 c 128,-1,19
 224 530 224 530 270 530 c 0,20,0
 402 530 402 530 461 460 c 128,-1,1
316.5 120.5 m 128,-1,22
 349 151 349 151 365 215 c 1,23,-1
 141 215 l 1,24,25
 136 151 136 151 158 120.5 c 128,-1,26
 180 90 180 90 232 90 c 256,27,21
 284 90 284 90 316.5 120.5 c 128,-1,22
EndSplineSet
EndChar

StartChar: f
Encoding: 102 102 261
Width: 449
Flags: W
LayerCount: 2
Fore
SplineSet
40 413 m 1,0,-1
 56 520 l 1,1,-1
 181 520 l 1,2,-1
 188 563 l 2,3,4
 219 760 219 760 393 760 c 0,5,6
 445 760 445 760 504 745 c 1,7,-1
 469 640 l 1,8,9
 429 653 429 653 397 653 c 0,10,11
 360 653 360 653 343.5 634 c 128,-1,12
 327 615 327 615 318 563 c 2,13,-1
 312 520 l 1,14,-1
 461 520 l 1,15,-1
 444 413 l 1,16,-1
 295 413 l 1,17,-1
 229 0 l 1,18,-1
 99 0 l 1,19,-1
 164 413 l 1,20,-1
 40 413 l 1,0,-1
EndSplineSet
EndChar

StartChar: g
Encoding: 103 103 262
Width: 571
GlyphClass: 2
Flags: W
AnchorPoint: "Anchor-6" 260 520 basechar 0
AnchorPoint: "Anchor-4" 260 -140 basechar 0
LayerCount: 2
Fore
SplineSet
548 520 m 1,0,-1
 474 50 l 2,1,2
 452 -86 452 -86 373 -158 c 128,-1,3
 294 -230 294 -230 167 -230 c 0,4,5
 70 -230 70 -230 -26 -189 c 1,6,-1
 16 -91 l 1,7,8
 99 -123 99 -123 166 -123 c 0,9,10
 243 -123 243 -123 286.5 -80.5 c 128,-1,11
 330 -38 330 -38 344 50 c 2,12,-1
 347 67 l 1,13,-1
 345 67 l 1,14,15
 312 29 312 29 269 9.5 c 128,-1,16
 226 -10 226 -10 177 -10 c 0,17,18
 85 -10 85 -10 47.5 59.5 c 128,-1,19
 10 129 10 129 31 260 c 256,20,21
 52 391 52 391 111.5 460.5 c 128,-1,22
 171 530 171 530 263 530 c 0,23,24
 311 530 311 530 349 510.5 c 128,-1,25
 387 491 387 491 411 453 c 1,26,-1
 413 453 l 1,27,-1
 425 520 l 1,28,-1
 548 520 l 1,0,-1
325 140 m 128,-1,30
 364 180 364 180 374 241 c 2,31,-1
 380 279 l 2,32,33
 390 340 390 340 363.5 380 c 128,-1,34
 337 420 337 420 287 420 c 0,35,36
 239 420 239 420 204.5 377.5 c 128,-1,37
 170 335 170 335 159 260 c 256,38,39
 147 185 147 185 167.5 142.5 c 128,-1,40
 188 100 188 100 237 100 c 256,41,29
 286 100 286 100 325 140 c 128,-1,30
EndSplineSet
EndChar

StartChar: h
Encoding: 104 104 268
Width: 570
GlyphClass: 2
Flags: W
AnchorPoint: "Anchor-6" 254 750 basechar 0
AnchorPoint: "Anchor-4" 254 0 basechar 0
LayerCount: 2
Fore
SplineSet
507.5 479.5 m 128,-1,1
 538 429 538 429 521 320 c 2,2,-1
 470 0 l 1,3,-1
 340 0 l 1,4,-1
 387 293 l 2,5,6
 397 357 397 357 384.5 387 c 128,-1,7
 372 417 372 417 334 417 c 0,8,9
 303 417 303 417 271.5 397.5 c 128,-1,10
 240 378 240 378 217.5 345.5 c 128,-1,11
 195 313 195 313 190 277 c 2,12,-1
 146 0 l 1,13,-1
 17 0 l 1,14,-1
 136 750 l 1,15,-1
 264 750 l 1,16,-1
 217 449 l 1,17,-1
 219 449 l 1,18,19
 291 530 291 530 396 530 c 0,20,0
 477 530 477 530 507.5 479.5 c 128,-1,1
EndSplineSet
EndChar

StartChar: hbar
Encoding: 295 295 269
Width: 633
GlyphClass: 2
Flags: W
AnchorPoint: "Anchor-6" 318 750 basechar 0
AnchorPoint: "Anchor-4" 318 0 basechar 0
LayerCount: 2
Fore
SplineSet
571 479.5 m 128,-1,1
 601 429 601 429 583 320 c 2,2,-1
 533 0 l 1,3,-1
 404 0 l 1,4,-1
 450 293 l 2,5,6
 460 357 460 357 447.5 387 c 128,-1,7
 435 417 435 417 398 417 c 0,8,9
 367 417 367 417 335 397.5 c 128,-1,10
 303 378 303 378 281 345.5 c 128,-1,11
 259 313 259 313 253 277 c 2,12,-1
 209 0 l 1,13,-1
 79 0 l 1,14,-1
 170 572 l 1,15,-1
 69 572 l 1,16,-1
 86 678 l 1,17,-1
 187 678 l 1,18,-1
 198 750 l 1,19,-1
 328 750 l 1,20,-1
 316 678 l 1,21,-1
 484 678 l 1,22,-1
 467 572 l 1,23,-1
 300 572 l 1,24,-1
 280 449 l 1,25,-1
 282 449 l 1,26,27
 354 530 354 530 460 530 c 0,28,0
 541 530 541 530 571 479.5 c 128,-1,1
EndSplineSet
EndChar

StartChar: i
Encoding: 105 105 271
Width: 267
GlyphClass: 2
Flags: W
AnchorPoint: "Anchor-6" 99 520 basechar 0
AnchorPoint: "Anchor-5" 169 0 basechar 0
AnchorPoint: "Anchor-4" 99 0 basechar 0
LayerCount: 2
Fore
SplineSet
140 743 m 1,0,-1
 272 743 l 1,1,-1
 252 617 l 1,2,-1
 120 617 l 1,3,-1
 140 743 l 1,0,-1
105 520 m 1,4,-1
 236 520 l 1,5,-1
 154 0 l 1,6,-1
 22 0 l 1,7,-1
 105 520 l 1,4,-1
EndSplineSet
Substitution2: "Single Substitution lookup 19 subtable" dotlessi
Substitution2: "'locl' Localized Forms in Latin lookup 3 subtable" i.loclTRK
Substitution2: "'aalt' Access All Alternates in Latin lookup 0 subtable" i.loclTRK
EndChar

StartChar: dotlessi
Encoding: 305 305 272
Width: 267
GlyphClass: 2
Flags: W
AnchorPoint: "Anchor-6" 99 520 basechar 0
AnchorPoint: "Anchor-5" 169 0 basechar 0
AnchorPoint: "Anchor-4" 99 0 basechar 0
LayerCount: 2
Fore
SplineSet
105 520 m 1,0,-1
 236 520 l 1,1,-1
 154 0 l 1,2,-1
 22 0 l 1,3,-1
 105 520 l 1,0,-1
EndSplineSet
EndChar

StartChar: iogonek
Encoding: 303 303 284
Width: 272
GlyphClass: 2
Flags: W
AnchorPoint: "Anchor-6" 99 739 basechar 0
AnchorPoint: "Anchor-5" 169 0 basechar 0
AnchorPoint: "Anchor-4" 99 0 basechar 0
LayerCount: 2
Fore
SplineSet
277 739 m 1,0,-1
 253 591 l 1,1,-1
 114 591 l 1,2,-1
 138 739 l 1,3,-1
 277 739 l 1,0,-1
210 -197 m 1,4,5
 158 -218 158 -218 96 -218 c 0,6,7
 15 -218 15 -218 -24 -187.5 c 128,-1,8
 -63 -157 -63 -157 -55 -102 c 0,9,10
 -45 -40 -45 -40 28 20 c 1,11,-1
 107 520 l 1,12,-1
 238 520 l 1,13,-1
 156 0 l 1,14,15
 73 -44 73 -44 67 -81 c 0,16,17
 64 -98 64 -98 78 -106.5 c 128,-1,18
 92 -115 92 -115 121 -115 c 0,19,20
 164 -115 164 -115 211 -96 c 1,21,-1
 210 -197 l 1,4,5
EndSplineSet
EndChar

StartChar: j
Encoding: 106 106 286
Width: 323
GlyphClass: 2
Flags: W
AnchorPoint: "Anchor-6" 127 520 basechar 0
AnchorPoint: "Anchor-4" 127 -140 basechar 0
LayerCount: 2
Fore
SplineSet
197 743 m 1,0,-1
 328 743 l 1,1,-1
 308 617 l 1,2,-1
 177 617 l 1,3,-1
 197 743 l 1,0,-1
-1 -111.5 m 128,-1,5
 38 -101 38 -101 55.5 -71 c 128,-1,6
 73 -41 73 -41 83 27 c 2,7,-1
 162 520 l 1,8,-1
 293 520 l 1,9,-1
 215 27 l 2,10,11
 199 -75 199 -75 163 -129.5 c 128,-1,12
 127 -184 127 -184 58 -207 c 128,-1,13
 -11 -230 -11 -230 -133 -230 c 1,14,-1
 -123 -122 l 1,15,4
 -40 -122 -40 -122 -1 -111.5 c 128,-1,5
EndSplineSet
Substitution2: "Single Substitution lookup 19 subtable" uni0237
EndChar

StartChar: uni0237
Encoding: 567 567 287
Width: 323
GlyphClass: 2
Flags: W
AnchorPoint: "Anchor-6" 127 520 basechar 0
AnchorPoint: "Anchor-4" 127 -140 basechar 0
LayerCount: 2
Fore
SplineSet
-1 -111.5 m 128,-1,1
 38 -101 38 -101 55.5 -71 c 128,-1,2
 73 -41 73 -41 83 27 c 2,3,-1
 162 520 l 1,4,-1
 293 520 l 1,5,-1
 215 27 l 2,6,7
 199 -75 199 -75 163 -129.5 c 128,-1,8
 127 -184 127 -184 58 -207 c 128,-1,9
 -11 -230 -11 -230 -133 -230 c 1,10,-1
 -123 -122 l 1,11,0
 -40 -122 -40 -122 -1 -111.5 c 128,-1,1
EndSplineSet
EndChar

StartChar: k
Encoding: 107 107 289
Width: 557
GlyphClass: 2
Flags: W
AnchorPoint: "Anchor-6" 230 750 basechar 0
AnchorPoint: "Anchor-4" 230 0 basechar 0
LayerCount: 2
Fore
SplineSet
136 750 m 1,0,-1
 264 750 l 1,1,-1
 195 312 l 1,2,-1
 197 312 l 1,3,-1
 409 520 l 1,4,-1
 568 520 l 1,5,-1
 300 270 l 1,6,-1
 493 0 l 1,7,-1
 334 0 l 1,8,-1
 184 228 l 1,9,-1
 182 228 l 1,10,-1
 146 0 l 1,11,-1
 17 0 l 1,12,-1
 136 750 l 1,0,-1
EndSplineSet
EndChar

StartChar: kgreenlandic
Encoding: 312 312 291
Width: 557
GlyphClass: 2
Flags: W
AnchorPoint: "Anchor-6" 230 520 basechar 0
AnchorPoint: "Anchor-4" 230 0 basechar 0
LayerCount: 2
Fore
SplineSet
99 520 m 1,0,-1
 228 520 l 1,1,-1
 195 312 l 1,2,-1
 197 312 l 1,3,-1
 409 520 l 1,4,-1
 568 520 l 1,5,-1
 300 270 l 1,6,-1
 493 0 l 1,7,-1
 334 0 l 1,8,-1
 184 228 l 1,9,-1
 182 228 l 1,10,-1
 146 0 l 1,11,-1
 17 0 l 1,12,-1
 99 520 l 1,0,-1
EndSplineSet
EndChar

StartChar: l
Encoding: 108 108 292
Width: 351
GlyphClass: 2
Flags: W
LayerCount: 2
Fore
SplineSet
141 750 m 1,0,-1
 271 750 l 1,1,-1
 183 190 l 2,2,3
 172 128 172 128 183 110 c 0,4,5
 193 90 193 90 230 90 c 0,6,7
 275 90 275 90 318 107 c 1,8,-1
 318 10 l 1,9,10
 255 -10 255 -10 189 -10 c 0,11,12
 100 -10 100 -10 68 31 c 0,13,14
 35 72 35 72 50 167 c 2,15,-1
 141 750 l 1,0,-1
EndSplineSet
EndChar

StartChar: lacute
Encoding: 314 314 293
Width: 351
GlyphClass: 2
Flags: W
LayerCount: 2
Fore
SplineSet
141 750 m 1,0,-1
 271 750 l 1,1,-1
 183 190 l 2,2,3
 172 128 172 128 183 110 c 0,4,5
 193 90 193 90 230 90 c 0,6,7
 275 90 275 90 318 107 c 1,8,-1
 318 10 l 1,9,10
 255 -10 255 -10 189 -10 c 0,11,12
 100 -10 100 -10 68 31 c 0,13,14
 35 72 35 72 50 167 c 2,15,-1
 141 750 l 1,0,-1
272 790 m 1,16,-1
 145 790 l 1,17,-1
 259 1000 l 1,18,-1
 426 1000 l 1,19,-1
 272 790 l 1,16,-1
EndSplineSet
EndChar

StartChar: uni013C
Encoding: 316 316 295
Width: 351
GlyphClass: 2
Flags: W
LayerCount: 2
Fore
SplineSet
141 750 m 1,0,-1
 271 750 l 1,1,-1
 183 190 l 2,2,3
 172 128 172 128 183 110 c 0,4,5
 193 90 193 90 230 90 c 0,6,7
 275 90 275 90 318 107 c 1,8,-1
 318 10 l 1,9,10
 255 -10 255 -10 189 -10 c 0,11,12
 100 -10 100 -10 68 31 c 0,13,14
 35 72 35 72 50 167 c 2,15,-1
 141 750 l 1,0,-1
105 -250 m 1,16,-1
 -23 -250 l 1,17,-1
 92 -40 l 1,18,-1
 259 -40 l 1,19,-1
 105 -250 l 1,16,-1
EndSplineSet
EndChar

StartChar: lslash
Encoding: 322 322 298
Width: 455
GlyphClass: 2
Flags: W
LayerCount: 2
Fore
SplineSet
467 402 m 1,0,-1
 39 228 l 1,1,-1
 14 328 l 1,2,-1
 442 502 l 1,3,-1
 467 402 l 1,0,-1
236 750 m 1,4,-1
 366 750 l 1,5,-1
 278 190 l 2,6,7
 267 128 267 128 278 110 c 0,8,9
 288 90 288 90 325 90 c 0,10,11
 370 90 370 90 413 107 c 1,12,-1
 413 10 l 1,13,14
 350 -10 350 -10 284 -10 c 0,15,16
 195 -10 195 -10 162 31 c 0,17,18
 130 72 130 72 145 167 c 2,19,-1
 236 750 l 1,4,-1
EndSplineSet
EndChar

StartChar: m
Encoding: 109 109 299
Width: 795
Flags: W
LayerCount: 2
Fore
SplineSet
738 480 m 128,-1,1
 763 430 763 430 746 320 c 2,2,-1
 695 0 l 1,3,-1
 569 0 l 1,4,-1
 615 293 l 2,5,6
 635 417 635 417 575 417 c 0,7,8
 550 417 550 417 527 398.5 c 128,-1,9
 504 380 504 380 486.5 348 c 128,-1,10
 469 316 469 316 463 279 c 2,11,-1
 419 0 l 1,12,-1
 293 0 l 1,13,-1
 339 293 l 2,14,15
 359 417 359 417 299 417 c 0,16,17
 274 417 274 417 250 397.5 c 128,-1,18
 226 378 226 378 209 344 c 128,-1,19
 192 310 192 310 186 270 c 2,20,-1
 143 0 l 1,21,-1
 17 0 l 1,22,-1
 99 520 l 1,23,-1
 220 520 l 1,24,-1
 210 453 l 1,25,-1
 212 453 l 1,26,27
 278 530 278 530 365 530 c 256,28,29
 452 530 452 530 471 453 c 1,30,-1
 473 453 l 1,31,32
 547 530 547 530 641 530 c 0,33,0
 713 530 713 530 738 480 c 128,-1,1
EndSplineSet
EndChar

StartChar: n
Encoding: 110 110 300
Width: 570
GlyphClass: 2
Flags: W
AnchorPoint: "Anchor-6" 262 520 basechar 0
AnchorPoint: "Anchor-4" 262 0 basechar 0
LayerCount: 2
Fore
SplineSet
506.5 478.5 m 128,-1,1
 538 427 538 427 521 320 c 2,2,-1
 470 0 l 1,3,-1
 340 0 l 1,4,-1
 387 293 l 2,5,6
 397 356 397 356 383 386.5 c 128,-1,7
 369 417 369 417 331 417 c 0,8,9
 300 417 300 417 269.5 397.5 c 128,-1,10
 239 378 239 378 217 346 c 128,-1,11
 195 314 195 314 190 277 c 2,12,-1
 146 0 l 1,13,-1
 17 0 l 1,14,-1
 99 520 l 1,15,-1
 221 520 l 1,16,-1
 212 449 l 1,17,-1
 214 449 l 1,18,19
 289 530 289 530 393 530 c 0,20,0
 475 530 475 530 506.5 478.5 c 128,-1,1
EndSplineSet
EndChar

StartChar: eng
Encoding: 331 331 304
Width: 570
GlyphClass: 2
Flags: W
AnchorPoint: "Anchor-6" 262 520 basechar 0
AnchorPoint: "Anchor-4" 262 0 basechar 0
LayerCount: 2
Fore
SplineSet
506.5 478.5 m 128,-1,1
 538 427 538 427 521 320 c 2,2,-1
 468 -14 l 2,3,4
 450 -127 450 -127 401 -175.5 c 128,-1,5
 352 -224 352 -224 257 -224 c 0,6,7
 201 -224 201 -224 141 -208 c 1,8,-1
 176 -96 l 1,9,10
 211 -107 211 -107 248 -107 c 0,11,12
 289 -107 289 -107 309.5 -86 c 128,-1,13
 330 -65 330 -65 338 -14 c 2,14,-1
 387 293 l 2,15,16
 397 356 397 356 383 386.5 c 128,-1,17
 369 417 369 417 331 417 c 0,18,19
 300 417 300 417 269.5 397.5 c 128,-1,20
 239 378 239 378 217 346 c 128,-1,21
 195 314 195 314 190 277 c 2,22,-1
 146 0 l 1,23,-1
 17 0 l 1,24,-1
 99 520 l 1,25,-1
 221 520 l 1,26,-1
 212 449 l 1,27,-1
 214 449 l 1,28,29
 289 530 289 530 393 530 c 0,30,0
 475 530 475 530 506.5 478.5 c 128,-1,1
EndSplineSet
EndChar

StartChar: o
Encoding: 111 111 307
Width: 554
GlyphClass: 2
Flags: W
AnchorPoint: "Anchor-7" 421 480 basechar 0
AnchorPoint: "Anchor-6" 251 520 basechar 0
AnchorPoint: "Anchor-5" 324 0 basechar 0
AnchorPoint: "Anchor-4" 251 0 basechar 0
LayerCount: 2
Fore
SplineSet
59.5 60 m 128,-1,1
 7 130 7 130 27 260 c 256,2,3
 48 390 48 390 122.5 460 c 128,-1,4
 197 530 197 530 316 530 c 256,5,6
 434 530 434 530 487 460 c 128,-1,7
 540 390 540 390 519 260 c 256,8,9
 498 130 498 130 423 60 c 128,-1,10
 348 -10 348 -10 230 -10 c 256,11,0
 112 -10 112 -10 59.5 60 c 128,-1,1
390 260 m 256,13,14
 416 423 416 423 299 423 c 0,15,16
 241 423 241 423 205 382 c 128,-1,17
 169 341 169 341 156 260 c 256,18,19
 143 179 143 179 166 138 c 128,-1,20
 189 97 189 97 247 97 c 0,21,12
 364 97 364 97 390 260 c 256,13,14
EndSplineSet
Substitution2: "Single Substitution lookup 21 subtable" ordmasculine
Substitution2: "'aalt' Access All Alternates in Latin lookup 0 subtable" ordmasculine
EndChar

StartChar: uni1ED1
Encoding: 7889 7889 311
Width: 557
GlyphClass: 2
Flags: W
AnchorPoint: "Anchor-7" 421 480 basechar 0
AnchorPoint: "Anchor-6" 251 520 basechar 0
AnchorPoint: "Anchor-5" 324 0 basechar 0
AnchorPoint: "Anchor-4" 251 0 basechar 0
LayerCount: 2
Fore
SplineSet
344 713 m 1,0,-1
 243 560 l 1,1,-1
 96 560 l 1,2,-1
 244 770 l 1,3,-1
 453 770 l 1,4,-1
 549 950 l 1,5,-1
 709 950 l 1,6,-1
 560 740 l 1,7,-1
 474 740 l 1,8,-1
 544 560 l 1,9,-1
 397 560 l 1,10,-1
 345 713 l 1,11,-1
 344 713 l 1,0,-1
487 460 m 128,-1,13
 540 390 540 390 519 260 c 256,14,15
 498 130 498 130 423 60 c 128,-1,16
 348 -10 348 -10 230 -10 c 256,17,18
 112 -10 112 -10 59.5 60 c 128,-1,19
 7 130 7 130 27 260 c 256,20,21
 48 390 48 390 122.5 460 c 128,-1,22
 197 530 197 530 316 530 c 256,23,12
 434 530 434 530 487 460 c 128,-1,13
390 260 m 256,25,26
 416 423 416 423 299 423 c 0,27,28
 241 423 241 423 205 382 c 128,-1,29
 169 341 169 341 156 260 c 256,30,31
 143 179 143 179 166 138 c 128,-1,32
 189 97 189 97 247 97 c 0,33,24
 364 97 364 97 390 260 c 256,25,26
EndSplineSet
EndChar

StartChar: uni1ED3
Encoding: 7891 7891 313
Width: 557
GlyphClass: 2
Flags: W
AnchorPoint: "Anchor-7" 421 480 basechar 0
AnchorPoint: "Anchor-6" 251 520 basechar 0
AnchorPoint: "Anchor-5" 324 0 basechar 0
AnchorPoint: "Anchor-4" 251 0 basechar 0
LayerCount: 2
Fore
SplineSet
227 740 m 1,0,-1
 141 740 l 1,1,-1
 58 950 l 1,2,-1
 219 950 l 1,3,-1
 257 770 l 1,4,-1
 465 770 l 1,5,-1
 548 560 l 1,6,-1
 401 560 l 1,7,-1
 349 713 l 1,8,-1
 347 713 l 1,9,-1
 247 560 l 1,10,-1
 100 560 l 1,11,-1
 227 740 l 1,0,-1
490 460 m 128,-1,13
 543 390 543 390 523 260 c 256,14,15
 502 130 502 130 427 60 c 128,-1,16
 352 -10 352 -10 233 -10 c 256,17,18
 115 -10 115 -10 62.5 60 c 128,-1,19
 10 130 10 130 31 260 c 256,20,21
 52 390 52 390 126.5 460 c 128,-1,22
 201 530 201 530 319 530 c 256,23,12
 437 530 437 530 490 460 c 128,-1,13
393 260 m 256,25,26
 419 423 419 423 302 423 c 0,27,28
 244 423 244 423 208 382 c 128,-1,29
 172 341 172 341 159 260 c 256,30,31
 146 179 146 179 169 138 c 128,-1,32
 192 97 192 97 250 97 c 0,33,24
 367 97 367 97 393 260 c 256,25,26
EndSplineSet
EndChar

StartChar: uni1ED5
Encoding: 7893 7893 314
Width: 553
GlyphClass: 2
Flags: W
AnchorPoint: "Anchor-7" 421 480 basechar 0
AnchorPoint: "Anchor-6" 323 938 basechar 0
AnchorPoint: "Anchor-5" 324 0 basechar 0
AnchorPoint: "Anchor-4" 251 0 basechar 0
LayerCount: 2
Fore
SplineSet
243 560 m 1,0,-1
 96 560 l 1,1,-1
 244 770 l 1,2,-1
 450 770 l 1,3,4
 458 794 458 794 459 802 c 0,5,6
 462 823 462 823 451 830 c 128,-1,7
 440 837 440 837 407 837 c 0,8,9
 342 837 342 837 276 817 c 1,10,-1
 281 920 l 1,11,12
 358 938 358 938 447 938 c 0,13,14
 511 938 511 938 544 930.5 c 128,-1,15
 577 923 577 923 588.5 904.5 c 128,-1,16
 600 886 600 886 595 851 c 0,17,18
 591 826 591 826 580.5 794.5 c 128,-1,19
 570 763 570 763 556 738 c 1,20,-1
 475 738 l 1,21,-1
 544 560 l 1,22,-1
 397 560 l 1,23,-1
 345 713 l 1,24,-1
 344 713 l 1,25,-1
 243 560 l 1,0,-1
486.5 460 m 128,-1,27
 540 390 540 390 519 260 c 256,28,29
 498 130 498 130 423 60 c 128,-1,30
 348 -10 348 -10 230 -10 c 256,31,32
 112 -10 112 -10 59.5 60 c 128,-1,33
 7 130 7 130 27 260 c 256,34,35
 48 390 48 390 122.5 460 c 128,-1,36
 197 530 197 530 315 530 c 256,37,26
 433 530 433 530 486.5 460 c 128,-1,27
389 260 m 256,39,40
 415 423 415 423 298 423 c 0,41,42
 240 423 240 423 204.5 382 c 128,-1,43
 169 341 169 341 156 260 c 256,44,45
 143 179 143 179 166 138 c 128,-1,46
 189 97 189 97 247 97 c 0,47,38
 363 97 363 97 389 260 c 256,39,40
EndSplineSet
EndChar

StartChar: ohorn
Encoding: 417 417 323
Width: 628
GlyphClass: 2
Flags: W
AnchorPoint: "Anchor-7" 666 628 basechar 0
AnchorPoint: "Anchor-6" 251 520 basechar 0
AnchorPoint: "Anchor-5" 324 0 basechar 0
AnchorPoint: "Anchor-4" 251 0 basechar 0
LayerCount: 2
Fore
SplineSet
689 502 m 0,1,2
 677 427 677 427 637 386 c 128,-1,3
 597 345 597 345 535 345 c 2,4,-1
 524 345 l 1,5,6
 526 306 526 306 519 260 c 0,7,8
 498 130 498 130 423 60 c 128,-1,9
 348 -10 348 -10 230 -10 c 256,10,11
 112 -10 112 -10 59.5 60 c 128,-1,12
 7 130 7 130 27 260 c 256,13,14
 48 390 48 390 122.5 460 c 128,-1,15
 197 530 197 530 316 530 c 256,16,17
 435 530 435 530 488 458 c 1,18,19
 496 455 496 455 508 455 c 0,20,21
 531 455 531 455 546 471.5 c 128,-1,22
 561 488 561 488 566 517 c 0,23,24
 570 540 570 540 569 573.5 c 128,-1,25
 568 607 568 607 563 628 c 1,26,-1
 690 628 l 1,27,0
 699 568 699 568 689 502 c 0,1,2
390 260 m 256,29,30
 416 423 416 423 299 423 c 0,31,32
 241 423 241 423 205 382 c 128,-1,33
 169 341 169 341 156 260 c 256,34,35
 143 179 143 179 166 138 c 128,-1,36
 189 97 189 97 247 97 c 0,37,28
 364 97 364 97 390 260 c 256,29,30
EndSplineSet
EndChar

StartChar: uni01EB
Encoding: 491 491 332
Width: 552
GlyphClass: 2
Flags: W
AnchorPoint: "Anchor-7" 420 480 basechar 0
AnchorPoint: "Anchor-6" 250 520 basechar 0
AnchorPoint: "Anchor-5" 322 0 basechar 0
AnchorPoint: "Anchor-4" 250 0 basechar 0
LayerCount: 2
Fore
SplineSet
209 -81 m 0,1,2
 206 -98 206 -98 220 -106.5 c 128,-1,3
 234 -115 234 -115 263 -115 c 0,4,5
 307 -115 307 -115 354 -96 c 1,6,-1
 353 -197 l 1,7,8
 300 -218 300 -218 238 -218 c 0,9,10
 157 -218 157 -218 118 -187.5 c 128,-1,11
 79 -157 79 -157 87 -102 c 256,12,13
 96 -47 96 -47 148 1 c 1,14,15
 73 23 73 23 41.5 89 c 128,-1,16
 10 155 10 155 27 260 c 0,17,18
 48 390 48 390 122.5 460 c 128,-1,19
 197 530 197 530 315 530 c 256,20,21
 433 530 433 530 486 460 c 128,-1,22
 539 390 539 390 518 260 c 0,23,24
 500 148 500 148 441.5 80 c 128,-1,25
 383 12 383 12 289 -5 c 1,26,0
 215 -46 215 -46 209 -81 c 0,1,2
204.5 382 m 128,-1,28
 169 341 169 341 156 260 c 256,29,30
 143 179 143 179 166 138 c 128,-1,31
 189 97 189 97 246 97 c 0,32,33
 362 97 362 97 388 260 c 256,34,35
 414 423 414 423 298 423 c 0,36,27
 240 423 240 423 204.5 382 c 128,-1,28
EndSplineSet
EndChar

StartChar: oslash
Encoding: 248 248 333
Width: 554
GlyphClass: 2
Flags: W
AnchorPoint: "Anchor-7" 421 480 basechar 0
AnchorPoint: "Anchor-6" 251 520 basechar 0
AnchorPoint: "Anchor-5" 324 0 basechar 0
AnchorPoint: "Anchor-4" 251 0 basechar 0
LayerCount: 2
Fore
SplineSet
519 260 m 0,1,2
 498 130 498 130 423 60 c 128,-1,3
 348 -10 348 -10 230 -10 c 0,4,5
 158 -10 158 -10 113 15 c 1,6,-1
 70 -36 l 1,7,-1
 13 16 l 1,8,-1
 56 66 l 1,9,10
 8 135 8 135 27 260 c 0,11,12
 48 390 48 390 123 460 c 128,-1,13
 198 530 198 530 316 530 c 0,14,15
 387 530 387 530 433 505 c 1,16,-1
 477 556 l 1,17,-1
 534 504 l 1,18,-1
 491 454 l 1,19,0
 539 385 539 385 519 260 c 0,1,2
153 180 m 1,21,-1
 352 411 l 1,22,23
 331 423 331 423 299 423 c 0,24,25
 241 423 241 423 205 382 c 128,-1,26
 169 341 169 341 156 260 c 0,27,20
 148 211 148 211 153 180 c 1,21,-1
390 260 m 0,29,30
 398 308 398 308 393 339 c 1,31,-1
 195 109 l 1,32,33
 216 97 216 97 247 97 c 0,34,28
 364 97 364 97 390 260 c 0,29,30
EndSplineSet
EndChar

StartChar: oe
Encoding: 339 339 337
Width: 897
Flags: W
LayerCount: 2
Fore
SplineSet
853 210 m 1,1,-1
 510 210 l 1,2,3
 506 151 506 151 536.5 123 c 128,-1,4
 567 95 567 95 636 95 c 0,5,6
 673 95 673 95 712 103 c 128,-1,7
 751 111 751 111 785 126 c 1,8,-1
 792 27 l 1,9,10
 753 10 753 10 705.5 0 c 128,-1,11
 658 -10 658 -10 612 -10 c 0,12,13
 481 -10 481 -10 424 62 c 1,14,15
 349 -10 349 -10 230 -10 c 0,16,17
 112 -10 112 -10 59.5 60 c 128,-1,18
 7 130 7 130 27 260 c 256,19,20
 48 390 48 390 123 460 c 128,-1,21
 198 530 198 530 316 530 c 256,22,23
 434 530 434 530 485 459 c 1,24,25
 561 530 561 530 675 530 c 0,26,27
 787 530 787 530 836 461 c 128,-1,28
 885 392 885 392 865 263 c 0,29,0
 859 228 859 228 853 210 c 1,1,-1
573 399.5 m 128,-1,31
 540 369 540 369 525 305 c 1,32,-1
 749 305 l 1,33,34
 755 370 755 370 733 400 c 128,-1,35
 711 430 711 430 658 430 c 256,36,30
 606 430 606 430 573 399.5 c 128,-1,31
390 260 m 256,38,39
 416 423 416 423 299 423 c 0,40,41
 241 423 241 423 205 382 c 128,-1,42
 169 341 169 341 156 260 c 256,43,44
 143 179 143 179 166 138 c 128,-1,45
 189 97 189 97 247 97 c 0,46,37
 364 97 364 97 390 260 c 256,38,39
EndSplineSet
EndChar

StartChar: p
Encoding: 112 112 338
Width: 568
Flags: W
LayerCount: 2
Fore
SplineSet
517 460.5 m 128,-1,1
 555 391 555 391 534 260 c 256,2,3
 513 129 513 129 453.5 59.5 c 128,-1,4
 394 -10 394 -10 302 -10 c 0,5,6
 254 -10 254 -10 217.5 9.5 c 128,-1,7
 181 29 181 29 158 67 c 1,8,-1
 156 67 l 1,9,-1
 111 -220 l 1,10,-1
 -18 -220 l 1,11,-1
 99 520 l 1,12,-1
 221 520 l 1,13,-1
 213 453 l 1,14,-1
 215 453 l 1,15,16
 251 491 251 491 295 510.5 c 128,-1,17
 339 530 339 530 388 530 c 0,18,0
 479 530 479 530 517 460.5 c 128,-1,1
360 142.5 m 128,-1,20
 394 185 394 185 406 260 c 256,21,22
 418 335 418 335 397.5 377.5 c 128,-1,23
 377 420 377 420 327 420 c 256,24,25
 278 420 278 420 239 380 c 128,-1,26
 200 340 200 340 190 279 c 2,27,-1
 184 241 l 2,28,29
 174 180 174 180 200.5 140 c 128,-1,30
 227 100 227 100 276 100 c 256,31,19
 326 100 326 100 360 142.5 c 128,-1,20
EndSplineSet
EndChar

StartChar: thorn
Encoding: 254 254 339
Width: 571
Flags: W
LayerCount: 2
Fore
SplineSet
517 460.5 m 128,-1,1
 555 391 555 391 534 260 c 256,2,3
 513 129 513 129 453.5 59.5 c 128,-1,4
 394 -10 394 -10 302 -10 c 0,5,6
 254 -10 254 -10 217.5 9.5 c 128,-1,7
 181 29 181 29 158 67 c 1,8,-1
 156 67 l 1,9,-1
 111 -220 l 1,10,-1
 -18 -220 l 1,11,-1
 136 750 l 1,12,-1
 264 750 l 1,13,-1
 217 453 l 1,14,-1
 219 453 l 1,15,16
 253 491 253 491 296 510.5 c 128,-1,17
 339 530 339 530 388 530 c 0,18,0
 479 530 479 530 517 460.5 c 128,-1,1
360 142.5 m 128,-1,20
 394 185 394 185 406 260 c 256,21,22
 418 335 418 335 397.5 377.5 c 128,-1,23
 377 420 377 420 327 420 c 256,24,25
 278 420 278 420 239 380 c 128,-1,26
 200 340 200 340 190 279 c 2,27,-1
 184 241 l 2,28,29
 174 180 174 180 200.5 140 c 128,-1,30
 227 100 227 100 276 100 c 256,31,19
 326 100 326 100 360 142.5 c 128,-1,20
EndSplineSet
EndChar

StartChar: q
Encoding: 113 113 340
Width: 568
Flags: W
LayerCount: 2
Fore
SplineSet
544 520 m 1,0,-1
 427 -220 l 1,1,-1
 298 -220 l 1,2,-1
 344 67 l 1,3,-1
 342 67 l 1,4,5
 308 29 308 29 265 9.5 c 128,-1,6
 222 -10 222 -10 174 -10 c 0,7,8
 82 -10 82 -10 44 59.5 c 128,-1,9
 6 129 6 129 27 260 c 256,10,11
 48 391 48 391 107.5 460.5 c 128,-1,12
 167 530 167 530 259 530 c 0,13,14
 307 530 307 530 345.5 510.5 c 128,-1,15
 384 491 384 491 408 453 c 1,16,-1
 410 453 l 1,17,-1
 422 520 l 1,18,-1
 544 520 l 1,0,-1
323 140 m 128,-1,20
 362 180 362 180 371 241 c 2,21,-1
 377 279 l 2,22,23
 387 340 387 340 360.5 380 c 128,-1,24
 334 420 334 420 285 420 c 256,25,26
 236 420 236 420 201.5 377.5 c 128,-1,27
 167 335 167 335 155 260 c 256,28,29
 143 185 143 185 164 142.5 c 128,-1,30
 185 100 185 100 234 100 c 256,31,19
 284 100 284 100 323 140 c 128,-1,20
EndSplineSet
EndChar

StartChar: r
Encoding: 114 114 341
Width: 428
GlyphClass: 2
Flags: W
AnchorPoint: "Anchor-6" 196 520 basechar 0
AnchorPoint: "Anchor-4" 196 0 basechar 0
LayerCount: 2
Fore
SplineSet
320.5 502 m 128,-1,1
 383 530 383 530 451 530 c 1,2,-1
 432 413 l 1,3,4
 372 413 372 413 318 390 c 128,-1,5
 264 367 264 367 228 327 c 128,-1,6
 192 287 192 287 185 240 c 2,7,-1
 147 0 l 1,8,-1
 17 0 l 1,9,-1
 99 520 l 1,10,-1
 223 520 l 1,11,-1
 209 423 l 1,12,-1
 211 423 l 1,13,0
 258 474 258 474 320.5 502 c 128,-1,1
EndSplineSet
EndChar

StartChar: s
Encoding: 115 115 347
Width: 479
GlyphClass: 2
Flags: W
AnchorPoint: "Anchor-6" 212 520 basechar 0
AnchorPoint: "Anchor-4" 212 0 basechar 0
LayerCount: 2
Fore
SplineSet
86 1 m 128,-1,1
 33 12 33 12 -9 32 c 1,2,-1
 39 133 l 1,3,4
 117 97 117 97 195 97 c 0,5,6
 242 97 242 97 267 109.5 c 128,-1,7
 292 122 292 122 296 148 c 0,8,9
 300 171 300 171 284 183.5 c 128,-1,10
 268 196 268 196 216 210 c 0,11,12
 115 238 115 238 77 276.5 c 128,-1,13
 39 315 39 315 49 380 c 0,14,15
 61 453 61 453 119 491.5 c 128,-1,16
 177 530 177 530 277 530 c 0,17,18
 325 530 325 530 376.5 520.5 c 128,-1,19
 428 511 428 511 471 494 c 1,20,-1
 423 393 l 1,21,22
 349 425 349 425 278 425 c 0,23,24
 188 425 188 425 180 379 c 0,25,26
 176 356 176 356 192.5 343.5 c 128,-1,27
 209 331 209 331 258 318 c 0,28,29
 355 294 355 294 396 252.5 c 128,-1,30
 437 211 437 211 427 147 c 0,31,32
 415 72 415 72 354 31 c 128,-1,33
 293 -10 293 -10 195 -10 c 0,34,0
 139 -10 139 -10 86 1 c 128,-1,1
EndSplineSet
EndChar

StartChar: scedilla
Encoding: 351 351 350
Width: 479
GlyphClass: 2
Flags: W
AnchorPoint: "Anchor-6" 212 520 basechar 0
AnchorPoint: "Anchor-4" 212 0 basechar 0
LayerCount: 2
Fore
SplineSet
383 56 m 128,-1,1
 348 19 348 19 290 2 c 1,2,3
 328 -48 328 -48 320 -102 c 0,4,5
 311 -157 311 -157 262 -187.5 c 128,-1,6
 213 -218 213 -218 132 -218 c 0,7,8
 71 -218 71 -218 23 -197 c 1,9,-1
 55 -96 l 1,10,11
 94 -115 94 -115 139 -115 c 0,12,13
 167 -115 167 -115 184 -106 c 128,-1,14
 201 -97 201 -97 204 -81 c 0,15,16
 209 -48 209 -48 152 -8 c 1,17,18
 61 -2 61 -2 -9 32 c 1,19,-1
 39 133 l 1,20,21
 116 97 116 97 195 97 c 0,22,23
 242 97 242 97 266.5 109.5 c 128,-1,24
 291 122 291 122 295 148 c 0,25,26
 299 171 299 171 283 183.5 c 128,-1,27
 267 196 267 196 215 210 c 0,28,29
 114 238 114 238 76.5 276.5 c 128,-1,30
 39 315 39 315 49 380 c 0,31,32
 61 453 61 453 118.5 491.5 c 128,-1,33
 176 530 176 530 276 530 c 0,34,35
 324 530 324 530 376 520.5 c 128,-1,36
 428 511 428 511 470 494 c 1,37,-1
 422 393 l 1,38,39
 348 425 348 425 277 425 c 0,40,41
 187 425 187 425 180 379 c 0,42,43
 176 356 176 356 192.5 343.5 c 128,-1,44
 209 331 209 331 258 318 c 0,45,46
 355 294 355 294 396 252.5 c 128,-1,47
 437 211 437 211 427 147 c 0,48,0
 418 93 418 93 383 56 c 128,-1,1
EndSplineSet
Substitution2: "'locl' Localized Forms in Latin lookup 4 subtable" uni0219
Substitution2: "'aalt' Access All Alternates in Latin lookup 0 subtable" uni0219
EndChar

StartChar: germandbls
Encoding: 223 223 353
Width: 575
Flags: W
LayerCount: 2
Fore
SplineSet
194 5 m 1,1,-1
 225 120 l 1,2,3
 274 105 274 105 306 105 c 0,4,5
 343 105 343 105 366.5 122 c 128,-1,6
 390 139 390 139 395 168 c 0,7,8
 398 188 398 188 387 211 c 128,-1,9
 376 234 376 234 337 291 c 0,10,11
 313 328 313 328 305 349.5 c 128,-1,12
 297 371 297 371 300 390 c 0,13,14
 303 407 303 407 316 427 c 128,-1,15
 329 447 329 447 362 484 c 0,16,17
 401 526 401 526 418 551.5 c 128,-1,18
 435 577 435 577 438 595 c 0,19,20
 442 620 442 620 421.5 631.5 c 128,-1,21
 401 643 401 643 351 643 c 0,22,23
 308 643 308 643 285 633.5 c 128,-1,24
 262 624 262 624 249.5 600 c 128,-1,25
 237 576 237 576 229 529 c 2,26,-1
 146 0 l 1,27,-1
 17 0 l 1,28,-1
 101 532 l 2,29,30
 120 650 120 650 183.5 705 c 128,-1,31
 247 760 247 760 364 760 c 0,32,33
 470 760 470 760 523.5 719 c 128,-1,34
 577 678 577 678 566 607 c 0,35,36
 561 577 561 577 543.5 547 c 128,-1,37
 526 517 526 517 484 468 c 0,38,39
 452 429 452 429 441 413.5 c 128,-1,40
 430 398 430 398 429 391 c 0,41,42
 428 382 428 382 436.5 364.5 c 128,-1,43
 445 347 445 347 469 312 c 0,44,45
 504 260 504 260 515 224.5 c 128,-1,46
 526 189 526 189 520 150 c 0,47,48
 508 75 508 75 452.5 32.5 c 128,-1,49
 397 -10 397 -10 309 -10 c 0,50,0
 258 -10 258 -10 194 5 c 1,1,-1
EndSplineSet
EndChar

StartChar: t
Encoding: 116 116 354
Width: 468
GlyphClass: 2
Flags: W
AnchorPoint: "Anchor-8" 190 0 basechar 0
AnchorPoint: "Anchor-7" 439 520 basechar 0
AnchorPoint: "Anchor-6" 206 520 basechar 0
AnchorPoint: "Anchor-4" 206 0 basechar 0
LayerCount: 2
Fore
SplineSet
125 30.5 m 128,-1,1
 94 71 94 71 109 167 c 2,2,-1
 148 413 l 1,3,-1
 36 413 l 1,4,-1
 53 520 l 1,5,-1
 165 520 l 1,6,-1
 195 710 l 1,7,-1
 325 710 l 1,8,-1
 295 520 l 1,9,-1
 457 520 l 1,10,-1
 440 413 l 1,11,-1
 278 413 l 1,12,-1
 242 188 l 2,13,14
 234 136 234 136 245 117 c 128,-1,15
 256 98 256 98 295 98 c 0,16,17
 333 98 333 98 378 113 c 1,18,-1
 378 9 l 1,19,20
 309 -10 309 -10 245 -10 c 0,21,0
 156 -10 156 -10 125 30.5 c 128,-1,1
EndSplineSet
EndChar

StartChar: tbar
Encoding: 359 359 355
Width: 461
GlyphClass: 2
Flags: W
AnchorPoint: "Anchor-8" 190 0 basechar 0
AnchorPoint: "Anchor-7" 439 520 basechar 0
AnchorPoint: "Anchor-6" 206 520 basechar 0
AnchorPoint: "Anchor-4" 206 0 basechar 0
LayerCount: 2
Fore
SplineSet
378 9 m 1,0,1
 309 -10 309 -10 245 -10 c 0,2,3
 156 -10 156 -10 125 30.5 c 128,-1,4
 94 71 94 71 109 167 c 2,5,-1
 114 197 l 1,6,-1
 2 197 l 1,7,-1
 18 303 l 1,8,-1
 131 303 l 1,9,-1
 148 413 l 1,10,-1
 36 413 l 1,11,-1
 53 520 l 1,12,-1
 165 520 l 1,13,-1
 195 710 l 1,14,-1
 325 710 l 1,15,-1
 295 520 l 1,16,-1
 457 520 l 1,17,-1
 440 413 l 1,18,-1
 278 413 l 1,19,-1
 260 303 l 1,20,-1
 416 303 l 1,21,-1
 399 197 l 1,22,-1
 243 197 l 1,23,-1
 242 188 l 2,24,25
 234 136 234 136 245 117 c 128,-1,26
 256 98 256 98 295 98 c 0,27,28
 333 98 333 98 378 113 c 1,29,-1
 378 9 l 1,0,1
EndSplineSet
EndChar

StartChar: uni0163
Encoding: 355 355 357
Width: 467
GlyphClass: 2
Flags: W
AnchorPoint: "Anchor-8" 190 0 basechar 0
AnchorPoint: "Anchor-7" 438 520 basechar 0
AnchorPoint: "Anchor-6" 206 520 basechar 0
AnchorPoint: "Anchor-4" 206 0 basechar 0
LayerCount: 2
Fore
SplineSet
330 -2 m 1,0,1
 364 -51 364 -51 355 -102 c 0,2,3
 346 -157 346 -157 297.5 -187.5 c 128,-1,4
 249 -218 249 -218 169 -218 c 0,5,6
 108 -218 108 -218 61 -197 c 1,7,-1
 92 -96 l 1,8,9
 132 -115 132 -115 176 -115 c 0,10,11
 204 -115 204 -115 220.5 -106 c 128,-1,12
 237 -97 237 -97 239 -81 c 0,13,14
 245 -45 245 -45 183 -4 c 1,15,16
 131 9 131 9 114 49.5 c 128,-1,17
 97 90 97 90 109 167 c 2,18,-1
 148 413 l 1,19,-1
 36 413 l 1,20,-1
 53 520 l 1,21,-1
 165 520 l 1,22,-1
 195 710 l 1,23,-1
 325 710 l 1,24,-1
 295 520 l 1,25,-1
 456 520 l 1,26,-1
 439 413 l 1,27,-1
 278 413 l 1,28,-1
 242 188 l 2,29,30
 234 136 234 136 245 117 c 128,-1,31
 256 98 256 98 295 98 c 0,32,33
 333 98 333 98 377 113 c 1,34,-1
 377 9 l 1,35,-1
 330 -2 l 1,0,1
EndSplineSet
Substitution2: "'locl' Localized Forms in Latin lookup 4 subtable" uni021B
Substitution2: "'aalt' Access All Alternates in Latin lookup 0 subtable" uni021B
EndChar

StartChar: u
Encoding: 117 117 359
Width: 560
GlyphClass: 2
Flags: W
AnchorPoint: "Anchor-7" 469 480 basechar 0
AnchorPoint: "Anchor-6" 256 520 basechar 0
AnchorPoint: "Anchor-5" 489 0 basechar 0
AnchorPoint: "Anchor-4" 256 0 basechar 0
LayerCount: 2
Fore
SplineSet
537 520 m 1,0,-1
 454 0 l 1,1,-1
 332 0 l 1,2,-1
 341 71 l 1,3,-1
 340 71 l 1,4,5
 265 -10 265 -10 164 -10 c 0,6,7
 84 -10 84 -10 54.5 40.5 c 128,-1,8
 25 91 25 91 42 200 c 2,9,-1
 93 520 l 1,10,-1
 222 520 l 1,11,-1
 175 226 l 2,12,13
 165 161 165 161 176.5 132 c 128,-1,14
 188 103 188 103 223 103 c 0,15,16
 253 103 253 103 284 122.5 c 128,-1,17
 315 142 315 142 336.5 174.5 c 128,-1,18
 358 207 358 207 364 244 c 2,19,-1
 408 520 l 1,20,-1
 537 520 l 1,0,-1
EndSplineSet
EndChar

StartChar: uhorn
Encoding: 432 432 368
Width: 664
GlyphClass: 2
Flags: W
AnchorPoint: "Anchor-7" 714 628 basechar 0
AnchorPoint: "Anchor-6" 256 520 basechar 0
AnchorPoint: "Anchor-5" 489 0 basechar 0
AnchorPoint: "Anchor-4" 256 0 basechar 0
LayerCount: 2
Fore
SplineSet
734 502 m 0,1,2
 722 427 722 427 681.5 386 c 128,-1,3
 641 345 641 345 579 345 c 0,4,5
 543 345 543 345 511 358 c 1,6,-1
 454 0 l 1,7,-1
 332 0 l 1,8,-1
 341 71 l 1,9,-1
 340 71 l 1,10,11
 265 -10 265 -10 164 -10 c 0,12,13
 84 -10 84 -10 54.5 40.5 c 128,-1,14
 25 91 25 91 42 200 c 2,15,-1
 93 520 l 1,16,-1
 222 520 l 1,17,-1
 175 226 l 2,18,19
 165 161 165 161 176.5 132 c 128,-1,20
 188 103 188 103 223 103 c 0,21,22
 253 103 253 103 284 122.5 c 128,-1,23
 315 142 315 142 336.5 174.5 c 128,-1,24
 358 207 358 207 364 244 c 2,25,-1
 408 520 l 1,26,-1
 537 520 l 1,27,-1
 527 461 l 1,28,29
 537 455 537 455 552 455 c 0,30,31
 575 455 575 455 590.5 471.5 c 128,-1,32
 606 488 606 488 610 517 c 0,33,34
 614 540 614 540 613 573.5 c 128,-1,35
 612 607 612 607 607 628 c 1,36,-1
 734 628 l 1,37,0
 744 568 744 568 734 502 c 0,1,2
EndSplineSet
EndChar

StartChar: uogonek
Encoding: 371 371 377
Width: 563
GlyphClass: 2
Flags: W
AnchorPoint: "Anchor-7" 468 480 basechar 0
AnchorPoint: "Anchor-6" 256 520 basechar 0
AnchorPoint: "Anchor-5" 488 0 basechar 0
AnchorPoint: "Anchor-4" 256 0 basechar 0
LayerCount: 2
Fore
SplineSet
508 -197 m 1,0,1
 455 -218 455 -218 393 -218 c 0,2,3
 312 -218 312 -218 273 -187.5 c 128,-1,4
 234 -157 234 -157 243 -102 c 0,5,6
 248 -68 248 -68 270.5 -36.5 c 128,-1,7
 293 -5 293 -5 335 28 c 1,8,-1
 341 71 l 1,9,-1
 339 71 l 1,10,11
 264 -10 264 -10 164 -10 c 0,12,13
 84 -10 84 -10 54.5 40.5 c 128,-1,14
 25 91 25 91 42 200 c 2,15,-1
 93 520 l 1,16,-1
 222 520 l 1,17,-1
 175 226 l 2,18,19
 165 161 165 161 176.5 132 c 128,-1,20
 188 103 188 103 223 103 c 0,21,22
 253 103 253 103 283.5 122.5 c 128,-1,23
 314 142 314 142 336 174.5 c 128,-1,24
 358 207 358 207 363 244 c 2,25,-1
 407 520 l 1,26,-1
 536 520 l 1,27,-1
 454 0 l 1,28,29
 371 -44 371 -44 365 -81 c 0,30,31
 362 -98 362 -98 375.5 -106.5 c 128,-1,32
 389 -115 389 -115 419 -115 c 0,33,34
 462 -115 462 -115 509 -96 c 1,35,-1
 508 -197 l 1,0,1
EndSplineSet
EndChar

StartChar: v
Encoding: 118 118 380
Width: 523
Flags: W
LayerCount: 2
Fore
SplineSet
45 520 m 1,0,-1
 183 520 l 1,1,-1
 231 92 l 1,2,-1
 232 92 l 1,3,-1
 415 520 l 1,4,-1
 554 520 l 1,5,-1
 308 0 l 1,6,-1
 126 0 l 1,7,-1
 45 520 l 1,0,-1
EndSplineSet
EndChar

StartChar: w
Encoding: 119 119 381
Width: 762
GlyphClass: 2
Flags: W
AnchorPoint: "Anchor-6" 361 520 basechar 0
AnchorPoint: "Anchor-4" 361 0 basechar 0
LayerCount: 2
Fore
SplineSet
56 520 m 1,0,-1
 192 520 l 1,1,-1
 199 127 l 1,2,-1
 201 127 l 1,3,-1
 335 520 l 1,4,-1
 502 520 l 1,5,-1
 511 127 l 1,6,-1
 513 127 l 1,7,-1
 645 520 l 1,8,-1
 780 520 l 1,9,-1
 571 0 l 1,10,-1
 407 0 l 1,11,-1
 398 387 l 1,12,-1
 396 387 l 1,13,-1
 265 0 l 1,14,-1
 101 0 l 1,15,-1
 56 520 l 1,0,-1
EndSplineSet
EndChar

StartChar: x
Encoding: 120 120 386
Width: 535
Flags: W
LayerCount: 2
Fore
SplineSet
172 261 m 1,0,-1
 68 520 l 1,1,-1
 211 520 l 1,2,-1
 274 333 l 1,3,-1
 276 333 l 1,4,-1
 399 520 l 1,5,-1
 542 520 l 1,6,-1
 356 261 l 1,7,-1
 462 0 l 1,8,-1
 320 0 l 1,9,-1
 253 189 l 1,10,-1
 252 189 l 1,11,-1
 126 0 l 1,12,-1
 -17 0 l 1,13,-1
 172 261 l 1,0,-1
EndSplineSet
EndChar

StartChar: y
Encoding: 121 121 387
Width: 525
GlyphClass: 2
Flags: W
AnchorPoint: "Anchor-0" 232 -230 basechar 0
AnchorPoint: "Anchor-3" 232 590 basechar 0
AnchorPoint: "Anchor-6" 235 520 basechar 0
AnchorPoint: "Anchor-4" 235 0 basechar 0
LayerCount: 2
Fore
SplineSet
-49 -230 m 1,0,-1
 -40 -128 l 1,1,2
 39 -128 39 -128 80 -102 c 128,-1,3
 121 -76 121 -76 159 0 c 1,4,-1
 48 520 l 1,5,-1
 185 520 l 1,6,-1
 239 137 l 1,7,-1
 241 137 l 1,8,-1
 417 520 l 1,9,-1
 548 520 l 1,10,-1
 280 -3 l 2,11,12
 214 -133 214 -133 142.5 -181.5 c 128,-1,13
 71 -230 71 -230 -49 -230 c 1,0,-1
EndSplineSet
EndChar

StartChar: z
Encoding: 122 122 396
Width: 512
GlyphClass: 2
Flags: W
AnchorPoint: "Anchor-6" 230 520 basechar 0
AnchorPoint: "Anchor-4" 230 0 basechar 0
LayerCount: 2
Fore
SplineSet
21 107 m 1,0,-1
 319 411 l 1,1,-1
 319 413 l 1,2,-1
 70 413 l 1,3,-1
 87 520 l 1,4,-1
 501 520 l 1,5,-1
 484 413 l 1,6,-1
 186 109 l 1,7,-1
 185 107 l 1,8,-1
 435 107 l 1,9,-1
 418 0 l 1,10,-1
 4 0 l 1,11,-1
 21 107 l 1,0,-1
EndSplineSet
EndChar

StartChar: f_f
Encoding: 1114114 -1 400
Width: 815
GlyphClass: 3
Flags: W
LayerCount: 2
Fore
SplineSet
678 520 m 1,0,-1
 826 520 l 1,1,-1
 809 413 l 1,2,-1
 661 413 l 1,3,-1
 595 0 l 1,4,-1
 464 0 l 1,5,-1
 529 413 l 1,6,-1
 295 413 l 1,7,-1
 229 0 l 1,8,-1
 99 0 l 1,9,-1
 164 413 l 1,10,-1
 40 413 l 1,11,-1
 56 520 l 1,12,-1
 181 520 l 1,13,-1
 188 563 l 2,14,15
 219 760 219 760 393 760 c 0,16,17
 445 760 445 760 504 745 c 1,18,-1
 469 640 l 1,19,20
 429 653 429 653 397 653 c 0,21,22
 360 653 360 653 343.5 634 c 128,-1,23
 327 615 327 615 318 563 c 2,24,-1
 312 520 l 1,25,-1
 546 520 l 1,26,-1
 553 563 l 2,27,28
 584 760 584 760 758 760 c 0,29,30
 810 760 810 760 869 745 c 1,31,-1
 835 640 l 1,32,33
 797 653 797 653 763 653 c 0,34,35
 727 653 727 653 710 634 c 128,-1,36
 693 615 693 615 685 563 c 2,37,-1
 678 520 l 1,0,-1
EndSplineSet
Ligature2: "'liga' Standard Ligatures in Latin lookup 14 subtable" f f
EndChar

StartChar: f_f_l
Encoding: 1114116 -1 402
Width: 1209
GlyphClass: 3
Flags: W
LayerCount: 2
Fore
SplineSet
678 520 m 1,0,-1
 826 520 l 1,1,-1
 809 413 l 1,2,-1
 661 413 l 1,3,-1
 595 0 l 1,4,-1
 464 0 l 1,5,-1
 529 413 l 1,6,-1
 295 413 l 1,7,-1
 229 0 l 1,8,-1
 99 0 l 1,9,-1
 164 413 l 1,10,-1
 40 413 l 1,11,-1
 56 520 l 1,12,-1
 181 520 l 1,13,-1
 188 563 l 2,14,15
 220 760 220 760 393 760 c 0,16,17
 445.5 760 445.5 760 504 745 c 1,18,-1
 469 640 l 1,19,20
 430 653 430 653 397 653 c 0,21,22
 359 653 359 653 344 634 c 0,23,24
 327 616 327 616 318 563 c 2,25,-1
 312 520 l 1,26,-1
 546 520 l 1,27,-1
 553 563 l 2,28,29
 585 760 585 760 758 760 c 0,30,31
 810.5 760 810.5 760 869 745 c 1,32,-1
 835 640 l 1,33,34
 799 653 799 653 763 653 c 0,35,36
 726 653 726 653 710 634 c 0,37,38
 692 613 692 613 685 563 c 2,39,-1
 678 520 l 1,0,-1
1004 750 m 1,40,-1
 1134 750 l 1,41,-1
 1046 190 l 2,42,43
 1035 128 1035 128 1046 110 c 0,44,45
 1056 90 1056 90 1093 90 c 0,46,47
 1138 90 1138 90 1181 107 c 1,48,-1
 1181 10 l 1,49,50
 1118 -10 1118 -10 1052 -10 c 0,51,52
 963 -10 963 -10 930 31 c 0,53,54
 898 72 898 72 913 167 c 2,55,-1
 1004 750 l 1,40,-1
EndSplineSet
Ligature2: "'liga' Standard Ligatures in Latin lookup 14 subtable" f f l
EndChar

StartChar: fl
Encoding: 64258 64258 404
Width: 827
GlyphClass: 3
Flags: W
LayerCount: 2
Fore
SplineSet
40 413 m 1,0,-1
 56 520 l 1,1,-1
 181 520 l 1,2,-1
 188 563 l 2,3,4
 220 760 220 760 393 760 c 0,5,6
 445.5 760 445.5 760 504 745 c 1,7,-1
 469 640 l 1,8,9
 430 653 430 653 397 653 c 0,10,11
 359 653 359 653 344 634 c 0,12,13
 327 616 327 616 318 563 c 2,14,-1
 312 520 l 1,15,-1
 461 520 l 1,16,-1
 444 413 l 1,17,-1
 295 413 l 1,18,-1
 229 0 l 1,19,-1
 99 0 l 1,20,-1
 164 413 l 1,21,-1
 40 413 l 1,0,-1
617 750 m 1,22,-1
 747 750 l 1,23,-1
 659 190 l 2,24,25
 648 128 648 128 659 110 c 0,26,27
 669 90 669 90 706 90 c 0,28,29
 751 90 751 90 794 107 c 1,30,-1
 794 10 l 1,31,32
 731 -10 731 -10 665 -10 c 0,33,34
 576 -10 576 -10 544 31 c 0,35,36
 511 72 511 72 526 167 c 2,37,-1
 617 750 l 1,22,-1
EndSplineSet
Ligature2: "'liga' Standard Ligatures in Latin lookup 14 subtable" f l
EndChar

StartChar: ordfeminine
Encoding: 170 170 405
Width: 441
Flags: W
LayerCount: 2
Fore
SplineSet
417 699.5 m 128,-1,1
 451 661 451 661 437 573 c 2,2,-1
 396 314 l 1,3,-1
 279 314 l 1,4,-1
 285 358 l 1,5,-1
 283 358 l 1,6,7
 260 334 260 334 226.5 320 c 128,-1,8
 193 306 193 306 158 306 c 0,9,10
 99 306 99 306 68.5 342 c 128,-1,11
 38 378 38 378 47 435 c 0,12,13
 58 507 58 507 124.5 546 c 128,-1,14
 191 585 191 585 302 585 c 2,15,-1
 316 585 l 1,16,17
 320 622 320 622 308 636 c 128,-1,18
 296 650 296 650 260 650 c 0,19,20
 187 650 187 650 109 613 c 1,21,-1
 106 701 l 1,22,23
 196 738 196 738 291 738 c 0,24,0
 383 738 383 738 417 699.5 c 128,-1,1
267.5 418.5 m 128,-1,26
 293 439 293 439 299 473 c 2,27,-1
 304 506 l 1,28,-1
 279 506 l 2,29,30
 219 506 219 506 188.5 491.5 c 128,-1,31
 158 477 158 477 153 446 c 0,32,33
 149 423 149 423 163 410.5 c 128,-1,34
 177 398 177 398 205 398 c 0,35,25
 242 398 242 398 267.5 418.5 c 128,-1,26
EndSplineSet
EndChar

StartChar: ordmasculine
Encoding: 186 186 406
Width: 463
Flags: W
LayerCount: 2
Fore
SplineSet
93 362 m 128,-1,1
 49 418 49 418 65 522 c 256,2,3
 81 626 81 626 143 682 c 128,-1,4
 205 738 205 738 303 738 c 256,5,6
 401 738 401 738 445 682 c 128,-1,7
 489 626 489 626 473 522 c 256,8,9
 457 418 457 418 395 362 c 128,-1,10
 333 306 333 306 235 306 c 256,11,0
 137 306 137 306 93 362 c 128,-1,1
351 522 m 256,13,14
 370 643 370 643 288 643 c 0,15,16
 207 643 207 643 187 522 c 256,17,18
 168 401 168 401 250 401 c 256,19,12
 332 401 332 401 351 522 c 256,13,14
EndSplineSet
EndChar

StartChar: zero.lf
Encoding: 1114117 -1 417
Width: 622
Flags: W
LayerCount: 2
Fore
SplineSet
69 82 m 128,-1,1
 16 174 16 174 46 365 c 256,2,3
 76 556 76 556 158.5 648 c 128,-1,4
 241 740 241 740 383 740 c 256,5,6
 525 740 525 740 578 648 c 128,-1,7
 631 556 631 556 601 365 c 256,8,9
 571 174 571 174 489 82 c 128,-1,10
 407 -10 407 -10 264 -10 c 256,11,0
 122 -10 122 -10 69 82 c 128,-1,1
397.5 173.5 m 128,-1,13
 440 234 440 234 461 365 c 256,14,15
 482 496 482 496 458.5 556.5 c 128,-1,16
 435 617 435 617 364 617 c 256,17,18
 292 617 292 617 249.5 556.5 c 128,-1,19
 207 496 207 496 187 365 c 256,20,21
 166 234 166 234 189 173.5 c 128,-1,22
 212 113 212 113 284 113 c 256,23,12
 355 113 355 113 397.5 173.5 c 128,-1,13
EndSplineSet
Substitution2: "'tnum' Tabular Numbers in Latin lookup 11 subtable" zero
AlternateSubs2: "'aalt' Access All Alternates in Latin lookup 1 subtable" zero
EndChar

StartChar: one.lf
Encoding: 1114118 -1 418
Width: 611
Flags: W
LayerCount: 2
Fore
SplineSet
341 552 m 1,0,-1
 339 552 l 1,1,-1
 112 366 l 1,2,-1
 70 482 l 1,3,-1
 367 730 l 1,4,-1
 511 730 l 1,5,-1
 395 0 l 1,6,-1
 254 0 l 1,7,-1
 341 552 l 1,0,-1
EndSplineSet
Substitution2: "'tnum' Tabular Numbers in Latin lookup 11 subtable" one
AlternateSubs2: "'aalt' Access All Alternates in Latin lookup 1 subtable" one
EndChar

StartChar: two.lf
Encoding: 1114119 -1 419
Width: 617
Flags: W
LayerCount: 2
Fore
SplineSet
263 291 m 128,-1,1
 346 361 346 361 387.5 414 c 128,-1,2
 429 467 429 467 436 513 c 0,3,4
 444 562 444 562 417.5 589.5 c 128,-1,5
 391 617 391 617 337 617 c 0,6,7
 253 617 253 617 132 541 c 1,8,-1
 109 659 l 1,9,10
 163 696 163 696 235.5 718 c 128,-1,11
 308 740 308 740 376 740 c 0,12,13
 448 740 448 740 497.5 714 c 128,-1,14
 547 688 547 688 568.5 639.5 c 128,-1,15
 590 591 590 591 580 527 c 0,16,17
 565 433 565 433 484 337.5 c 128,-1,18
 403 242 403 242 238 124 c 1,19,-1
 238 122 l 1,20,-1
 521 122 l 1,21,-1
 502 0 l 1,22,-1
 22 0 l 1,23,-1
 41 122 l 1,24,0
 180 221 180 221 263 291 c 128,-1,1
EndSplineSet
Substitution2: "'tnum' Tabular Numbers in Latin lookup 11 subtable" two
AlternateSubs2: "'aalt' Access All Alternates in Latin lookup 1 subtable" two
EndChar

StartChar: three.lf
Encoding: 1114120 -1 420
Width: 617
Flags: W
LayerCount: 2
Fore
SplineSet
19 49 m 1,1,-1
 77 160 l 1,2,3
 119 134 119 134 158 122 c 128,-1,4
 197 110 197 110 240 110 c 0,5,6
 308 110 308 110 347 139 c 128,-1,7
 386 168 386 168 395 224 c 0,8,9
 401 262 401 262 386.5 283.5 c 128,-1,10
 372 305 372 305 333.5 315 c 128,-1,11
 295 325 295 325 226 325 c 2,12,-1
 174 325 l 1,13,-1
 191 437 l 1,14,-1
 412 608 l 1,15,-1
 413 610 l 1,16,-1
 121 610 l 1,17,-1
 140 730 l 1,18,-1
 605 730 l 1,19,-1
 586 609 l 1,20,-1
 360 435 l 1,21,-1
 359 433 l 1,22,-1
 367 433 l 2,23,24
 464 433 464 433 507.5 380 c 128,-1,25
 551 327 551 327 535 227 c 0,26,27
 517 114 517 114 439 52 c 128,-1,28
 361 -10 361 -10 233 -10 c 0,29,0
 112 -10 112 -10 19 49 c 1,1,-1
EndSplineSet
Substitution2: "'tnum' Tabular Numbers in Latin lookup 11 subtable" three
AlternateSubs2: "'aalt' Access All Alternates in Latin lookup 1 subtable" three
EndChar

StartChar: four.lf
Encoding: 1114121 -1 421
Width: 623
Flags: W
LayerCount: 2
Fore
SplineSet
324 142 m 1,0,-1
 -9 142 l 1,1,-1
 10 264 l 1,2,-1
 417 730 l 1,3,-1
 555 730 l 1,4,-1
 481 264 l 1,5,-1
 586 264 l 1,6,-1
 566 142 l 1,7,-1
 462 142 l 1,8,-1
 439 0 l 1,9,-1
 302 0 l 1,10,-1
 324 142 l 1,0,-1
346 260 m 1,11,-1
 389 530 l 1,12,-1
 387 530 l 1,13,-1
 154 262 l 1,14,-1
 154 260 l 1,15,-1
 346 260 l 1,11,-1
EndSplineSet
Substitution2: "'tnum' Tabular Numbers in Latin lookup 11 subtable" four
AlternateSubs2: "'aalt' Access All Alternates in Latin lookup 1 subtable" four
EndChar

StartChar: five.lf
Encoding: 1114122 -1 422
Width: 617
Flags: W
LayerCount: 2
Fore
SplineSet
23 36 m 1,1,-1
 76 151 l 1,2,3
 158 110 158 110 234 110 c 0,4,5
 309 110 309 110 354.5 145 c 128,-1,6
 400 180 400 180 410 245 c 0,7,8
 419 300 419 300 395 328.5 c 128,-1,9
 371 357 371 357 317 357 c 0,10,11
 289 357 289 357 264 348 c 128,-1,12
 239 339 239 339 210 317 c 1,13,-1
 89 317 l 1,14,-1
 176 730 l 1,15,-1
 596 730 l 1,16,-1
 577 610 l 1,17,-1
 281 610 l 1,18,-1
 245 447 l 1,19,-1
 247 447 l 1,20,21
 276 461 276 461 299.5 466.5 c 128,-1,22
 323 472 323 472 354 472 c 0,23,24
 466 472 466 472 517 412 c 128,-1,25
 568 352 568 352 551 242 c 0,26,27
 532 121 532 121 446.5 55.5 c 128,-1,28
 361 -10 361 -10 222 -10 c 0,29,0
 112 -10 112 -10 23 36 c 1,1,-1
EndSplineSet
Substitution2: "'tnum' Tabular Numbers in Latin lookup 11 subtable" five
AlternateSubs2: "'aalt' Access All Alternates in Latin lookup 1 subtable" five
EndChar

StartChar: six.lf
Encoding: 1114123 -1 423
Width: 620
Flags: W
LayerCount: 2
Fore
SplineSet
75 60.5 m 128,-1,1
 17 131 17 131 38 265 c 0,2,3
 59 400 59 400 123.5 503.5 c 128,-1,4
 188 607 188 607 287 668 c 128,-1,5
 386 729 386 729 507 739 c 1,6,-1
 513 622 l 1,7,8
 409 613 409 613 337.5 569.5 c 128,-1,9
 266 526 266 526 225 447 c 1,10,-1
 226 446 l 1,11,12
 262 469 262 469 298 479.5 c 128,-1,13
 334 490 334 490 375 490 c 0,14,15
 486 490 486 490 539 424.5 c 128,-1,16
 592 359 592 359 574 245 c 0,17,18
 562 167 562 167 520.5 109.5 c 128,-1,19
 479 52 479 52 413 21 c 128,-1,20
 347 -10 347 -10 264 -10 c 0,21,0
 133 -10 133 -10 75 60.5 c 128,-1,1
385.5 143 m 128,-1,23
 426 179 426 179 436 243 c 0,24,25
 446 308 446 308 417.5 343 c 128,-1,26
 389 378 389 378 325 378 c 256,27,28
 261 378 261 378 221.5 343 c 128,-1,29
 182 308 182 308 172 243 c 0,30,31
 162 179 162 179 191 143 c 128,-1,32
 220 107 220 107 282 107 c 256,33,22
 345 107 345 107 385.5 143 c 128,-1,23
EndSplineSet
Substitution2: "'tnum' Tabular Numbers in Latin lookup 11 subtable" six
AlternateSubs2: "'aalt' Access All Alternates in Latin lookup 1 subtable" six
EndChar

StartChar: seven.lf
Encoding: 1114124 -1 424
Width: 617
Flags: W
LayerCount: 2
Fore
SplineSet
452 604 m 1,1,-1
 453 607 l 1,2,-1
 117 607 l 1,3,-1
 136 730 l 1,4,-1
 629 730 l 1,5,-1
 611 617 l 1,6,7
 509 478 509 478 424 333 c 128,-1,8
 339 188 339 188 250 0 c 1,9,-1
 97 0 l 1,10,0
 258 335 258 335 452 604 c 1,1,-1
EndSplineSet
Substitution2: "'tnum' Tabular Numbers in Latin lookup 11 subtable" seven
AlternateSubs2: "'aalt' Access All Alternates in Latin lookup 1 subtable" seven
EndChar

StartChar: eight.lf
Encoding: 1114125 -1 425
Width: 622
Flags: W
LayerCount: 2
Fore
SplineSet
70.5 45.5 m 128,-1,1
 5 101 5 101 20 197 c 0,2,3
 30 258 30 258 71 300.5 c 128,-1,4
 112 343 112 343 190 374 c 1,5,-1
 190 376 l 1,6,7
 139 407 139 407 115 455.5 c 128,-1,8
 91 504 91 504 100 559 c 256,9,10
 109 614 109 614 146.5 654.5 c 128,-1,11
 184 695 184 695 245.5 717.5 c 128,-1,12
 307 740 307 740 383 740 c 256,13,14
 459 740 459 740 513.5 717.5 c 128,-1,15
 568 695 568 695 593.5 654 c 128,-1,16
 619 613 619 613 610 559 c 0,17,18
 594 456 594 456 458 392 c 1,19,-1
 458 390 l 1,20,21
 596 331 596 331 575 197 c 0,22,23
 560 100 560 100 477.5 45 c 128,-1,24
 395 -10 395 -10 264 -10 c 0,25,0
 136 -10 136 -10 70.5 45.5 c 128,-1,1
431 483 m 128,-1,27
 464 510 464 510 470 545 c 0,28,29
 476 583 476 583 448 605 c 128,-1,30
 420 627 420 627 365 627 c 256,31,32
 310 627 310 627 275.5 605 c 128,-1,33
 241 583 241 583 235 545 c 0,34,35
 229 509 229 509 255 482.5 c 128,-1,36
 281 456 281 456 339 440 c 1,37,26
 398 456 398 456 431 483 c 128,-1,27
386.5 130.5 m 128,-1,39
 428 158 428 158 435 203 c 0,40,41
 442 245 442 245 411 273.5 c 128,-1,42
 380 302 380 302 305 322 c 1,43,44
 174 284 174 284 161 203 c 0,45,46
 154 158 154 158 187 130.5 c 128,-1,47
 220 103 220 103 282 103 c 256,48,38
 345 103 345 103 386.5 130.5 c 128,-1,39
EndSplineSet
Substitution2: "'tnum' Tabular Numbers in Latin lookup 11 subtable" eight
AlternateSubs2: "'aalt' Access All Alternates in Latin lookup 1 subtable" eight
EndChar

StartChar: nine.lf
Encoding: 1114126 -1 426
Width: 620
Flags: W
LayerCount: 2
Fore
SplineSet
572 669.5 m 128,-1,1
 630 599 630 599 609 465 c 0,2,3
 588 330 588 330 523 226.5 c 128,-1,4
 458 123 458 123 359.5 62 c 128,-1,5
 261 1 261 1 140 -9 c 1,6,-1
 134 108 l 1,7,8
 238 117 238 117 309 160.5 c 128,-1,9
 380 204 380 204 422 283 c 1,10,-1
 420 284 l 1,11,12
 384 261 384 261 348 250.5 c 128,-1,13
 312 240 312 240 271 240 c 0,14,15
 160 240 160 240 107.5 305.5 c 128,-1,16
 55 371 55 371 73 485 c 0,17,18
 85 563 85 563 126.5 620.5 c 128,-1,19
 168 678 168 678 233.5 709 c 128,-1,20
 299 740 299 740 383 740 c 0,21,0
 514 740 514 740 572 669.5 c 128,-1,1
260.5 587 m 128,-1,23
 220 551 220 551 210 487 c 256,24,25
 200 423 200 423 229 387.5 c 128,-1,26
 258 352 258 352 321 352 c 0,27,28
 385 352 385 352 425 387 c 128,-1,29
 465 422 465 422 475 487 c 0,30,31
 485 551 485 551 456 587 c 128,-1,32
 427 623 427 623 364 623 c 256,33,22
 301 623 301 623 260.5 587 c 128,-1,23
EndSplineSet
Substitution2: "'tnum' Tabular Numbers in Latin lookup 11 subtable" nine
AlternateSubs2: "'aalt' Access All Alternates in Latin lookup 1 subtable" nine
EndChar

StartChar: uni2070
Encoding: 8304 8304 427
Width: 375
Flags: W
LayerCount: 2
Fore
SplineSet
71 341 m 128,-1,1
 39 396 39 396 57 511 c 256,2,3
 75 626 75 626 124.5 681 c 128,-1,4
 174 736 174 736 259 736 c 256,5,6
 344 736 344 736 376 681 c 128,-1,7
 408 626 408 626 390 511 c 256,8,9
 372 396 372 396 322.5 341 c 128,-1,10
 273 286 273 286 188 286 c 256,11,0
 103 286 103 286 71 341 c 128,-1,1
249.5 415.5 m 128,-1,13
 267 444 267 444 277 511 c 256,14,15
 288 578 288 578 280 606.5 c 128,-1,16
 272 635 272 635 243 635 c 256,17,18
 215 635 215 635 197.5 606.5 c 128,-1,19
 180 578 180 578 170 511 c 256,20,21
 159 444 159 444 167 415.5 c 128,-1,22
 175 387 175 387 204 387 c 256,23,12
 232 387 232 387 249.5 415.5 c 128,-1,13
EndSplineSet
EndChar

StartChar: uni00B9
Encoding: 185 185 428
Width: 358
Flags: W
LayerCount: 2
Fore
SplineSet
213 586 m 1,0,-1
 211 586 l 1,1,-1
 94 488 l 1,2,-1
 57 581 l 1,3,-1
 235 730 l 1,4,-1
 350 730 l 1,5,-1
 281 292 l 1,6,-1
 166 292 l 1,7,-1
 213 586 l 1,0,-1
EndSplineSet
EndChar

StartChar: uni00B2
Encoding: 178 178 429
Width: 373
Flags: W
LayerCount: 2
Fore
SplineSet
210.5 506 m 128,-1,1
 254 547 254 547 259 580 c 0,2,3
 263 606 263 606 249.5 620.5 c 128,-1,4
 236 635 236 635 208 635 c 0,5,6
 164 635 164 635 102 592 c 1,7,-1
 94 691 l 1,8,9
 127 712 127 712 169.5 724 c 128,-1,10
 212 736 212 736 254 736 c 0,11,12
 323 736 323 736 354.5 702 c 128,-1,13
 386 668 386 668 376 606 c 0,14,15
 367 552 367 552 328 500 c 128,-1,16
 289 448 289 448 217 394 c 1,17,-1
 217 392 l 1,18,-1
 346 392 l 1,19,-1
 330 292 l 1,20,-1
 42 292 l 1,21,-1
 58 392 l 1,22,0
 167 465 167 465 210.5 506 c 128,-1,1
EndSplineSet
EndChar

StartChar: uni00B3
Encoding: 179 179 430
Width: 373
Flags: W
LayerCount: 2
Fore
SplineSet
37 317 m 1,1,-1
 74 408 l 1,2,3
 99 396 99 396 118.5 391 c 128,-1,4
 138 386 138 386 161 386 c 0,5,6
 228 386 228 386 235 432 c 0,7,8
 239 455 239 455 220 464.5 c 128,-1,9
 201 474 201 474 153 474 c 2,10,-1
 128 474 l 1,11,-1
 141 560 l 1,12,-1
 234 629 l 1,13,-1
 235 631 l 1,14,-1
 94 631 l 1,15,-1
 109 730 l 1,16,-1
 389 730 l 1,17,-1
 373 631 l 1,18,-1
 265 550 l 1,19,-1
 265 548 l 1,20,21
 312 547 312 547 333.5 514.5 c 128,-1,22
 355 482 355 482 347 427 c 0,23,24
 336 360 336 360 289 323 c 128,-1,25
 242 286 242 286 167 286 c 0,26,0
 94 286 94 286 37 317 c 1,1,-1
EndSplineSet
EndChar

StartChar: uni2074
Encoding: 8308 8308 431
Width: 376
Flags: W
LayerCount: 2
Fore
SplineSet
202 363 m 1,0,-1
 17 363 l 1,1,-1
 33 463 l 1,2,-1
 267 730 l 1,3,-1
 371 730 l 1,4,-1
 329 463 l 1,5,-1
 378 463 l 1,6,-1
 362 363 l 1,7,-1
 313 363 l 1,8,-1
 302 292 l 1,9,-1
 191 292 l 1,10,-1
 202 363 l 1,0,-1
224 456 m 1,11,-1
 244 584 l 1,12,-1
 242 584 l 1,13,-1
 132 458 l 1,14,-1
 132 456 l 1,15,-1
 224 456 l 1,11,-1
EndSplineSet
EndChar

StartChar: fraction
Encoding: 8260 8260 432
Width: 521
Flags: W
LayerCount: 2
Fore
SplineSet
466 730 m 1,0,-1
 583 730 l 1,1,-1
 82 0 l 1,2,-1
 -36 0 l 1,3,-1
 466 730 l 1,0,-1
EndSplineSet
EndChar

StartChar: onehalf
Encoding: 189 189 433
Width: 880
Flags: W
LayerCount: 2
Fore
SplineSet
219 586 m 1,0,-1
 102 488 l 1,1,-1
 65 581 l 1,2,-1
 244 730 l 1,3,-1
 359 730 l 1,4,-1
 290 292 l 1,5,-1
 174 292 l 1,6,-1
 221 586 l 1,7,-1
 219 586 l 1,0,-1
644 730 m 1,8,-1
 761 730 l 1,9,-1
 260 0 l 1,10,-1
 143 0 l 1,11,-1
 644 730 l 1,8,-1
667.5 214 m 128,-1,13
 711 255 711 255 717 288 c 0,14,15
 721 314 721 314 707 328.5 c 128,-1,16
 693 343 693 343 666 343 c 0,17,18
 622 343 622 343 560 300 c 1,19,-1
 551 399 l 1,20,21
 584 420 584 420 627 432 c 128,-1,22
 670 444 670 444 711 444 c 0,23,24
 780 444 780 444 811.5 410 c 128,-1,25
 843 376 843 376 833 314 c 0,26,27
 824 260 824 260 785.5 208 c 128,-1,28
 747 156 747 156 674 102 c 1,29,-1
 674 100 l 1,30,-1
 803 100 l 1,31,-1
 788 0 l 1,32,-1
 499 0 l 1,33,-1
 515 100 l 1,34,12
 624 173 624 173 667.5 214 c 128,-1,13
EndSplineSet
Ligature2: "'frac' Diagonal Fractions in Latin lookup 7 subtable" one slash two
EndChar

StartChar: onequarter
Encoding: 188 188 434
Width: 847
Flags: W
LayerCount: 2
Fore
SplineSet
219 586 m 1,0,-1
 102 488 l 1,1,-1
 65 581 l 1,2,-1
 244 730 l 1,3,-1
 359 730 l 1,4,-1
 290 292 l 1,5,-1
 174 292 l 1,6,-1
 221 586 l 1,7,-1
 219 586 l 1,0,-1
644 730 m 1,8,-1
 761 730 l 1,9,-1
 260 0 l 1,10,-1
 143 0 l 1,11,-1
 644 730 l 1,8,-1
434 71 m 1,12,-1
 450 171 l 1,13,-1
 684 438 l 1,14,-1
 789 438 l 1,15,-1
 747 171 l 1,16,-1
 795 171 l 1,17,-1
 779 71 l 1,18,-1
 731 71 l 1,19,-1
 720 0 l 1,20,-1
 608 0 l 1,21,-1
 619 71 l 1,22,-1
 434 71 l 1,12,-1
661 292 m 1,23,-1
 659 292 l 1,24,-1
 549 166 l 1,25,-1
 549 164 l 1,26,-1
 641 164 l 1,27,-1
 661 292 l 1,23,-1
EndSplineSet
Ligature2: "'frac' Diagonal Fractions in Latin lookup 7 subtable" one slash four
EndChar

StartChar: threequarters
Encoding: 190 190 435
Width: 821
Flags: W
LayerCount: 2
Fore
SplineSet
40 317 m 1,1,-1
 76 408 l 1,2,3
 122 386 122 386 162 386 c 0,4,5
 195 386 195 386 214.5 398 c 128,-1,6
 234 410 234 410 237 432 c 0,7,8
 241 455 241 455 222.5 464.5 c 128,-1,9
 204 474 204 474 156 474 c 2,10,-1
 130 474 l 1,11,-1
 144 560 l 1,12,-1
 236 629 l 1,13,-1
 237 631 l 1,14,-1
 96 631 l 1,15,-1
 112 730 l 1,16,-1
 391 730 l 1,17,-1
 376 631 l 1,18,-1
 267 550 l 1,19,-1
 266 548 l 1,20,21
 314 547 314 547 336 514.5 c 128,-1,22
 358 482 358 482 349 427 c 0,23,24
 338 360 338 360 291.5 323 c 128,-1,25
 245 286 245 286 170 286 c 0,26,0
 97 286 97 286 40 317 c 1,1,-1
619 730 m 1,27,-1
 736 730 l 1,28,-1
 235 0 l 1,29,-1
 117 0 l 1,30,-1
 619 730 l 1,27,-1
409 71 m 1,31,-1
 425 171 l 1,32,-1
 660 438 l 1,33,-1
 764 438 l 1,34,-1
 721 171 l 1,35,-1
 770 171 l 1,36,-1
 754 71 l 1,37,-1
 705 71 l 1,38,-1
 694 0 l 1,39,-1
 583 0 l 1,40,-1
 595 71 l 1,41,-1
 409 71 l 1,31,-1
637 292 m 1,42,-1
 635 292 l 1,43,-1
 524 166 l 1,44,-1
 524 164 l 1,45,-1
 616 164 l 1,46,-1
 637 292 l 1,42,-1
EndSplineSet
Ligature2: "'frac' Diagonal Fractions in Latin lookup 7 subtable" three slash four
EndChar

StartChar: period
Encoding: 46 46 436
Width: 317
Flags: W
LayerCount: 2
Fore
SplineSet
55 153 m 1,0,-1
 205 153 l 1,1,-1
 180 0 l 1,2,-1
 31 0 l 1,3,-1
 55 153 l 1,0,-1
EndSplineSet
EndChar

StartChar: comma
Encoding: 44 44 437
Width: 317
Flags: W
LayerCount: 2
Fore
SplineSet
67 153 m 1,0,-1
 221 153 l 1,1,-1
 68 -147 l 1,2,-1
 -46 -147 l 1,3,-1
 67 153 l 1,0,-1
EndSplineSet
EndChar

StartChar: colon
Encoding: 58 58 438
Width: 317
Flags: W
LayerCount: 2
Fore
SplineSet
113 520 m 1,0,-1
 263 520 l 1,1,-1
 239 367 l 1,2,-1
 89 367 l 1,3,-1
 113 520 l 1,0,-1
55 153 m 1,4,-1
 205 153 l 1,5,-1
 180 0 l 1,6,-1
 31 0 l 1,7,-1
 55 153 l 1,4,-1
EndSplineSet
Substitution2: "'aalt' Access All Alternates in Latin lookup 0 subtable" uniFF1A
EndChar

StartChar: semicolon
Encoding: 59 59 439
Width: 317
Flags: W
LayerCount: 2
Fore
SplineSet
133 520 m 1,0,-1
 283 520 l 1,1,-1
 258 367 l 1,2,-1
 108 367 l 1,3,-1
 133 520 l 1,0,-1
78 153 m 1,4,-1
 231 153 l 1,5,-1
 70 -147 l 1,6,-1
 -45 -147 l 1,7,-1
 78 153 l 1,4,-1
EndSplineSet
EndChar

StartChar: exclam
Encoding: 33 33 441
Width: 313
Flags: W
LayerCount: 2
Fore
SplineSet
146 730 m 1,0,-1
 309 730 l 1,1,-1
 209 223 l 1,2,-1
 85 223 l 1,3,-1
 146 730 l 1,0,-1
59 143 m 1,4,-1
 210 143 l 1,5,-1
 187 0 l 1,6,-1
 36 0 l 1,7,-1
 59 143 l 1,4,-1
EndSplineSet
Substitution2: "'aalt' Access All Alternates in Latin lookup 0 subtable" uniFF01
EndChar

StartChar: exclamdown
Encoding: 161 161 442
Width: 313
Flags: W
LayerCount: 2
Fore
SplineSet
119 520 m 1,0,-1
 270 520 l 1,1,-1
 247 377 l 1,2,-1
 96 377 l 1,3,-1
 119 520 l 1,0,-1
97 297 m 1,4,-1
 221 297 l 1,5,-1
 160 -210 l 1,6,-1
 -3 -210 l 1,7,-1
 97 297 l 1,4,-1
EndSplineSet
EndChar

StartChar: question
Encoding: 63 63 443
Width: 561
Flags: W
LayerCount: 2
Fore
SplineSet
202.5 333 m 128,-1,1
 242 382 242 382 325 437 c 0,2,3
 381 473 381 473 405 498 c 128,-1,4
 429 523 429 523 433 550 c 0,5,6
 439 586 439 586 410.5 602 c 128,-1,7
 382 618 382 618 314 618 c 0,8,9
 216 618 216 618 97 581 c 1,10,-1
 90 701 l 1,11,12
 150 720 150 720 218 730 c 128,-1,13
 286 740 286 740 353 740 c 0,14,15
 608 740 608 740 580 570 c 0,16,17
 571 514 571 514 535.5 469.5 c 128,-1,18
 500 425 500 425 424 377 c 0,19,20
 363 339 363 339 331 302 c 128,-1,21
 299 265 299 265 290 223 c 1,22,-1
 153 223 l 1,23,0
 163 284 163 284 202.5 333 c 128,-1,1
134 143 m 1,24,-1
 284 143 l 1,25,-1
 261 0 l 1,26,-1
 111 0 l 1,27,-1
 134 143 l 1,24,-1
EndSplineSet
Substitution2: "'aalt' Access All Alternates in Latin lookup 0 subtable" uniFF1F
EndChar

StartChar: questiondown
Encoding: 191 191 444
Width: 561
Flags: W
LayerCount: 2
Fore
SplineSet
270 377 m 1,0,-1
 293 520 l 1,1,-1
 443 520 l 1,2,-1
 420 377 l 1,3,-1
 270 377 l 1,0,-1
351.5 187 m 128,-1,5
 312 138 312 138 229 83 c 0,6,7
 173 47 173 47 149 22 c 128,-1,8
 125 -3 125 -3 121 -30 c 0,9,10
 115 -66 115 -66 143.5 -82 c 128,-1,11
 172 -98 172 -98 240 -98 c 0,12,13
 338 -98 338 -98 457 -61 c 1,14,-1
 464 -181 l 1,15,16
 404 -200 404 -200 336 -210 c 128,-1,17
 268 -220 268 -220 201 -220 c 0,18,19
 -54 -220 -54 -220 -27 -50 c 0,20,21
 -18 6 -18 6 18 50.5 c 128,-1,22
 54 95 54 95 130 143 c 0,23,24
 191 181 191 181 223 218 c 128,-1,25
 255 255 255 255 264 297 c 1,26,-1
 401 297 l 1,27,4
 391 236 391 236 351.5 187 c 128,-1,5
EndSplineSet
EndChar

StartChar: bullet
Encoding: 8226 8226 446
Width: 352
Flags: W
LayerCount: 2
Fore
SplineSet
82 206 m 128,-1,1
 53 241 53 241 61 290 c 256,2,3
 69 339 69 339 108.5 374 c 128,-1,4
 148 409 148 409 196 409 c 256,5,6
 244 409 244 409 272.5 374 c 128,-1,7
 301 339 301 339 293 290 c 256,8,9
 285 241 285 241 246 206 c 128,-1,10
 207 171 207 171 159 171 c 256,11,0
 111 171 111 171 82 206 c 128,-1,1
EndSplineSet
EndChar

StartChar: asterisk
Encoding: 42 42 447
Width: 510
Flags: W
LayerCount: 2
Fore
SplineSet
95 383 m 1,0,-1
 206 506 l 1,1,-1
 69 549 l 1,2,-1
 120 657 l 1,3,-1
 254 607 l 1,4,-1
 275 759 l 1,5,-1
 385 759 l 1,6,-1
 359 607 l 1,7,-1
 508 657 l 1,8,-1
 525 549 l 1,9,-1
 374 506 l 1,10,-1
 446 383 l 1,11,-1
 345 317 l 1,12,-1
 280 443 l 1,13,-1
 175 317 l 1,14,-1
 95 383 l 1,0,-1
EndSplineSet
EndChar

StartChar: numbersign
Encoding: 35 35 448
Width: 663
Flags: W
LayerCount: 2
Fore
SplineSet
657 465 m 1,0,-1
 552 465 l 1,1,-1
 493 285 l 1,2,-1
 577 285 l 1,3,-1
 559 172 l 1,4,-1
 455 172 l 1,5,-1
 398 0 l 1,6,-1
 274 0 l 1,7,-1
 330 172 l 1,8,-1
 226 172 l 1,9,-1
 170 0 l 1,10,-1
 44 0 l 1,11,-1
 102 172 l 1,12,-1
 17 172 l 1,13,-1
 35 285 l 1,14,-1
 140 285 l 1,15,-1
 199 465 l 1,16,-1
 115 465 l 1,17,-1
 133 578 l 1,18,-1
 237 578 l 1,19,-1
 287 730 l 1,20,-1
 412 730 l 1,21,-1
 361 578 l 1,22,-1
 465 578 l 1,23,-1
 516 730 l 1,24,-1
 640 730 l 1,25,-1
 590 578 l 1,26,-1
 675 578 l 1,27,-1
 657 465 l 1,0,-1
262 283 m 1,28,-1
 369 283 l 1,29,-1
 430 467 l 1,30,-1
 323 467 l 1,31,-1
 262 283 l 1,28,-1
EndSplineSet
EndChar

StartChar: slash
Encoding: 47 47 449
Width: 490
Flags: W
LayerCount: 2
Fore
SplineSet
424 750 m 1,0,-1
 555 750 l 1,1,-1
 89 -40 l 1,2,-1
 -42 -40 l 1,3,-1
 424 750 l 1,0,-1
EndSplineSet
EndChar

StartChar: backslash
Encoding: 92 92 450
Width: 490
Flags: W
LayerCount: 2
Fore
SplineSet
430 -40 m 1,0,-1
 299 -40 l 1,1,-1
 83 750 l 1,2,-1
 214 750 l 1,3,-1
 430 -40 l 1,0,-1
EndSplineSet
EndChar

StartChar: parenleft
Encoding: 40 40 451
Width: 370
Flags: W
LayerCount: 2
Fore
SplineSet
75 91.5 m 128,-1,1
 56 205 56 205 76 330 c 256,2,3
 96 455 96 455 151 568.5 c 128,-1,4
 206 682 206 682 289 770 c 1,5,-1
 413 770 l 1,6,7
 328 671 328 671 278 563.5 c 128,-1,8
 228 456 228 456 208 330 c 256,9,10
 188 204 188 204 203.5 96.5 c 128,-1,11
 219 -11 219 -11 273 -110 c 1,12,-1
 150 -110 l 1,13,0
 94 -22 94 -22 75 91.5 c 128,-1,1
EndSplineSet
Substitution2: "'aalt' Access All Alternates in Latin lookup 0 subtable" uniFF08
EndChar

StartChar: parenright
Encoding: 41 41 452
Width: 370
Flags: W
LayerCount: 2
Fore
SplineSet
-28 -110 m 1,0,1
 57 -11 57 -11 107 96.5 c 128,-1,2
 157 204 157 204 177 330 c 256,3,4
 197 456 197 456 181 563.5 c 128,-1,5
 165 671 165 671 112 770 c 1,6,-1
 235 770 l 1,7,8
 291 682 291 682 310 568.5 c 128,-1,9
 329 455 329 455 309 330 c 256,10,11
 289 205 289 205 234 91.5 c 128,-1,12
 179 -22 179 -22 96 -110 c 1,13,-1
 -28 -110 l 1,0,1
EndSplineSet
Substitution2: "'aalt' Access All Alternates in Latin lookup 0 subtable" uniFF09
EndChar

StartChar: braceleft
Encoding: 123 123 453
Width: 483
Flags: W
CounterMasks: 1 e0
LayerCount: 2
Fore
SplineSet
156.5 -72.5 m 128,-1,1
 127 -35 127 -35 140 50 c 2,2,-1
 157 153 l 2,3,4
 167 214 167 214 150.5 242 c 128,-1,5
 134 270 134 270 90 270 c 2,6,-1
 48 270 l 1,7,-1
 67 390 l 1,8,-1
 109 390 l 2,9,10
 153 390 153 390 178 418 c 128,-1,11
 203 446 203 446 213 507 c 2,12,-1
 229 610 l 2,13,14
 242 695 242 695 283.5 732.5 c 128,-1,15
 325 770 325 770 404 770 c 2,16,-1
 515 770 l 1,17,-1
 498 663 l 1,18,-1
 453 663 l 2,19,20
 412 663 412 663 392 656 c 128,-1,21
 372 649 372 649 362 628.5 c 128,-1,22
 352 608 352 608 345 563 c 2,23,-1
 334 494 l 2,24,25
 323 427 323 427 294 388.5 c 128,-1,26
 265 350 265 350 210 331 c 1,27,-1
 210 329 l 1,28,29
 259 310 259 310 276 271.5 c 128,-1,30
 293 233 293 233 282 166 c 2,31,-1
 271 97 l 2,32,33
 264 52 264 52 267.5 31.5 c 128,-1,34
 271 11 271 11 288.5 4 c 128,-1,35
 306 -3 306 -3 348 -3 c 2,36,-1
 393 -3 l 1,37,-1
 376 -110 l 1,38,-1
 265 -110 l 2,39,0
 186 -110 186 -110 156.5 -72.5 c 128,-1,1
EndSplineSet
EndChar

StartChar: braceright
Encoding: 125 125 454
Width: 483
Flags: W
CounterMasks: 1 e0
LayerCount: 2
Fore
SplineSet
-17 -110 m 1,0,-1
 0 -3 l 1,1,-1
 45 -3 l 2,2,3
 86 -3 86 -3 106 4 c 128,-1,4
 126 11 126 11 136 31.5 c 128,-1,5
 146 52 146 52 153 97 c 2,6,-1
 164 166 l 2,7,8
 175 233 175 233 204 271.5 c 128,-1,9
 233 310 233 310 288 329 c 1,10,-1
 288 331 l 1,11,12
 239 350 239 350 222 388.5 c 128,-1,13
 205 427 205 427 216 494 c 2,14,-1
 227 563 l 2,15,16
 234 608 234 608 230.5 628.5 c 128,-1,17
 227 649 227 649 209.5 656 c 128,-1,18
 192 663 192 663 151 663 c 2,19,-1
 106 663 l 1,20,-1
 122 770 l 1,21,-1
 233 770 l 2,22,23
 312 770 312 770 341.5 732.5 c 128,-1,24
 371 695 371 695 358 610 c 2,25,-1
 341 507 l 2,26,27
 331 446 331 446 347.5 418 c 128,-1,28
 364 390 364 390 408 390 c 2,29,-1
 450 390 l 1,30,-1
 431 270 l 1,31,-1
 389 270 l 2,32,33
 345 270 345 270 320 242 c 128,-1,34
 295 214 295 214 285 153 c 2,35,-1
 269 50 l 2,36,37
 256 -35 256 -35 214.5 -72.5 c 128,-1,38
 173 -110 173 -110 94 -110 c 2,39,-1
 -17 -110 l 1,0,-1
EndSplineSet
EndChar

StartChar: bracketleft
Encoding: 91 91 455
Width: 423
Flags: W
LayerCount: 2
Fore
SplineSet
152 770 m 1,0,-1
 462 770 l 1,1,-1
 445 663 l 1,2,-1
 259 663 l 1,3,-1
 154 -3 l 1,4,-1
 340 -3 l 1,5,-1
 323 -110 l 1,6,-1
 13 -110 l 1,7,-1
 152 770 l 1,0,-1
EndSplineSet
EndChar

StartChar: bracketright
Encoding: 93 93 456
Width: 423
Flags: W
LayerCount: 2
Fore
SplineSet
286 -110 m 1,0,-1
 -25 -110 l 1,1,-1
 -8 -3 l 1,2,-1
 178 -3 l 1,3,-1
 284 663 l 1,4,-1
 97 663 l 1,5,-1
 114 770 l 1,6,-1
 425 770 l 1,7,-1
 286 -110 l 1,0,-1
EndSplineSet
EndChar

StartChar: hyphen
Encoding: 45 45 457
Width: 416
Flags: W
LayerCount: 2
Fore
SplineSet
61 352 m 1,0,-1
 377 352 l 1,1,-1
 358 228 l 1,2,-1
 41 228 l 1,3,-1
 61 352 l 1,0,-1
EndSplineSet
EndChar

StartChar: endash
Encoding: 8211 8211 459
Width: 490
Flags: W
LayerCount: 2
Fore
SplineSet
11 352 m 1,0,-1
 501 352 l 1,1,-1
 481 228 l 1,2,-1
 -9 228 l 1,3,-1
 11 352 l 1,0,-1
EndSplineSet
EndChar

StartChar: emdash
Encoding: 8212 8212 460
Width: 980
Flags: W
LayerCount: 2
Fore
SplineSet
11 352 m 1,0,-1
 991 352 l 1,1,-1
 971 228 l 1,2,-1
 -9 228 l 1,3,-1
 11 352 l 1,0,-1
EndSplineSet
EndChar

StartChar: uni2015
Encoding: 8213 8213 461
Width: 973
Flags: W
LayerCount: 2
Fore
SplineSet
67 422 m 1,0,-1
 949 422 l 1,1,-1
 930 298 l 1,2,-1
 48 298 l 1,3,-1
 67 422 l 1,0,-1
EndSplineSet
EndChar

StartChar: underscore
Encoding: 95 95 462
Width: 600
Flags: W
LayerCount: 2
Fore
SplineSet
-57 -77 m 1,0,-1
 544 -77 l 1,1,-1
 528 -177 l 1,2,-1
 -73 -177 l 1,3,-1
 -57 -77 l 1,0,-1
EndSplineSet
EndChar

StartChar: quoteleft
Encoding: 8216 8216 467
Width: 289
Flags: W
LayerCount: 2
Fore
SplineSet
205 470 m 1,0,-1
 52 470 l 1,1,-1
 213 770 l 1,2,-1
 328 770 l 1,3,-1
 205 470 l 1,0,-1
EndSplineSet
EndChar

StartChar: quoteright
Encoding: 8217 8217 468
Width: 289
Flags: W
LayerCount: 2
Fore
SplineSet
191 770 m 1,0,-1
 344 770 l 1,1,-1
 182 470 l 1,2,-1
 68 470 l 1,3,-1
 191 770 l 1,0,-1
EndSplineSet
EndChar

StartChar: guillemotleft
Encoding: 171 171 469
Width: 522
Flags: W
LayerCount: 2
Fore
SplineSet
8 290 m 1,0,-1
 198 520 l 1,1,-1
 320 520 l 1,2,-1
 128 290 l 1,3,-1
 247 60 l 1,4,-1
 125 60 l 1,5,-1
 8 290 l 1,0,-1
221 290 m 1,6,-1
 409 520 l 1,7,-1
 533 520 l 1,8,-1
 339 290 l 1,9,-1
 460 60 l 1,10,-1
 336 60 l 1,11,-1
 221 290 l 1,6,-1
EndSplineSet
EndChar

StartChar: guillemotright
Encoding: 187 187 470
Width: 522
Flags: W
LayerCount: 2
Fore
SplineSet
115 60 m 1,0,-1
 -7 60 l 1,1,-1
 185 290 l 1,2,-1
 66 520 l 1,3,-1
 188 520 l 1,4,-1
 305 290 l 1,5,-1
 115 60 l 1,0,-1
327 60 m 1,6,-1
 204 60 l 1,7,-1
 398 290 l 1,8,-1
 277 520 l 1,9,-1
 400 520 l 1,10,-1
 516 290 l 1,11,-1
 327 60 l 1,6,-1
EndSplineSet
EndChar

StartChar: guilsinglleft
Encoding: 8249 8249 471
Width: 318
Flags: W
LayerCount: 2
Fore
SplineSet
8 290 m 1,0,-1
 201 520 l 1,1,-1
 328 520 l 1,2,-1
 131 290 l 1,3,-1
 255 60 l 1,4,-1
 129 60 l 1,5,-1
 8 290 l 1,0,-1
EndSplineSet
EndChar

StartChar: guilsinglright
Encoding: 8250 8250 472
Width: 318
Flags: W
LayerCount: 2
Fore
SplineSet
118 60 m 1,0,-1
 -7 60 l 1,1,-1
 189 290 l 1,2,-1
 66 520 l 1,3,-1
 191 520 l 1,4,-1
 311 290 l 1,5,-1
 118 60 l 1,0,-1
EndSplineSet
EndChar

StartChar: quotedbl
Encoding: 34 34 473
Width: 506
Flags: W
LayerCount: 2
Fore
SplineSet
145 770 m 1,0,-1
 294 770 l 1,1,-1
 228 470 l 1,2,-1
 116 470 l 1,3,-1
 145 770 l 1,0,-1
366 770 m 1,4,-1
 515 770 l 1,5,-1
 449 470 l 1,6,-1
 337 470 l 1,7,-1
 366 770 l 1,4,-1
EndSplineSet
EndChar

StartChar: quotesingle
Encoding: 39 39 474
Width: 290
Flags: W
LayerCount: 2
Fore
SplineSet
145 770 m 1,0,-1
 299 770 l 1,1,-1
 232 470 l 1,2,-1
 117 470 l 1,3,-1
 145 770 l 1,0,-1
EndSplineSet
EndChar

StartChar: uni20B5
Encoding: 8373 8373 476
Width: 695
Flags: W
LayerCount: 2
Fore
SplineSet
619 56 m 1,0,1
 526 4 526 4 416 -7 c 1,2,-1
 400 -105 l 1,3,-1
 289 -105 l 1,4,-1
 304 -7 l 1,5,6
 155 8 155 8 88 105 c 128,-1,7
 21 202 21 202 46 365 c 256,8,9
 72 528 72 528 170.5 625 c 128,-1,10
 269 722 269 722 422 737 c 1,11,-1
 437 835 l 1,12,-1
 549 835 l 1,13,-1
 534 737 l 1,14,15
 640 726 640 726 717 674 c 1,16,-1
 643 563 l 1,17,18
 580 603 580 603 514 613 c 1,19,-1
 435 117 l 1,20,21
 504 127 504 127 581 167 c 1,22,-1
 619 56 l 1,0,1
202 199 m 128,-1,24
 239 135 239 135 324 118 c 1,25,-1
 402 612 l 1,26,27
 312 595 312 595 254.5 531 c 128,-1,28
 197 467 197 467 181 365 c 256,29,23
 165 263 165 263 202 199 c 128,-1,24
EndSplineSet
EndChar

StartChar: cent
Encoding: 162 162 477
Width: 543
Flags: W
LayerCount: 2
Fore
SplineSet
454 29 m 1,0,1
 396 3 396 3 336 -6 c 1,2,-1
 320 -105 l 1,3,-1
 222 -105 l 1,4,-1
 237 -9 l 1,5,6
 117 1 117 1 62.5 70.5 c 128,-1,7
 8 140 8 140 27 260 c 256,8,9
 46 380 46 380 122.5 449.5 c 128,-1,10
 199 519 199 519 323 529 c 1,11,-1
 338 625 l 1,12,-1
 436 625 l 1,13,-1
 420 526 l 1,14,15
 477 517 477 517 527 491 c 1,16,-1
 482 390 l 1,17,18
 445 409 445 409 403 417 c 1,19,-1
 353 103 l 1,20,21
 397 111 397 111 441 130 c 1,22,-1
 454 29 l 1,0,1
171.5 150.5 m 128,-1,24
 196 110 196 110 255 100 c 1,25,-1
 305 420 l 1,26,27
 244 410 244 410 206 369.5 c 128,-1,28
 168 329 168 329 157 260 c 256,29,23
 147 191 147 191 171.5 150.5 c 128,-1,24
EndSplineSet
EndChar

StartChar: colonmonetary
Encoding: 8353 8353 478
Width: 695
Flags: W
LayerCount: 2
Fore
SplineSet
619 56 m 1,0,1
 538 11 538 11 446 -4 c 1,2,-1
 421 -105 l 1,3,-1
 323 -105 l 1,4,-1
 346 -10 l 1,5,6
 302 -8 302 -8 283 -4 c 1,7,-1
 258 -105 l 1,8,-1
 160 -105 l 1,9,-1
 191 22 l 1,10,11
 101 62 101 62 63.5 150 c 128,-1,12
 26 238 26 238 46 365 c 0,13,14
 69 510 69 510 151 604 c 128,-1,15
 233 698 233 698 362 727 c 1,16,-1
 387 835 l 1,17,-1
 485 835 l 1,18,-1
 463 740 l 1,19,-1
 478 740 l 2,20,21
 494 740 494 740 527 738 c 1,22,-1
 550 835 l 1,23,-1
 648 835 l 1,24,-1
 620 720 l 1,25,26
 674 703 674 703 717 674 c 1,27,-1
 643 563 l 1,28,29
 612 582 612 582 589 591 c 1,30,-1
 477 126 l 1,31,32
 531 140 531 140 581 167 c 1,33,-1
 619 56 l 1,0,1
376 113 m 1,35,-1
 497 615 l 1,36,37
 474 617 474 617 461 617 c 0,38,39
 442 617 442 617 432 616 c 1,40,-1
 313 121 l 1,41,34
 343 113 343 113 376 113 c 1,35,-1
182 250 m 128,-1,43
 194 200 194 200 226 167 c 1,44,-1
 328 587 l 1,45,46
 270 558 270 558 231.5 501 c 128,-1,47
 193 444 193 444 181 365 c 0,48,42
 170 300 170 300 182 250 c 128,-1,43
EndSplineSet
EndChar

StartChar: currency
Encoding: 164 164 479
Width: 675
Flags: W
LayerCount: 2
Fore
SplineSet
533 239 m 1,1,-1
 605 150 l 1,2,-1
 514 70 l 1,3,-1
 441 159 l 1,4,5
 381 125 381 125 314 125 c 256,6,7
 247 125 247 125 197 160 c 1,8,-1
 95 70 l 1,9,-1
 27 150 l 1,10,-1
 131 242 l 1,11,12
 107 298 107 298 117 365 c 256,13,14
 128 432 128 432 170 488 c 1,15,-1
 95 579 l 1,16,-1
 188 660 l 1,17,-1
 261 570 l 1,18,19
 324 605 324 605 390 605 c 0,20,21
 457 605 457 605 506 571 c 1,22,-1
 608 660 l 1,23,-1
 674 579 l 1,24,-1
 573 490 l 1,25,26
 598 433 598 433 587 365 c 0,27,0
 577 298 577 298 533 239 c 1,1,-1
420.5 281.5 m 128,-1,29
 460 316 460 316 468 365 c 256,30,31
 476 414 476 414 447.5 448.5 c 128,-1,32
 419 483 419 483 371 483 c 256,33,34
 323 483 323 483 283.5 449 c 128,-1,35
 244 415 244 415 236 365 c 0,36,37
 228 316 228 316 256.5 281.5 c 128,-1,38
 285 247 285 247 333 247 c 256,39,28
 381 247 381 247 420.5 281.5 c 128,-1,29
EndSplineSet
EndChar

StartChar: dollar
Encoding: 36 36 480
Width: 628
Flags: W
LayerCount: 2
Fore
SplineSet
475.5 48 m 128,-1,1
 395 -8 395 -8 267 -10 c 1,2,-1
 252 -105 l 1,3,-1
 142 -105 l 1,4,-1
 158 -1 l 1,5,6
 67 18 67 18 10 63 c 1,7,-1
 66 183 l 1,8,9
 114 146 114 146 178 127 c 1,10,-1
 213 347 l 1,11,12
 138 386 138 386 109 432.5 c 128,-1,13
 80 479 80 479 91 544 c 0,14,15
 106 638 106 638 182 688 c 128,-1,16
 258 738 258 738 386 740 c 1,17,-1
 401 835 l 1,18,-1
 512 835 l 1,19,-1
 496 732 l 1,20,21
 575 718 575 718 630 687 c 1,22,-1
 579 566 l 1,23,24
 530 593 530 593 476 607 c 1,25,-1
 443 402 l 1,26,27
 523 363 523 363 552.5 316.5 c 128,-1,28
 582 270 582 270 572 204 c 0,29,0
 556 104 556 104 475.5 48 c 128,-1,1
232 544 m 0,31,32
 227 513 227 513 251.5 490.5 c 128,-1,33
 276 468 276 468 340 445 c 1,34,-1
 367 618 l 1,35,30
 243 614 243 614 232 544 c 0,31,32
389 135.5 m 128,-1,37
 427 158 427 158 434 200 c 0,38,39
 439 234 439 234 413 257.5 c 128,-1,40
 387 281 387 281 317 305 c 1,41,-1
 287 112 l 1,42,36
 351 113 351 113 389 135.5 c 128,-1,37
EndSplineSet
EndChar

StartChar: dong
Encoding: 8363 8363 481
Width: 699
Flags: W
LayerCount: 2
Fore
SplineSet
715 695 m 1,0,-1
 701 605 l 1,1,-1
 596 605 l 1,2,-1
 524 150 l 1,3,-1
 396 150 l 1,4,-1
 401 193 l 1,5,-1
 399 193 l 1,6,7
 366 170 366 170 318.5 156 c 128,-1,8
 271 142 271 142 224 142 c 0,9,10
 131 142 131 142 88.5 198.5 c 128,-1,11
 46 255 46 255 63 358 c 256,12,13
 79 461 79 461 139.5 517.5 c 128,-1,14
 200 574 200 574 293 574 c 0,15,16
 340 574 340 574 381 560 c 128,-1,17
 422 546 422 546 446 523 c 1,18,-1
 448 523 l 1,19,-1
 461 605 l 1,20,-1
 289 605 l 1,21,-1
 303 695 l 1,22,-1
 476 695 l 1,23,-1
 484 750 l 1,24,-1
 619 750 l 1,25,-1
 610 695 l 1,26,-1
 715 695 l 1,0,-1
374.5 268 m 128,-1,28
 413 298 413 298 420 344 c 2,29,-1
 425 372 l 2,30,31
 432 418 432 418 403 448 c 128,-1,32
 374 478 374 478 323 478 c 0,33,34
 273 478 273 478 239 446 c 128,-1,35
 205 414 205 414 196 358 c 256,36,37
 187 302 187 302 211 270 c 128,-1,38
 235 238 235 238 285 238 c 0,39,27
 336 238 336 238 374.5 268 c 128,-1,28
11 0 m 1,40,-1
 25 91 l 1,41,-1
 619 91 l 1,42,-1
 605 0 l 1,43,-1
 11 0 l 1,40,-1
EndSplineSet
EndChar

StartChar: Euro
Encoding: 8364 8364 482
Width: 766
GlyphClass: 2
Flags: W
AnchorPoint: "Anchor-1" 429 730 basechar 0
AnchorPoint: "Anchor-0" 429 0 basechar 0
LayerCount: 2
Fore
SplineSet
651 167 m 1,1,-1
 689 56 l 1,2,3
 576 -10 576 -10 438 -10 c 0,4,5
 305 -10 305 -10 226.5 52.5 c 128,-1,6
 148 115 148 115 135 230 c 1,7,-1
 19 230 l 1,8,-1
 35 330 l 1,9,-1
 136 330 l 1,10,11
 137 341 137 341 140 365 c 256,12,13
 144 389 144 389 147 400 c 1,14,-1
 46 400 l 1,15,-1
 61 500 l 1,16,-1
 178 500 l 1,17,18
 228 615 228 615 326 677.5 c 128,-1,19
 424 740 424 740 557 740 c 0,20,21
 694 740 694 740 787 674 c 1,22,-1
 713 563 l 1,23,24
 635 617 635 617 545 617 c 0,25,26
 474 617 474 617 419 587 c 128,-1,27
 364 557 364 557 328 500 c 1,28,-1
 649 500 l 1,29,-1
 634 400 l 1,30,-1
 287 400 l 1,31,32
 284 389 284 389 280 365 c 256,33,34
 276 341 276 341 276 330 c 1,35,-1
 623 330 l 1,36,-1
 607 230 l 1,37,-1
 285 230 l 1,38,39
 302 173 302 173 348 143 c 128,-1,40
 394 113 394 113 465 113 c 0,41,0
 556 113 556 113 651 167 c 1,1,-1
EndSplineSet
EndChar

StartChar: florin
Encoding: 402 402 483
Width: 480
Flags: W
LayerCount: 2
Fore
SplineSet
-43 -105 m 1,1,-1
 -8 0 l 1,2,3
 30 -13 30 -13 63 -13 c 0,4,5
 100 -13 100 -13 117 6 c 128,-1,6
 134 25 134 25 142 77 c 2,7,-1
 179 307 l 1,8,-1
 55 307 l 1,9,-1
 72 414 l 1,10,-1
 195 414 l 1,11,-1
 216 543 l 2,12,13
 247 740 247 740 421 740 c 0,14,15
 473 740 473 740 532 725 c 1,16,-1
 497 620 l 1,17,18
 457 633 457 633 425 633 c 0,19,20
 388 633 388 633 371.5 614 c 128,-1,21
 355 595 355 595 347 543 c 2,22,-1
 326 414 l 1,23,-1
 476 414 l 1,24,-1
 459 307 l 1,25,-1
 309 307 l 1,26,-1
 273 77 l 2,27,28
 242 -120 242 -120 68 -120 c 0,29,0
 16 -120 16 -120 -43 -105 c 1,1,-1
EndSplineSet
EndChar

StartChar: franc
Encoding: 8355 8355 484
Width: 630
Flags: W
LayerCount: 2
Fore
SplineSet
636 608 m 1,0,-1
 316 608 l 1,1,-1
 291 447 l 1,2,-1
 590 447 l 1,3,-1
 572 328 l 1,4,-1
 272 328 l 1,5,-1
 251 198 l 1,6,-1
 473 198 l 1,7,-1
 456 92 l 1,8,-1
 234 92 l 1,9,-1
 220 0 l 1,10,-1
 83 0 l 1,11,-1
 97 92 l 1,12,-1
 -8 92 l 1,13,-1
 9 198 l 1,14,-1
 114 198 l 1,15,-1
 198 730 l 1,16,-1
 655 730 l 1,17,-1
 636 608 l 1,0,-1
EndSplineSet
EndChar

StartChar: uni20B2
Encoding: 8370 8370 485
Width: 771
Flags: W
LayerCount: 2
Fore
SplineSet
738 435 m 1,0,-1
 676 48 l 1,1,2
 615 20 615 20 540 5 c 128,-1,3
 465 -10 465 -10 388 -10 c 2,4,-1
 385 -10 l 1,5,-1
 370 -105 l 1,6,-1
 259 -105 l 1,7,-1
 276 1 l 1,8,9
 143 29 143 29 83 123.5 c 128,-1,10
 23 218 23 218 46 365 c 256,11,12
 69 512 69 512 159.5 606.5 c 128,-1,13
 250 701 250 701 391 729 c 1,14,-1
 408 835 l 1,15,-1
 519 835 l 1,16,-1
 504 740 l 1,17,-1
 507 740 l 2,18,19
 658 740 658 740 749 676 c 1,20,-1
 681 569 l 1,21,22
 592 620 592 620 485 620 c 1,23,-1
 455 435 l 1,24,-1
 738 435 l 1,0,-1
195 210.5 m 128,-1,26
 224 150 224 150 296 126 c 1,27,-1
 371 604 l 1,28,29
 292 580 292 580 244 519.5 c 128,-1,30
 196 459 196 459 181 365 c 256,31,25
 166 271 166 271 195 210.5 c 128,-1,26
553 134 m 1,33,-1
 582 317 l 1,34,-1
 437 317 l 1,35,-1
 404 110 l 1,36,32
 481 110 481 110 553 134 c 1,33,-1
EndSplineSet
EndChar

StartChar: uni20AD
Encoding: 8365 8365 486
Width: 750
GlyphClass: 2
Flags: W
AnchorPoint: "Anchor-1" 332 730 basechar 0
AnchorPoint: "Anchor-0" 332 0 basechar 0
LayerCount: 2
Fore
SplineSet
720 437 m 1,0,-1
 703 330 l 1,1,-1
 444 330 l 1,2,-1
 651 0 l 1,3,-1
 486 0 l 1,4,-1
 287 330 l 1,5,-1
 272 330 l 1,6,-1
 220 0 l 1,7,-1
 83 0 l 1,8,-1
 135 330 l 1,9,-1
 30 330 l 1,10,-1
 47 437 l 1,11,-1
 152 437 l 1,12,-1
 198 730 l 1,13,-1
 335 730 l 1,14,-1
 289 437 l 1,15,-1
 304 437 l 1,16,-1
 592 730 l 1,17,-1
 757 730 l 1,18,-1
 463 437 l 1,19,-1
 720 437 l 1,0,-1
EndSplineSet
EndChar

StartChar: lira
Encoding: 8356 8356 487
Width: 640
Flags: W
LayerCount: 2
Fore
SplineSet
559 119 m 1,0,-1
 540 0 l 1,1,-1
 31 0 l 1,2,-1
 49 119 l 1,3,4
 90 122 90 122 121.5 156 c 128,-1,5
 153 190 153 190 167 246 c 1,6,-1
 69 246 l 1,7,-1
 85 346 l 1,8,-1
 183 346 l 1,9,-1
 194 416 l 1,10,-1
 96 416 l 1,11,-1
 112 516 l 1,12,-1
 210 516 l 1,13,-1
 212 530 l 2,14,15
 228 631 228 631 299 685.5 c 128,-1,16
 370 740 370 740 486 740 c 0,17,18
 560 740 560 740 630 714 c 1,19,-1
 589 597 l 1,20,21
 563 610 563 610 538.5 615.5 c 128,-1,22
 514 621 514 621 483 621 c 0,23,24
 421 621 421 621 389.5 596.5 c 128,-1,25
 358 572 358 572 347 516 c 1,26,-1
 559 516 l 1,27,-1
 543 416 l 1,28,-1
 332 416 l 1,29,-1
 321 346 l 1,30,-1
 532 346 l 1,31,-1
 516 246 l 1,32,-1
 304 246 l 1,33,34
 292 201 292 201 269 168 c 128,-1,35
 246 135 246 135 215 121 c 1,36,-1
 215 119 l 1,37,-1
 559 119 l 1,0,-1
EndSplineSet
EndChar

StartChar: uni20BA
Encoding: 8378 8378 488
Width: 667
Flags: W
LayerCount: 2
Fore
SplineSet
645 340 m 1,0,1
 626 217 626 217 564.5 140 c 128,-1,2
 503 63 503 63 394 26.5 c 128,-1,3
 285 -10 285 -10 119 -10 c 2,4,-1
 80 -10 l 1,5,-1
 134 331 l 1,6,-1
 27 312 l 1,7,-1
 43 412 l 1,8,-1
 150 431 l 1,9,-1
 161 501 l 1,10,-1
 54 482 l 1,11,-1
 70 582 l 1,12,-1
 177 601 l 1,13,-1
 197 730 l 1,14,-1
 338 730 l 1,15,-1
 322 626 l 1,16,-1
 529 662 l 1,17,-1
 514 562 l 1,18,-1
 306 526 l 1,19,-1
 295 456 l 1,20,-1
 503 492 l 1,21,-1
 487 392 l 1,22,-1
 279 356 l 1,23,-1
 242 121 l 1,24,-1
 248 121 l 2,25,26
 372 121 372 121 439.5 174 c 128,-1,27
 507 227 507 227 525 340 c 1,28,-1
 645 340 l 1,0,1
EndSplineSet
EndChar

StartChar: uni20BC
Encoding: 8380 8380 489
Width: 763
Flags: W
LayerCount: 2
Fore
SplineSet
694.5 664 m 128,-1,1
 751 593 751 593 730 460 c 2,2,-1
 657 0 l 1,3,-1
 523 0 l 1,4,-1
 593 443 l 2,5,6
 607 531 607 531 583 572 c 128,-1,7
 559 613 559 613 490 617 c 1,8,-1
 392 0 l 1,9,-1
 281 0 l 1,10,-1
 379 617 l 1,11,12
 309 614 309 614 271.5 573 c 128,-1,13
 234 532 234 532 220 443 c 2,14,-1
 150 0 l 1,15,-1
 17 0 l 1,16,-1
 90 460 l 2,17,18
 111 593 111 593 189.5 664 c 128,-1,19
 268 735 268 735 399 740 c 1,20,-1
 414 835 l 1,21,-1
 524 835 l 1,22,-1
 509 740 l 1,23,0
 638 735 638 735 694.5 664 c 128,-1,1
EndSplineSet
EndChar

StartChar: uni20A6
Encoding: 8358 8358 490
Width: 822
GlyphClass: 2
Flags: W
AnchorPoint: "Anchor-1" 377 730 basechar 0
AnchorPoint: "Anchor-0" 377 0 basechar 0
LayerCount: 2
Fore
SplineSet
819 400 m 1,0,-1
 714 400 l 1,1,-1
 703 330 l 1,2,-1
 808 330 l 1,3,-1
 792 230 l 1,4,-1
 687 230 l 1,5,-1
 651 0 l 1,6,-1
 506 0 l 1,7,-1
 301 500 l 1,8,-1
 299 500 l 1,9,-1
 220 0 l 1,10,-1
 83 0 l 1,11,-1
 119 230 l 1,12,-1
 14 230 l 1,13,-1
 30 330 l 1,14,-1
 135 330 l 1,15,-1
 146 400 l 1,16,-1
 41 400 l 1,17,-1
 57 500 l 1,18,-1
 162 500 l 1,19,-1
 198 730 l 1,20,-1
 342 730 l 1,21,-1
 548 230 l 1,22,-1
 550 230 l 1,23,-1
 629 730 l 1,24,-1
 767 730 l 1,25,-1
 730 500 l 1,26,-1
 835 500 l 1,27,-1
 819 400 l 1,0,-1
EndSplineSet
EndChar

StartChar: peseta
Encoding: 8359 8359 491
Width: 738
Flags: W
LayerCount: 2
Fore
SplineSet
751 424 m 1,0,-1
 661 424 l 1,1,2
 600 226 600 226 344 226 c 2,3,-1
 256 226 l 1,4,-1
 220 0 l 1,5,-1
 83 0 l 1,6,-1
 150 424 l 1,7,-1
 45 424 l 1,8,-1
 62 531 l 1,9,-1
 167 531 l 1,10,-1
 198 730 l 1,11,-1
 397 730 l 2,12,13
 541 730 541 730 610.5 681 c 128,-1,14
 680 632 680 632 678 531 c 1,15,-1
 767 531 l 1,16,-1
 751 424 l 1,0,-1
304 531 m 1,17,-1
 535 531 l 1,18,19
 529 575 529 575 492.5 596 c 128,-1,20
 456 617 456 617 386 617 c 2,21,-1
 318 617 l 1,22,-1
 304 531 l 1,17,-1
455.5 359 m 128,-1,24
 499 380 499 380 518 424 c 1,25,-1
 287 424 l 1,26,-1
 273 338 l 1,27,-1
 342 338 l 2,28,23
 412 338 412 338 455.5 359 c 128,-1,24
EndSplineSet
EndChar

StartChar: uni20B1
Encoding: 8369 8369 492
Width: 738
Flags: W
LayerCount: 2
Fore
SplineSet
764 512 m 1,0,-1
 678 512 l 1,1,2
 677 501 677 501 674 478 c 0,3,4
 672 466 672 466 666 442 c 1,5,-1
 753 442 l 1,6,-1
 738 342 l 1,7,-1
 622 342 l 1,8,9
 540 226 540 226 344 226 c 2,10,-1
 256 226 l 1,11,-1
 220 0 l 1,12,-1
 83 0 l 1,13,-1
 137 342 l 1,14,-1
 32 342 l 1,15,-1
 48 442 l 1,16,-1
 153 442 l 1,17,-1
 164 512 l 1,18,-1
 59 512 l 1,19,-1
 75 612 l 1,20,-1
 180 612 l 1,21,-1
 198 730 l 1,22,-1
 397 730 l 2,23,24
 509 730 509 730 575.5 701 c 128,-1,25
 642 672 642 672 666 612 c 1,26,-1
 780 612 l 1,27,-1
 764 512 l 1,0,-1
476 371.5 m 0,28,29
 521 405 521 405 533 477 c 256,30,31
 544 549 544 549 509 583 c 128,-1,32
 474 617 474 617 386 617 c 2,33,-1
 318 617 l 1,34,-1
 273 338 l 1,35,-1
 342 338 l 2,36,37
 430 338 430 338 476 371.5 c 0,28,29
EndSplineSet
EndChar

StartChar: uni20BD
Encoding: 8381 8381 493
Width: 668
Flags: W
LayerCount: 2
Fore
SplineSet
262 268 m 1,0,-1
 251 198 l 1,1,-1
 473 198 l 1,2,-1
 457 98 l 1,3,-1
 235 98 l 1,4,-1
 220 0 l 1,5,-1
 83 0 l 1,6,-1
 98 98 l 1,7,-1
 -7 98 l 1,8,-1
 9 198 l 1,9,-1
 114 198 l 1,10,-1
 125 268 l 1,11,-1
 20 268 l 1,12,-1
 36 368 l 1,13,-1
 141 368 l 1,14,-1
 198 730 l 1,15,-1
 397 730 l 2,16,17
 559 730 559 730 627 671 c 128,-1,18
 695 612 695 612 676 490 c 0,19,20
 641 268 641 268 350 268 c 2,21,-1
 262 268 l 1,0,-1
278 368 m 1,22,-1
 347 368 l 2,23,24
 435 368 435 368 480 397 c 128,-1,25
 525 426 525 426 535 489 c 256,26,27
 545 552 545 552 509 581 c 128,-1,28
 473 610 473 610 385 610 c 2,29,-1
 316 610 l 1,30,-1
 278 368 l 1,22,-1
EndSplineSet
EndChar

StartChar: uni20B9
Encoding: 8377 8377 494
Width: 615
Flags: W
LayerCount: 2
Fore
SplineSet
517 630 m 1,0,1
 534 596 534 596 533 555 c 1,2,-1
 622 555 l 1,3,-1
 607 455 l 1,4,-1
 516 455 l 1,5,6
 468 320 468 320 298 293 c 1,7,-1
 475 0 l 1,8,-1
 309 0 l 1,9,-1
 135 286 l 1,10,-1
 47 286 l 1,11,-1
 64 397 l 1,12,-1
 221 397 l 2,13,14
 280 397 280 397 317 411 c 128,-1,15
 354 425 354 425 371 455 c 1,16,-1
 73 455 l 1,17,-1
 89 555 l 1,18,-1
 387 555 l 1,19,20
 379 585 379 585 346.5 599 c 128,-1,21
 314 613 314 613 255 613 c 2,22,-1
 99 613 l 1,23,-1
 117 730 l 1,24,-1
 650 730 l 1,25,-1
 634 630 l 1,26,-1
 517 630 l 1,0,1
EndSplineSet
EndChar

StartChar: sterling
Encoding: 163 163 495
Width: 640
Flags: W
LayerCount: 2
Fore
SplineSet
559 119 m 1,0,-1
 540 0 l 1,1,-1
 31 0 l 1,2,-1
 49 119 l 1,3,4
 95 122 95 122 128 163 c 128,-1,5
 161 204 161 204 171 271 c 2,6,-1
 180 327 l 1,7,-1
 82 327 l 1,8,-1
 99 434 l 1,9,-1
 197 434 l 1,10,-1
 212 530 l 2,11,12
 228 631 228 631 299 685.5 c 128,-1,13
 370 740 370 740 486 740 c 0,14,15
 560 740 560 740 630 714 c 1,16,-1
 589 597 l 1,17,18
 563 610 563 610 538.5 615.5 c 128,-1,19
 514 621 514 621 483 621 c 0,20,21
 420 621 420 621 388 595.5 c 128,-1,22
 356 570 356 570 347 511 c 2,23,-1
 334 434 l 1,24,-1
 546 434 l 1,25,-1
 529 327 l 1,26,-1
 318 327 l 1,27,-1
 309 271 l 2,28,29
 301 218 301 218 275.5 177.5 c 128,-1,30
 250 137 250 137 215 121 c 1,31,-1
 215 119 l 1,32,-1
 559 119 l 1,0,-1
EndSplineSet
EndChar

StartChar: uni20A9
Encoding: 8361 8361 496
Width: 1004
GlyphClass: 2
Flags: W
AnchorPoint: "Anchor-1" 471 730 basechar 0
AnchorPoint: "Anchor-0" 471 0 basechar 0
LayerCount: 2
Fore
SplineSet
1002 400 m 1,0,-1
 886 400 l 1,1,-1
 860 330 l 1,2,-1
 990 330 l 1,3,-1
 975 230 l 1,4,-1
 822 230 l 1,5,-1
 735 0 l 1,6,-1
 568 0 l 1,7,-1
 535 471 l 1,8,-1
 533 471 l 1,9,-1
 350 0 l 1,10,-1
 183 0 l 1,11,-1
 169 230 l 1,12,-1
 14 230 l 1,13,-1
 30 330 l 1,14,-1
 162 330 l 1,15,-1
 159 400 l 1,16,-1
 41 400 l 1,17,-1
 57 500 l 1,18,-1
 152 500 l 1,19,-1
 138 730 l 1,20,-1
 280 730 l 1,21,-1
 285 500 l 1,22,-1
 425 500 l 1,23,-1
 475 630 l 1,24,-1
 642 630 l 1,25,-1
 651 500 l 1,26,-1
 792 500 l 1,27,-1
 871 730 l 1,28,-1
 1011 730 l 1,29,-1
 924 500 l 1,30,-1
 1017 500 l 1,31,-1
 1002 400 l 1,0,-1
294 159 m 1,32,-1
 296 159 l 1,33,-1
 388 400 l 1,34,-1
 288 400 l 1,35,-1
 294 159 l 1,32,-1
675 159 m 1,36,-1
 757 400 l 1,37,-1
 658 400 l 1,38,-1
 673 159 l 1,39,-1
 675 159 l 1,36,-1
EndSplineSet
EndChar

StartChar: yen
Encoding: 165 165 497
Width: 650
Flags: W
LayerCount: 2
Fore
SplineSet
716 730 m 1,0,-1
 469 387 l 1,1,-1
 610 387 l 1,2,-1
 594 287 l 1,3,-1
 398 287 l 1,4,-1
 387 217 l 1,5,-1
 583 217 l 1,6,-1
 567 117 l 1,7,-1
 371 117 l 1,8,-1
 352 0 l 1,9,-1
 209 0 l 1,10,-1
 228 117 l 1,11,-1
 31 117 l 1,12,-1
 47 217 l 1,13,-1
 244 217 l 1,14,-1
 255 287 l 1,15,-1
 58 287 l 1,16,-1
 74 387 l 1,17,-1
 216 387 l 1,18,-1
 76 730 l 1,19,-1
 230 730 l 1,20,-1
 346 414 l 1,21,-1
 347 414 l 1,22,-1
 562 730 l 1,23,-1
 716 730 l 1,0,-1
EndSplineSet
EndChar

StartChar: uni2215
Encoding: 8725 8725 499
Width: 465
Flags: W
LayerCount: 2
Fore
SplineSet
394 730 m 1,0,-1
 526 730 l 1,1,-1
 95 0 l 1,2,-1
 -36 0 l 1,3,-1
 394 730 l 1,0,-1
EndSplineSet
EndChar

StartChar: plus
Encoding: 43 43 500
Width: 667
Flags: W
LayerCount: 2
Fore
SplineSet
265 228 m 1,0,-1
 41 228 l 1,1,-1
 61 352 l 1,2,-1
 284 352 l 1,3,-1
 320 580 l 1,4,-1
 441 580 l 1,5,-1
 405 352 l 1,6,-1
 629 352 l 1,7,-1
 610 228 l 1,8,-1
 385 228 l 1,9,-1
 349 0 l 1,10,-1
 228 0 l 1,11,-1
 265 228 l 1,0,-1
EndSplineSet
EndChar

StartChar: minus
Encoding: 8722 8722 501
Width: 667
Flags: W
LayerCount: 2
Fore
SplineSet
61 352 m 1,0,-1
 629 352 l 1,1,-1
 610 228 l 1,2,-1
 41 228 l 1,3,-1
 61 352 l 1,0,-1
EndSplineSet
EndChar

StartChar: multiply
Encoding: 215 215 502
Width: 611
Flags: W
LayerCount: 2
Fore
SplineSet
547 99 m 1,0,-1
 450 14 l 1,1,-1
 293 205 l 1,2,-1
 76 14 l 1,3,-1
 6 99 l 1,4,-1
 224 290 l 1,5,-1
 67 481 l 1,6,-1
 163 566 l 1,7,-1
 320 375 l 1,8,-1
 538 566 l 1,9,-1
 608 481 l 1,10,-1
 390 290 l 1,11,-1
 547 99 l 1,0,-1
EndSplineSet
EndChar

StartChar: divide
Encoding: 247 247 503
Width: 667
Flags: W
CounterMasks: 1 e0
LayerCount: 2
Fore
SplineSet
306.5 453.5 m 128,-1,1
 287 477 287 477 292 509 c 256,2,3
 297 541 297 541 324 564 c 128,-1,4
 351 587 351 587 382 587 c 256,5,6
 413 587 413 587 432 564 c 128,-1,7
 451 541 451 541 446 509 c 256,8,9
 441 477 441 477 415 453.5 c 128,-1,10
 389 430 389 430 357 430 c 256,11,0
 326 430 326 430 306.5 453.5 c 128,-1,1
61 352 m 1,12,-1
 629 352 l 1,13,-1
 610 228 l 1,14,-1
 41 228 l 1,15,-1
 61 352 l 1,12,-1
237.5 16.5 m 128,-1,17
 218 40 218 40 223 72 c 256,18,19
 228 104 228 104 255 127 c 128,-1,20
 282 150 282 150 313 150 c 256,21,22
 344 150 344 150 363 127 c 128,-1,23
 382 104 382 104 377 72 c 256,24,25
 372 40 372 40 346 16.5 c 128,-1,26
 320 -7 320 -7 288 -7 c 256,27,16
 257 -7 257 -7 237.5 16.5 c 128,-1,17
EndSplineSet
EndChar

StartChar: equal
Encoding: 61 61 504
Width: 718
Flags: W
LayerCount: 2
Fore
SplineSet
105 470 m 1,0,-1
 673 470 l 1,1,-1
 654 350 l 1,2,-1
 86 350 l 1,3,-1
 105 470 l 1,0,-1
67 230 m 1,4,-1
 635 230 l 1,5,-1
 616 110 l 1,6,-1
 48 110 l 1,7,-1
 67 230 l 1,4,-1
EndSplineSet
EndChar

StartChar: notequal
Encoding: 8800 8800 505
Width: 718
Flags: W
LayerCount: 2
Fore
SplineSet
654 350 m 1,0,-1
 452 350 l 1,1,-1
 396 230 l 1,2,-1
 635 230 l 1,3,-1
 616 110 l 1,4,-1
 339 110 l 1,5,-1
 268 -42 l 1,6,-1
 157 -5 l 1,7,-1
 212 110 l 1,8,-1
 48 110 l 1,9,-1
 67 230 l 1,10,-1
 268 230 l 1,11,-1
 324 350 l 1,12,-1
 86 350 l 1,13,-1
 105 470 l 1,14,-1
 381 470 l 1,15,-1
 452 622 l 1,16,-1
 563 585 l 1,17,-1
 509 470 l 1,18,-1
 673 470 l 1,19,-1
 654 350 l 1,0,-1
EndSplineSet
EndChar

StartChar: greater
Encoding: 62 62 506
Width: 686
Flags: W
LayerCount: 2
Fore
SplineSet
45 136 m 1,0,-1
 534 289 l 1,1,-1
 534 291 l 1,2,-1
 94 444 l 1,3,-1
 115 577 l 1,4,-1
 650 368 l 1,5,-1
 625 212 l 1,6,-1
 24 3 l 1,7,-1
 45 136 l 1,0,-1
EndSplineSet
EndChar

StartChar: less
Encoding: 60 60 507
Width: 686
Flags: W
LayerCount: 2
Fore
SplineSet
39 212 m 1,0,-1
 63 368 l 1,1,-1
 665 577 l 1,2,-1
 644 444 l 1,3,-1
 155 291 l 1,4,-1
 155 289 l 1,5,-1
 595 136 l 1,6,-1
 574 3 l 1,7,-1
 39 212 l 1,0,-1
EndSplineSet
EndChar

StartChar: greaterequal
Encoding: 8805 8805 508
Width: 678
Flags: W
LayerCount: 2
Fore
SplineSet
45 176 m 1,0,-1
 66 309 l 1,1,-1
 554 462 l 1,2,-1
 554 464 l 1,3,-1
 115 617 l 1,4,-1
 136 751 l 1,5,-1
 671 541 l 1,6,-1
 646 385 l 1,7,-1
 45 176 l 1,0,-1
17 0 m 1,8,-1
 36 120 l 1,9,-1
 604 120 l 1,10,-1
 585 0 l 1,11,-1
 17 0 l 1,8,-1
EndSplineSet
EndChar

StartChar: lessequal
Encoding: 8804 8804 509
Width: 678
Flags: W
LayerCount: 2
Fore
SplineSet
90 541 m 1,0,-1
 691 751 l 1,1,-1
 670 617 l 1,2,-1
 182 464 l 1,3,-1
 181 462 l 1,4,-1
 621 309 l 1,5,-1
 600 176 l 1,6,-1
 65 385 l 1,7,-1
 90 541 l 1,0,-1
23 120 m 1,8,-1
 592 120 l 1,9,-1
 573 0 l 1,10,-1
 4 0 l 1,11,-1
 23 120 l 1,8,-1
EndSplineSet
EndChar

StartChar: plusminus
Encoding: 177 177 510
Width: 718
Flags: W
LayerCount: 2
Fore
SplineSet
318 403 m 1,0,-1
 94 403 l 1,1,-1
 113 523 l 1,2,-1
 337 523 l 1,3,-1
 370 730 l 1,4,-1
 490 730 l 1,5,-1
 457 523 l 1,6,-1
 682 523 l 1,7,-1
 663 403 l 1,8,-1
 438 403 l 1,9,-1
 406 196 l 1,10,-1
 285 196 l 1,11,-1
 318 403 l 1,0,-1
50 120 m 1,12,-1
 618 120 l 1,13,-1
 599 0 l 1,14,-1
 31 0 l 1,15,-1
 50 120 l 1,12,-1
EndSplineSet
EndChar

StartChar: approxequal
Encoding: 8776 8776 511
Width: 720
Flags: W
LayerCount: 2
Fore
SplineSet
123.5 468 m 128,-1,1
 165 516 165 516 235 516 c 0,2,3
 315 516 315 516 423 464 c 0,4,5
 488 433 488 433 526 433 c 0,6,7
 551 433 551 433 563 448.5 c 128,-1,8
 575 464 575 464 581 507 c 1,9,-1
 696 507 l 1,10,11
 680 407 680 407 638.5 359.5 c 128,-1,12
 597 312 597 312 527 312 c 0,13,14
 452 312 452 312 339 364 c 0,15,16
 272 396 272 396 237 396 c 0,17,18
 212 396 212 396 199.5 380 c 128,-1,19
 187 364 187 364 180 319 c 1,20,-1
 66 319 l 1,21,0
 82 420 82 420 123.5 468 c 128,-1,1
83.5 215 m 128,-1,23
 125 263 125 263 195 263 c 0,24,25
 271 263 271 263 383 211 c 0,26,27
 450 179 450 179 485 179 c 0,28,29
 510 179 510 179 522 194.5 c 128,-1,30
 534 210 534 210 541 253 c 1,31,-1
 656 253 l 1,32,33
 640 154 640 154 598.5 106.5 c 128,-1,34
 557 59 557 59 487 59 c 0,35,36
 412 59 412 59 299 111 c 0,37,38
 234 142 234 142 196 142 c 0,39,40
 171 142 171 142 159 126.5 c 128,-1,41
 147 111 147 111 140 65 c 1,42,-1
 25 65 l 1,43,22
 42 167 42 167 83.5 215 c 128,-1,23
EndSplineSet
EndChar

StartChar: asciitilde
Encoding: 126 126 512
Width: 700
Flags: W
LayerCount: 2
Fore
SplineSet
96 359.5 m 128,-1,1
 138 409 138 409 208 409 c 0,2,3
 282 409 282 409 395 355 c 0,4,5
 462 323 462 323 498 323 c 0,6,7
 523 323 523 323 535 339 c 128,-1,8
 547 355 547 355 554 399 c 1,9,-1
 669 399 l 1,10,11
 653 297 653 297 611 248 c 128,-1,12
 569 199 569 199 499 199 c 0,13,14
 422 199 422 199 312 252 c 0,15,16
 246 285 246 285 209 285 c 0,17,18
 184 285 184 285 172 268.5 c 128,-1,19
 160 252 160 252 152 205 c 1,20,-1
 38 205 l 1,21,0
 54 310 54 310 96 359.5 c 128,-1,1
EndSplineSet
EndChar

StartChar: logicalnot
Encoding: 172 172 513
Width: 699
Flags: W
LayerCount: 2
Fore
SplineSet
514 347 m 1,0,-1
 60 347 l 1,1,-1
 79 470 l 1,2,-1
 654 470 l 1,3,-1
 597 110 l 1,4,-1
 476 110 l 1,5,-1
 514 347 l 1,0,-1
EndSplineSet
EndChar

StartChar: asciicircum
Encoding: 94 94 514
Width: 632
Flags: W
LayerCount: 2
Fore
SplineSet
297 730 m 1,0,-1
 478 730 l 1,1,-1
 623 280 l 1,2,-1
 472 280 l 1,3,-1
 373 632 l 1,4,-1
 371 632 l 1,5,-1
 160 280 l 1,6,-1
 8 280 l 1,7,-1
 297 730 l 1,0,-1
EndSplineSet
EndChar

StartChar: uni00B5
Encoding: 181 181 515
Width: 561
GlyphClass: 2
Flags: W
AnchorPoint: "Anchor-3" 469 480 basechar 0
AnchorPoint: "Anchor-2" 489 0 basechar 0
AnchorPoint: "Anchor-1" 256 520 basechar 0
AnchorPoint: "Anchor-0" 256 0 basechar 0
LayerCount: 2
Fore
SplineSet
537 520 m 1,0,-1
 454 0 l 1,1,-1
 332 0 l 1,2,-1
 341 71 l 1,3,-1
 340 71 l 1,4,5
 264 -10 264 -10 163 -10 c 0,6,7
 146 -10 146 -10 138 -9 c 1,8,-1
 104 -220 l 1,9,-1
 -24 -220 l 1,10,-1
 93 520 l 1,11,-1
 222 520 l 1,12,-1
 175 226 l 2,13,14
 165 161 165 161 176.5 132 c 128,-1,15
 188 103 188 103 223 103 c 0,16,17
 253 103 253 103 284 122.5 c 128,-1,18
 315 142 315 142 336.5 174.5 c 128,-1,19
 358 207 358 207 364 244 c 2,20,-1
 408 520 l 1,21,-1
 537 520 l 1,0,-1
EndSplineSet
EndChar

StartChar: percent
Encoding: 37 37 516
Width: 877
Flags: W
LayerCount: 2
Fore
SplineSet
84 341 m 128,-1,1
 52 396 52 396 71 511 c 256,2,3
 89 626 89 626 138 681 c 128,-1,4
 187 736 187 736 273 736 c 256,5,6
 358 736 358 736 390 681 c 128,-1,7
 422 626 422 626 404 511 c 256,8,9
 386 396 386 396 336.5 341 c 128,-1,10
 287 286 287 286 201 286 c 256,11,0
 116 286 116 286 84 341 c 128,-1,1
643 730 m 1,12,-1
 761 730 l 1,13,-1
 260 0 l 1,14,-1
 142 0 l 1,15,-1
 643 730 l 1,12,-1
263 415.5 m 128,-1,17
 280 444 280 444 291 511 c 256,18,19
 302 578 302 578 293.5 606.5 c 128,-1,20
 285 635 285 635 257 635 c 256,21,22
 229 635 229 635 211.5 606.5 c 128,-1,23
 194 578 194 578 183 511 c 256,24,25
 172 444 172 444 180.5 415.5 c 128,-1,26
 189 387 189 387 217 387 c 256,27,16
 246 387 246 387 263 415.5 c 128,-1,17
514 49 m 128,-1,29
 482 104 482 104 501 219 c 256,30,31
 519 334 519 334 568.5 389 c 128,-1,32
 618 444 618 444 703 444 c 256,33,34
 788 444 788 444 820 389 c 128,-1,35
 852 334 852 334 834 219 c 256,36,37
 816 104 816 104 766.5 49 c 128,-1,38
 717 -6 717 -6 632 -6 c 256,39,28
 546 -6 546 -6 514 49 c 128,-1,29
693 123.5 m 128,-1,41
 710 152 710 152 721 219 c 256,42,43
 732 286 732 286 723.5 314.5 c 128,-1,44
 715 343 715 343 687 343 c 256,45,46
 659 343 659 343 641.5 314.5 c 128,-1,47
 624 286 624 286 613 219 c 256,48,49
 602 152 602 152 610.5 123.5 c 128,-1,50
 619 95 619 95 648 95 c 256,51,40
 676 95 676 95 693 123.5 c 128,-1,41
EndSplineSet
EndChar

StartChar: filledbox
Encoding: 9632 9632 518
Width: 963
Flags: W
LayerCount: 2
Fore
SplineSet
181 740 m 1,0,-1
 926 740 l 1,1,-1
 806 -20 l 1,2,-1
 61 -20 l 1,3,-1
 181 740 l 1,0,-1
EndSplineSet
EndChar

StartChar: at
Encoding: 64 64 519
Width: 799
Flags: W
LayerCount: 2
Fore
SplineSet
609 456 m 1,0,-1
 560 151 l 1,1,-1
 641 151 l 1,2,3
 668 202 668 202 677 260 c 0,4,5
 690 344 690 344 665 409 c 128,-1,6
 640 474 640 474 581.5 510.5 c 128,-1,7
 523 547 523 547 442 547 c 0,8,9
 360 547 360 547 290.5 510.5 c 128,-1,10
 221 474 221 474 174.5 409 c 128,-1,11
 128 344 128 344 115 260 c 256,12,13
 102 176 102 176 127.5 111 c 128,-1,14
 153 46 153 46 211 9.5 c 128,-1,15
 269 -27 269 -27 351 -27 c 0,16,17
 456 -27 456 -27 541 34 c 1,18,-1
 581 -35 l 1,19,20
 527 -73 527 -73 465 -93.5 c 128,-1,21
 403 -114 403 -114 337 -114 c 0,22,23
 232 -114 232 -114 156 -65.5 c 128,-1,24
 80 -17 80 -17 46.5 68 c 128,-1,25
 13 153 13 153 30 260 c 256,26,27
 47 367 47 367 107.5 452.5 c 128,-1,28
 168 538 168 538 259.5 586 c 128,-1,29
 351 634 351 634 456 634 c 256,30,31
 561 634 561 634 636.5 586 c 128,-1,32
 712 538 712 538 745.5 453 c 128,-1,33
 779 368 779 368 762 260 c 0,34,35
 744 149 744 149 682 64 c 1,36,-1
 436 64 l 1,37,-1
 443 122 l 1,38,-1
 441 122 l 1,39,40
 387 57 387 57 314 57 c 0,41,42
 246 57 246 57 212.5 111 c 128,-1,43
 179 165 179 165 194 260 c 256,44,45
 209 355 209 355 259.5 409 c 128,-1,46
 310 463 310 463 379 463 c 0,47,48
 416 463 416 463 442 447.5 c 128,-1,49
 468 432 468 432 485 399 c 1,50,-1
 487 399 l 1,51,-1
 498 456 l 1,52,-1
 609 456 l 1,0,-1
463 267 m 2,53,54
 471 317 471 317 455 344 c 128,-1,55
 439 371 439 371 403 371 c 0,56,57
 368 371 368 371 343.5 342 c 128,-1,58
 319 313 319 313 310 260 c 256,59,60
 302 207 302 207 317.5 178 c 128,-1,61
 333 149 333 149 368 149 c 0,62,63
 404 149 404 149 428.5 176 c 128,-1,64
 453 203 453 203 461 253 c 2,65,-1
 463 267 l 2,53,54
EndSplineSet
EndChar

StartChar: ampersand
Encoding: 38 38 520
Width: 698
Flags: W
LayerCount: 2
Fore
SplineSet
557 -14 m 1,0,-1
 496 56 l 1,1,2
 429 22 429 22 368 6 c 128,-1,3
 307 -10 307 -10 246 -10 c 0,4,5
 126 -10 126 -10 65 40.5 c 128,-1,6
 4 91 4 91 18 177 c 0,7,8
 27 236 27 236 69 282.5 c 128,-1,9
 111 329 111 329 210 387 c 1,10,-1
 209 388 l 2,11,12
 158 446 158 446 141.5 488 c 128,-1,13
 125 530 125 530 133 577 c 0,14,15
 145 654 145 654 209.5 697 c 128,-1,16
 274 740 274 740 379 740 c 0,17,18
 483 740 483 740 536 696.5 c 128,-1,19
 589 653 589 653 577 577 c 0,20,21
 568 522 568 522 524.5 474.5 c 128,-1,22
 481 427 481 427 386 371 c 1,23,-1
 493 246 l 1,24,-1
 518 397 l 1,25,-1
 641 397 l 1,26,-1
 598 123 l 1,27,-1
 660 50 l 1,28,-1
 557 -14 l 1,0,-1
295 622.5 m 128,-1,30
 268 605 268 605 263 573 c 0,31,32
 259 548 259 548 271.5 521 c 128,-1,33
 284 494 284 494 320 450 c 1,34,35
 386 490 386 490 413.5 517 c 128,-1,36
 441 544 441 544 446 573 c 0,37,38
 451 606 451 606 430.5 623 c 128,-1,39
 410 640 410 640 366 640 c 256,40,29
 322 640 322 640 295 622.5 c 128,-1,30
420 144 m 1,42,-1
 278 309 l 1,43,44
 219 274 219 274 191.5 246 c 128,-1,45
 164 218 164 218 159 187 c 0,46,47
 153 146 153 146 182 123 c 128,-1,48
 211 100 211 100 269 100 c 0,49,41
 346 100 346 100 420 144 c 1,42,-1
EndSplineSet
EndChar

StartChar: paragraph
Encoding: 182 182 521
Width: 636
Flags: W
LayerCount: 2
Fore
SplineSet
125 301 m 128,-1,1
 78 332 78 332 56 385 c 128,-1,2
 34 438 34 438 44 500 c 256,3,4
 54 562 54 562 93 615 c 128,-1,5
 132 668 132 668 188.5 699 c 128,-1,6
 245 730 245 730 306 730 c 2,7,-1
 639 730 l 1,8,-1
 506 -110 l 1,9,-1
 392 -110 l 1,10,-1
 508 627 l 1,11,-1
 403 627 l 1,12,-1
 287 -110 l 1,13,-1
 173 -110 l 1,14,-1
 233 270 l 1,15,0
 172 270 172 270 125 301 c 128,-1,1
EndSplineSet
EndChar

StartChar: section
Encoding: 167 167 522
Width: 552
Flags: W
LayerCount: 2
Fore
SplineSet
459 126 m 128,-1,1
 467 96 467 96 461 57 c 0,2,3
 448 -26 448 -26 383 -73 c 128,-1,4
 318 -120 318 -120 213 -120 c 0,5,6
 104 -120 104 -120 9 -77 c 1,7,-1
 54 30 l 1,8,9
 135 -10 135 -10 217 -10 c 0,10,11
 324 -10 324 -10 334 57 c 0,12,13
 339 88 339 88 319.5 106 c 128,-1,14
 300 124 300 124 248 134 c 0,15,16
 140 153 140 153 95 199 c 128,-1,17
 50 245 50 245 62 320 c 256,18,19
 74 395 74 395 133 442 c 1,20,21
 109 464 109 464 101 493.5 c 128,-1,22
 93 523 93 523 100 563 c 0,23,24
 113 646 113 646 178 693 c 128,-1,25
 243 740 243 740 348 740 c 0,26,27
 457 740 457 740 552 697 c 1,28,-1
 506 590 l 1,29,30
 425 630 425 630 344 630 c 0,31,32
 238 630 238 630 227 563 c 0,33,34
 222 532 222 532 242 514 c 128,-1,35
 262 496 262 496 312 486 c 0,36,37
 420 467 420 467 465.5 421 c 128,-1,38
 511 375 511 375 499 300 c 0,39,40
 487 223 487 223 428 178 c 1,41,0
 451 156 451 156 459 126 c 128,-1,1
190.5 273.5 m 128,-1,43
 213 255 213 255 280 240 c 0,44,45
 317 233 317 233 345 222 c 1,46,47
 381 249 381 249 387 292 c 0,48,49
 393 328 393 328 370.5 347 c 128,-1,50
 348 366 348 366 281 380 c 0,51,52
 245 387 245 387 216 398 c 1,53,54
 181 370 181 370 174 328 c 0,55,42
 168 292 168 292 190.5 273.5 c 128,-1,43
EndSplineSet
EndChar

StartChar: copyright
Encoding: 169 169 523
Width: 796
Flags: W
LayerCount: 2
Fore
SplineSet
177 43 m 128,-1,1
 101 93 101 93 65.5 178.5 c 128,-1,2
 30 264 30 264 46 365 c 256,3,4
 62 466 62 466 125 551.5 c 128,-1,5
 188 637 188 637 279.5 687 c 128,-1,6
 371 737 371 737 470 737 c 256,7,8
 569 737 569 737 645 687 c 128,-1,9
 721 637 721 637 756.5 551.5 c 128,-1,10
 792 466 792 466 776 365 c 256,11,12
 760 264 760 264 697.5 178.5 c 128,-1,13
 635 93 635 93 543 43 c 128,-1,14
 451 -7 451 -7 352 -7 c 256,15,0
 253 -7 253 -7 177 43 c 128,-1,1
516 108 m 128,-1,17
 589 148 589 148 639 216 c 128,-1,18
 689 284 689 284 702 365 c 256,19,20
 715 446 715 446 686.5 514 c 128,-1,21
 658 582 658 582 597.5 622 c 128,-1,22
 537 662 537 662 458 662 c 256,23,24
 379 662 379 662 306 622 c 128,-1,25
 233 582 233 582 183 514 c 128,-1,26
 133 446 133 446 120 365 c 256,27,28
 107 284 107 284 135.5 216 c 128,-1,29
 164 148 164 148 224.5 108 c 128,-1,30
 285 68 285 68 364 68 c 256,31,16
 443 68 443 68 516 108 c 128,-1,17
239 199.5 m 128,-1,33
 192 259 192 259 209 365 c 256,34,35
 226 471 226 471 292 530.5 c 128,-1,36
 358 590 358 590 459 590 c 0,37,38
 541 590 541 590 597 551 c 1,39,-1
 534 460 l 1,40,41
 494 489 494 489 447 489 c 0,42,43
 397 489 397 489 364 457 c 128,-1,44
 331 425 331 425 322 365 c 256,45,46
 312 305 312 305 334.5 273 c 128,-1,47
 357 241 357 241 408 241 c 0,48,49
 454 241 454 241 504 270 c 1,50,-1
 538 179 l 1,51,52
 470 140 470 140 388 140 c 0,53,32
 286 140 286 140 239 199.5 c 128,-1,33
EndSplineSet
EndChar

StartChar: registered
Encoding: 174 174 524
Width: 796
Flags: W
LayerCount: 2
Fore
SplineSet
644 686 m 128,-1,1
 719 636 719 636 755 551 c 128,-1,2
 791 466 791 466 775 365 c 256,3,4
 759 264 759 264 696.5 179 c 128,-1,5
 634 94 634 94 542.5 44 c 128,-1,6
 451 -6 451 -6 352 -6 c 256,7,8
 253 -6 253 -6 177.5 44 c 128,-1,9
 102 94 102 94 66.5 179 c 128,-1,10
 31 264 31 264 47 365 c 256,11,12
 63 466 63 466 125.5 551 c 128,-1,13
 188 636 188 636 279.5 686 c 128,-1,14
 371 736 371 736 470 736 c 256,15,0
 569 736 569 736 644 686 c 128,-1,1
516 108 m 128,-1,17
 589 148 589 148 639 216 c 128,-1,18
 689 284 689 284 702 365 c 256,19,20
 715 446 715 446 686.5 514 c 128,-1,21
 658 582 658 582 597.5 622 c 128,-1,22
 537 662 537 662 458 662 c 256,23,24
 379 662 379 662 306 622 c 128,-1,25
 233 582 233 582 183 514 c 128,-1,26
 133 446 133 446 120 365 c 256,27,28
 107 284 107 284 135.5 216 c 128,-1,29
 164 148 164 148 224.5 108 c 128,-1,30
 285 68 285 68 364 68 c 256,31,16
 443 68 443 68 516 108 c 128,-1,17
476 314 m 1,33,-1
 563 146 l 1,34,-1
 434 146 l 1,35,-1
 367 302 l 1,36,-1
 342 146 l 1,37,-1
 231 146 l 1,38,-1
 301 584 l 1,39,-1
 426 584 l 2,40,41
 523 584 523 584 564 550 c 128,-1,42
 605 516 605 516 594 446 c 0,43,32
 577 341 577 341 476 314 c 1,33,-1
397 494 m 1,44,-1
 380 389 l 1,45,-1
 399 389 l 2,46,47
 437 389 437 389 457 402 c 128,-1,48
 477 415 477 415 481 442 c 256,49,50
 485 469 485 469 469.5 481.5 c 128,-1,51
 454 494 454 494 416 494 c 2,52,-1
 397 494 l 1,44,-1
EndSplineSet
EndChar

StartChar: trademark
Encoding: 8482 8482 525
Width: 752
Flags: W
LayerCount: 2
Fore
SplineSet
179 647 m 1,0,-1
 82 647 l 1,1,-1
 95 730 l 1,2,-1
 382 730 l 1,3,-1
 369 647 l 1,4,-1
 273 647 l 1,5,-1
 228 365 l 1,6,-1
 134 365 l 1,7,-1
 179 647 l 1,0,-1
433 730 m 1,8,-1
 550 730 l 1,9,-1
 586 569 l 1,10,-1
 587 569 l 1,11,-1
 673 730 l 1,12,-1
 791 730 l 1,13,-1
 733 365 l 1,14,-1
 641 365 l 1,15,-1
 673 564 l 1,16,-1
 672 564 l 1,17,-1
 607 443 l 1,18,-1
 526 443 l 1,19,-1
 499 564 l 1,20,-1
 498 564 l 1,21,-1
 467 365 l 1,22,-1
 375 365 l 1,23,-1
 433 730 l 1,8,-1
EndSplineSet
EndChar

StartChar: degree
Encoding: 176 176 526
Width: 409
Flags: W
LayerCount: 2
Fore
SplineSet
137 404 m 128,-1,1
 101 428 101 428 84 469 c 128,-1,2
 67 510 67 510 74 558 c 256,3,4
 82 606 82 606 112 646.5 c 128,-1,5
 142 687 142 687 185.5 711 c 128,-1,6
 229 735 229 735 277 735 c 0,7,8
 324 735 324 735 360 711 c 128,-1,9
 396 687 396 687 413 646.5 c 128,-1,10
 430 606 430 606 422 558 c 256,11,12
 414 510 414 510 384.5 469 c 128,-1,13
 355 428 355 428 311.5 404 c 128,-1,14
 268 380 268 380 221 380 c 0,15,0
 173 380 173 380 137 404 c 128,-1,1
297.5 497 m 128,-1,17
 326 522 326 522 332 558 c 0,18,19
 338 593 338 593 317.5 618 c 128,-1,20
 297 643 297 643 262 643 c 256,21,22
 227 643 227 643 198.5 618 c 128,-1,23
 170 593 170 593 164 558 c 0,24,25
 158 522 158 522 179 497 c 128,-1,26
 200 472 200 472 235 472 c 0,27,16
 269 472 269 472 297.5 497 c 128,-1,17
EndSplineSet
EndChar

StartChar: bar
Encoding: 124 124 527
Width: 274
Flags: W
LayerCount: 2
Fore
SplineSet
159 810 m 1,0,-1
 282 810 l 1,1,-1
 119 -220 l 1,2,-1
 -4 -220 l 1,3,-1
 159 810 l 1,0,-1
EndSplineSet
EndChar

StartChar: brokenbar
Encoding: 166 166 528
Width: 274
Flags: W
LayerCount: 2
Fore
SplineSet
159 810 m 1,0,-1
 282 810 l 1,1,-1
 213 370 l 1,2,-1
 89 370 l 1,3,-1
 159 810 l 1,0,-1
65 220 m 1,4,-1
 189 220 l 1,5,-1
 119 -220 l 1,6,-1
 -4 -220 l 1,7,-1
 65 220 l 1,4,-1
EndSplineSet
EndChar

StartChar: dagger
Encoding: 8224 8224 529
Width: 512
Flags: W
LayerCount: 2
Fore
SplineSet
215 413 m 1,0,-1
 45 413 l 1,1,-1
 62 520 l 1,2,-1
 231 520 l 1,3,-1
 265 730 l 1,4,-1
 389 730 l 1,5,-1
 356 520 l 1,6,-1
 525 520 l 1,7,-1
 509 413 l 1,8,-1
 339 413 l 1,9,-1
 256 -110 l 1,10,-1
 132 -110 l 1,11,-1
 215 413 l 1,0,-1
EndSplineSet
EndChar

StartChar: daggerdbl
Encoding: 8225 8225 530
Width: 532
Flags: W
LayerCount: 2
Fore
SplineSet
175 100 m 1,0,-1
 5 100 l 1,1,-1
 22 207 l 1,2,-1
 192 207 l 1,3,-1
 225 413 l 1,4,-1
 55 413 l 1,5,-1
 72 520 l 1,6,-1
 241 520 l 1,7,-1
 275 730 l 1,8,-1
 399 730 l 1,9,-1
 366 520 l 1,10,-1
 535 520 l 1,11,-1
 519 413 l 1,12,-1
 349 413 l 1,13,-1
 316 207 l 1,14,-1
 486 207 l 1,15,-1
 469 100 l 1,16,-1
 299 100 l 1,17,-1
 266 -110 l 1,18,-1
 142 -110 l 1,19,-1
 175 100 l 1,0,-1
EndSplineSet
EndChar

StartChar: uni2116
Encoding: 8470 8470 531
Width: 1172
GlyphClass: 2
Flags: W
AnchorPoint: "Anchor-1" 320 730 basechar 0
AnchorPoint: "Anchor-0" 320 0 basechar 0
LayerCount: 2
Fore
SplineSet
783 364 m 128,-1,1
 739 420 739 420 755 524 c 256,2,3
 771 628 771 628 833 684 c 128,-1,4
 895 740 895 740 993 740 c 256,5,6
 1091 740 1091 740 1135 684 c 128,-1,7
 1179 628 1179 628 1163 524 c 256,8,9
 1147 420 1147 420 1085 364 c 128,-1,10
 1023 308 1023 308 925 308 c 256,11,0
 827 308 827 308 783 364 c 128,-1,1
283 730 m 1,12,-1
 489 230 l 1,13,-1
 491 230 l 1,14,-1
 570 730 l 1,15,-1
 707 730 l 1,16,-1
 592 0 l 1,17,-1
 448 0 l 1,18,-1
 242 500 l 1,19,-1
 240 500 l 1,20,-1
 160 0 l 1,21,-1
 23 0 l 1,22,-1
 139 730 l 1,23,-1
 283 730 l 1,12,-1
1006 433.5 m 128,-1,25
 1032 464 1032 464 1041 524 c 256,26,27
 1051 584 1051 584 1034.5 614.5 c 128,-1,28
 1018 645 1018 645 978 645 c 0,29,30
 897 645 897 645 878 524 c 256,31,32
 859 403 859 403 940 403 c 0,33,24
 980 403 980 403 1006 433.5 c 128,-1,25
723 257 m 1,34,-1
 1111 257 l 1,35,-1
 1095 157 l 1,36,-1
 707 157 l 1,37,-1
 723 257 l 1,34,-1
EndSplineSet
Ligature2: "'ordn' Ordinals in Latin lookup 9 subtable" N o period
EndChar

StartChar: uni0308
Encoding: 776 776 534
Width: 28
GlyphClass: 4
Flags: W
AnchorPoint: "Anchor-10" -336 739 basemark 0
AnchorPoint: "Anchor-10" -336 520 mark 0
AnchorPoint: "Anchor-6" -336 520 mark 0
AnchorPoint: "Anchor-1" -336 520 mark 0
LayerCount: 2
Fore
SplineSet
-383 739 m 5,0,-1
 -238 739 l 5,1,-1
 -261 591 l 5,2,-1
 -406 591 l 5,3,-1
 -383 739 l 5,0,-1
-128 739 m 5,4,-1
 16 739 l 5,5,-1
 -7 591 l 5,6,-1
 -152 591 l 5,7,-1
 -128 739 l 5,4,-1
EndSplineSet
EndChar

StartChar: uni0307
Encoding: 775 775 535
Width: 10
GlyphClass: 4
Flags: W
AnchorPoint: "Anchor-10" -146 739 basemark 0
AnchorPoint: "Anchor-10" -146 520 mark 0
AnchorPoint: "Anchor-6" -146 520 mark 0
AnchorPoint: "Anchor-1" -146 520 mark 0
LayerCount: 2
Fore
SplineSet
-87 739 m 1,0,-1
 58 739 l 1,1,-1
 34 591 l 1,2,-1
 -111 591 l 1,3,-1
 -87 739 l 1,0,-1
EndSplineSet
EndChar

StartChar: gravecomb
Encoding: 768 768 536
Width: 17
GlyphClass: 4
Flags: W
AnchorPoint: "Anchor-10" -252 520 mark 0
AnchorPoint: "Anchor-6" -252 520 mark 0
AnchorPoint: "Anchor-1" -252 520 mark 0
LayerCount: 2
Fore
SplineSet
-251 770 m 5,0,-1
 -85 770 l 5,1,-1
 -37 560 l 5,2,-1
 -164 560 l 5,3,-1
 -251 770 l 5,0,-1
EndSplineSet
EndChar

StartChar: acutecomb
Encoding: 769 769 537
Width: 17
GlyphClass: 4
Flags: W
AnchorPoint: "Anchor-10" -218 520 mark 0
AnchorPoint: "Anchor-6" -218 520 mark 0
AnchorPoint: "Anchor-1" -218 520 mark 0
LayerCount: 2
Fore
SplineSet
-82 560 m 1,0,-1
 -209 560 l 1,1,-1
 -95 770 l 1,2,-1
 72 770 l 1,3,-1
 -82 560 l 1,0,-1
EndSplineSet
EndChar

StartChar: uni0302
Encoding: 770 770 539
Width: 33
GlyphClass: 4
Flags: W
AnchorPoint: "Anchor-10" -367 520 mark 0
AnchorPoint: "Anchor-6" -367 520 mark 0
AnchorPoint: "Anchor-1" -367 520 mark 0
LayerCount: 2
Fore
SplineSet
-318 770 m 5,0,-1
 -93 770 l 5,1,-1
 -6 560 l 5,2,-1
 -159 560 l 5,3,-1
 -213 713 l 5,4,-1
 -215 713 l 5,5,-1
 -318 560 l 5,6,-1
 -470 560 l 5,7,-1
 -318 770 l 5,0,-1
EndSplineSet
EndChar

StartChar: uni030C
Encoding: 780 780 540
Width: 33
GlyphClass: 4
Flags: W
AnchorPoint: "Anchor-10" -367 770 basemark 0
AnchorPoint: "Anchor-10" -367 520 mark 0
AnchorPoint: "Anchor-6" -367 520 mark 0
AnchorPoint: "Anchor-1" -367 520 mark 0
LayerCount: 2
Fore
SplineSet
-437 770 m 5,0,-1
 -284 770 l 5,1,-1
 -230 617 l 5,2,-1
 -228 617 l 5,3,-1
 -125 770 l 5,4,-1
 27 770 l 5,5,-1
 -126 560 l 5,6,-1
 -351 560 l 5,7,-1
 -437 770 l 5,0,-1
EndSplineSet
EndChar

StartChar: uni0306
Encoding: 774 774 541
Width: 30
GlyphClass: 4
Flags: W
AnchorPoint: "Anchor-10" -342 520 mark 0
AnchorPoint: "Anchor-6" -342 520 mark 0
AnchorPoint: "Anchor-1" -342 520 mark 0
LayerCount: 2
Fore
SplineSet
-320.5 589 m 132,-1,1
 -365 613 -365 613 -386 655.5 c 132,-1,2
 -407 698 -407 698 -401 752 c 5,3,-1
 -270 752 l 5,4,5
 -273 666 -273 666 -199 666 c 4,6,7
 -126 666 -126 666 -102 752 c 5,8,-1
 30 752 l 5,9,10
 19 698 19 698 -15 655.5 c 132,-1,11
 -49 613 -49 613 -101.5 589 c 132,-1,12
 -154 565 -154 565 -215 565 c 260,13,0
 -276 565 -276 565 -320.5 589 c 132,-1,1
EndSplineSet
EndChar

StartChar: uni030A
Encoding: 778 778 542
Width: 21
GlyphClass: 4
Flags: W
AnchorPoint: "Anchor-10" -274 737 basemark 0
AnchorPoint: "Anchor-10" -274 520 mark 0
AnchorPoint: "Anchor-6" -274 520 mark 0
AnchorPoint: "Anchor-1" -274 520 mark 0
LayerCount: 2
Fore
SplineSet
-240 529 m 132,-1,1
 -272 550 -272 550 -286.5 586 c 132,-1,2
 -301 622 -301 622 -295 665 c 260,3,4
 -288 708 -288 708 -261.5 744 c 132,-1,5
 -235 780 -235 780 -196.5 801 c 132,-1,6
 -158 822 -158 822 -117 822 c 4,7,8
 -75 822 -75 822 -43 801 c 132,-1,9
 -11 780 -11 780 4 744 c 132,-1,10
 19 708 19 708 12 665 c 260,11,12
 5 622 5 622 -21 586 c 132,-1,13
 -47 550 -47 550 -85.5 529 c 132,-1,14
 -124 508 -124 508 -167 508 c 4,15,0
 -208 508 -208 508 -240 529 c 132,-1,1
-103.5 619 m 132,-1,17
 -82 638 -82 638 -78 665 c 260,18,19
 -74 692 -74 692 -89 711 c 132,-1,20
 -104 730 -104 730 -131 730 c 4,21,22
 -157 730 -157 730 -179 711 c 132,-1,23
 -201 692 -201 692 -205 665 c 260,24,25
 -209 638 -209 638 -193.5 619 c 132,-1,26
 -178 600 -178 600 -152 600 c 4,27,16
 -125 600 -125 600 -103.5 619 c 132,-1,17
EndSplineSet
EndChar

StartChar: tildecomb
Encoding: 771 771 543
Width: 30
GlyphClass: 4
Flags: W
AnchorPoint: "Anchor-10" -352 762 basemark 0
AnchorPoint: "Anchor-10" -352 520 mark 0
AnchorPoint: "Anchor-6" -352 520 mark 0
AnchorPoint: "Anchor-1" -352 520 mark 0
LayerCount: 2
Fore
SplineSet
-166.5 578.5 m 132,-1,1
 -195 589 -195 589 -231 613 c 4,2,3
 -271 640 -271 640 -289 640 c 4,4,5
 -304 640 -304 640 -312 626.5 c 132,-1,6
 -320 613 -320 613 -326 578 c 5,7,-1
 -439 578 l 5,8,9
 -424 672 -424 672 -391.5 717 c 132,-1,10
 -359 762 -359 762 -306 762 c 4,11,12
 -255 762 -255 762 -189 717 c 4,13,14
 -149 690 -149 690 -130 690 c 4,15,16
 -116 690 -116 690 -108 703.5 c 132,-1,17
 -100 717 -100 717 -94 752 c 5,18,-1
 19 752 l 5,19,20
 4 657 4 657 -28 612.5 c 132,-1,21
 -60 568 -60 568 -113 568 c 4,22,0
 -138 568 -138 568 -166.5 578.5 c 132,-1,1
EndSplineSet
EndChar

StartChar: uni0304
Encoding: 772 772 544
Width: 27
GlyphClass: 4
Flags: W
AnchorPoint: "Anchor-10" -328 717 basemark 0
AnchorPoint: "Anchor-10" -328 520 mark 0
AnchorPoint: "Anchor-6" -328 520 mark 0
AnchorPoint: "Anchor-1" -328 520 mark 0
LayerCount: 2
Fore
SplineSet
-374 717 m 5,0,-1
 11 717 l 5,1,-1
 -6 613 l 5,2,-1
 -390 613 l 5,3,-1
 -374 717 l 5,0,-1
EndSplineSet
EndChar

StartChar: uni0305
Encoding: 773 773 545
Width: 42
GlyphClass: 4
Flags: W
LayerCount: 2
Fore
SplineSet
-460 900 m 1,0,-1
 140 900 l 1,1,-1
 125 800 l 1,2,-1
 -476 800 l 1,3,-1
 -460 900 l 1,0,-1
EndSplineSet
EndChar

StartChar: hookabovecomb
Encoding: 777 777 546
Width: 24
GlyphClass: 4
Flags: W
AnchorPoint: "Anchor-10" -244 775 basemark 0
AnchorPoint: "Anchor-10" -244 520 mark 0
AnchorPoint: "Anchor-6" -244 520 mark 0
AnchorPoint: "Anchor-1" -244 520 mark 0
LayerCount: 2
Fore
SplineSet
-78 639 m 0,1,2
 -75 660 -75 660 -86.5 667 c 128,-1,3
 -98 674 -98 674 -132 674 c 0,4,5
 -199 674 -199 674 -266 654 c 1,6,-1
 -262 757 l 1,7,8
 -183 775 -183 775 -90 775 c 0,9,10
 -23 775 -23 775 10.5 767.5 c 128,-1,11
 44 760 44 760 56.5 741.5 c 128,-1,12
 69 723 69 723 63 688 c 0,13,14
 59 663 59 663 48.5 631.5 c 128,-1,15
 38 600 38 600 24 575 c 1,16,-1
 -100 575 l 1,17,0
 -82 615 -82 615 -78 639 c 0,1,2
EndSplineSet
EndChar

StartChar: uni030F
Encoding: 783 783 547
Width: 34
GlyphClass: 4
Flags: W
AnchorPoint: "Anchor-10" -392 770 basemark 0
AnchorPoint: "Anchor-10" -392 520 mark 0
AnchorPoint: "Anchor-6" -392 520 mark 0
AnchorPoint: "Anchor-1" -392 520 mark 0
LayerCount: 2
Fore
SplineSet
-490 770 m 5,0,-1
 -323 770 l 5,1,-1
 -275 560 l 5,2,-1
 -403 560 l 5,3,-1
 -490 770 l 5,0,-1
-255 770 m 5,4,-1
 -88 770 l 5,5,-1
 -40 560 l 5,6,-1
 -167 560 l 5,7,-1
 -255 770 l 5,4,-1
EndSplineSet
EndChar

StartChar: uni0311
Encoding: 785 785 548
Width: 30
GlyphClass: 4
Flags: W
AnchorPoint: "Anchor-10" -342 765 basemark 0
AnchorPoint: "Anchor-10" -342 520 mark 0
AnchorPoint: "Anchor-6" -342 520 mark 0
AnchorPoint: "Anchor-1" -342 520 mark 0
LayerCount: 2
Fore
SplineSet
-77.5 741 m 132,-1,1
 -33 717 -33 717 -12 674.5 c 132,-1,2
 9 632 9 632 3 578 c 5,3,-1
 -130 578 l 5,4,5
 -127 664 -127 664 -199 664 c 4,6,7
 -273 664 -273 664 -297 578 c 5,8,-1
 -428 578 l 5,9,10
 -417 632 -417 632 -383 674.5 c 132,-1,11
 -349 717 -349 717 -296.5 741 c 132,-1,12
 -244 765 -244 765 -183 765 c 260,13,0
 -122 765 -122 765 -77.5 741 c 132,-1,1
EndSplineSet
EndChar

StartChar: uni0312
Encoding: 786 786 549
Width: 17
GlyphClass: 4
Flags: W
AnchorPoint: "Anchor-10" -214 770 basemark 0
AnchorPoint: "Anchor-10" -214 520 mark 0
AnchorPoint: "Anchor-6" -214 520 mark 0
AnchorPoint: "Anchor-1" -214 520 mark 0
LayerCount: 2
Fore
SplineSet
-71 770 m 1,0,-1
 56 770 l 1,1,-1
 -58 560 l 1,2,-1
 -225 560 l 1,3,-1
 -71 770 l 1,0,-1
EndSplineSet
EndChar

StartChar: uni031B
Encoding: 795 795 550
Width: 17
GlyphClass: 4
Flags: W
AnchorPoint: "Anchor-11" -107 770 basemark 0
AnchorPoint: "Anchor-11" -352 622 mark 0
AnchorPoint: "Anchor-7" -352 622 mark 0
AnchorPoint: "Anchor-3" -352 622 mark 0
LayerCount: 2
Fore
SplineSet
-263 518 m 1,1,-1
 -224 622 l 1,2,3
 -222 611 -222 611 -210.5 604 c 128,-1,4
 -199 597 -199 597 -182 597 c 0,5,6
 -158 597 -158 597 -142.5 613.5 c 128,-1,7
 -127 630 -127 630 -122 659 c 0,8,9
 -118 682 -118 682 -119.5 715.5 c 128,-1,10
 -121 749 -121 749 -126 770 c 1,11,-1
 6 770 l 1,12,13
 17 710 17 710 7 644 c 0,14,15
 -5 569 -5 569 -47 528 c 128,-1,16
 -89 487 -89 487 -154 487 c 0,17,0
 -208 487 -208 487 -263 518 c 1,1,-1
EndSplineSet
EndChar

StartChar: uni0326
Encoding: 806 806 553
Width: 17
GlyphClass: 4
Flags: W
AnchorPoint: "Anchor-10" -298 -290 mark 0
AnchorPoint: "Anchor-9" -276 -210 basemark 0
AnchorPoint: "Anchor-6" -298 -290 mark 0
AnchorPoint: "Anchor-1" -298 -290 mark 0
LayerCount: 2
Fore
SplineSet
-290 -250 m 1,0,-1
 -418 -250 l 1,1,-1
 -303 -40 l 1,2,-1
 -136 -40 l 1,3,-1
 -290 -250 l 1,0,-1
EndSplineSet
EndChar

StartChar: uni0327
Encoding: 807 807 554
Width: 20
GlyphClass: 4
Flags: W
AnchorPoint: "Anchor-8" -307 0 mark 0
LayerCount: 2
Fore
SplineSet
-397 -197 m 1,1,-1
 -365 -96 l 1,2,3
 -323 -115 -323 -115 -278 -115 c 0,4,5
 -249 -115 -249 -115 -231.5 -106 c 128,-1,6
 -214 -97 -214 -97 -212 -81 c 0,7,8
 -206 -43 -206 -43 -277 0 c 1,9,-1
 -150 33 l 1,10,11
 -114 0 -114 0 -99.5 -33 c 128,-1,12
 -85 -66 -85 -66 -90 -102 c 0,13,14
 -99 -157 -99 -157 -149.5 -187.5 c 128,-1,15
 -200 -218 -200 -218 -284 -218 c 0,16,0
 -349 -218 -349 -218 -397 -197 c 1,1,-1
EndSplineSet
EndChar

StartChar: uni0328
Encoding: 808 808 555
Width: 20
GlyphClass: 4
Flags: W
AnchorPoint: "Anchor-5" -190 0 mark 0
AnchorPoint: "Anchor-2" -190 0 mark 0
LayerCount: 2
Fore
SplineSet
-349.5 -187.5 m 128,-1,1
 -390 -157 -390 -157 -381 -102 c 0,2,3
 -375 -66 -375 -66 -350 -33 c 128,-1,4
 -325 0 -325 0 -279 33 c 1,5,-1
 -162 0 l 1,6,7
 -248 -44 -248 -44 -255 -81 c 0,8,9
 -258 -98 -258 -98 -243.5 -106.5 c 128,-1,10
 -229 -115 -229 -115 -198 -115 c 0,11,12
 -153 -115 -153 -115 -105 -96 c 1,13,-1
 -105 -197 l 1,14,15
 -160 -218 -160 -218 -224 -218 c 0,16,0
 -309 -218 -309 -218 -349.5 -187.5 c 128,-1,1
EndSplineSet
EndChar

StartChar: uni0370
Encoding: 880 880 571
Width: 577
Flags: W
LayerCount: 2
Fore
SplineSet
567 438 m 1,0,-1
 550 331 l 1,1,-1
 217 331 l 1,2,-1
 165 0 l 1,3,-1
 27 0 l 1,4,-1
 143 730 l 1,5,-1
 281 730 l 1,6,-1
 234 438 l 1,7,-1
 567 438 l 1,0,-1
EndSplineSet
EndChar

StartChar: uni0371
Encoding: 881 881 572
Width: 441
Flags: W
LayerCount: 2
Fore
SplineSet
412 322 m 1,0,-1
 397 225 l 1,1,-1
 177 225 l 1,2,-1
 141 0 l 1,3,-1
 18 0 l 1,4,-1
 100 520 l 1,5,-1
 223 520 l 1,6,-1
 192 322 l 1,7,-1
 412 322 l 1,0,-1
EndSplineSet
EndChar

StartChar: uni0372
Encoding: 882 882 573
Width: 709
Flags: W
CounterMasks: 1 38
LayerCount: 2
Fore
SplineSet
338 614 m 1,0,-1
 227 614 l 1,1,-1
 184 337 l 1,2,-1
 62 337 l 1,3,-1
 124 730 l 1,4,-1
 726 730 l 1,5,-1
 664 337 l 1,6,-1
 542 337 l 1,7,-1
 586 614 l 1,8,-1
 475 614 l 1,9,-1
 378 0 l 1,10,-1
 241 0 l 1,11,-1
 338 614 l 1,0,-1
EndSplineSet
EndChar

StartChar: uni0373
Encoding: 883 883 574
Width: 575
Flags: W
CounterMasks: 1 1c
LayerCount: 2
Fore
SplineSet
282 632 m 1,0,-1
 204 632 l 1,1,-1
 173 437 l 1,2,-1
 73 437 l 1,3,-1
 120 730 l 1,4,-1
 597 730 l 1,5,-1
 551 437 l 1,6,-1
 451 437 l 1,7,-1
 482 632 l 1,8,-1
 404 632 l 1,9,-1
 304 0 l 1,10,-1
 182 0 l 1,11,-1
 282 632 l 1,0,-1
EndSplineSet
EndChar

StartChar: uni0374
Encoding: 884 884 575
Width: 322
Flags: W
LayerCount: 2
Fore
SplineSet
364 770 m 1,0,-1
 208 490 l 1,1,-1
 91 490 l 1,2,-1
 200 770 l 1,3,-1
 364 770 l 1,0,-1
EndSplineSet
EndChar

